{
.appVersion = "3134";
DisplayStrings = (
"/uni3014/uni3015/uni3018/uni3019/uni300A/uni3016/uni301A/uni301B \012/uni3002/uniFF61/uni300C/uni300D/uniFF62/uniFF63/uni3001/uniFF64/uniFF65/uni30FB \012/uni3003/uniFF02/uniFF1F"
);
copyright = "Copyright (c) 1999-2022 SIL International";
customParameters = (
{
name = hheaAscender;
value = 2200;
},
{
name = hheaDescender;
value = -500;
},
{
name = hheaLineGap;
value = 0;
},
{
name = panose;
value = (
2,
0,
0,
0,
0,
0,
0,
0,
0,
0
);
},
{
name = fsType;
value = (
);
},
{
name = typoAscender;
value = 2200;
},
{
name = typoDescender;
value = -500;
},
{
name = typoLineGap;
value = 0;
},
{
name = unicodeRanges;
value = (
0,
1,
2,
3,
5,
6,
7,
31,
32,
33,
35,
38,
40,
42,
45,
47,
48,
50,
60,
62,
67,
68,
69,
83,
91
);
},
{
name = strikeoutSize;
value = 102;
},
{
name = strikeoutPosition;
value = 512;
},
{
name = subscriptXSize;
value = 1433;
},
{
name = subscriptYSize;
value = 1331;
},
{
name = subscriptXOffset;
value = 0;
},
{
name = subscriptYOffset;
value = 286;
},
{
name = superscriptXSize;
value = 1433;
},
{
name = superscriptYSize;
value = 1331;
},
{
name = superscriptXOffset;
value = 0;
},
{
name = superscriptYOffset;
value = 976;
},
{
name = underlinePosition;
value = -123;
},
{
name = underlineThickness;
value = 20;
},
{
name = versionString;
value = "Version 2.301";
},
{
name = vendorID;
value = "SIL ";
},
{
name = license;

glyphs = (
{
glyphname = .notdef;
layers = (
{
layerId = "D444198A-330D-4B37-A977-E225F0F0EE7C";
paths = (
{
closed = 1;
nodes = (
"980 0 LINE",
"980 1443 LINE",
"100 1443 LINE",
"100 0 LINE"
);
},
{
closed = 1;
nodes = (
"150 1393 LINE",
"930 1393 LINE",
"930 50 LINE",
"150 50 LINE"
);
}
);
vertWidth = 0;
width = 1080;
}
);
note = "";
},
{
glyphname = exclam;
layers = (
{
layerId = "D444198A-330D-4B37-A977-E225F0F0EE7C";
paths = (
{
closed = 1;
nodes = (
"375 373 LINE",
"469 1218 LINE SMOOTH",
"472 1243 OFFCURVE",
"473 1266 OFFCURVE",
"473 1287 CURVE SMOOTH",
"473 1369 OFFCURVE",
"438 1443 OFFCURVE",
"358 1443 CURVE SMOOTH",
"278 1443 OFFCURVE",
"227 1378 OFFCURVE",
"236 1297 CURVE SMOOTH",
"245 1218 LINE",
"335 373 LINE"
);
},
{
closed = 1;
nodes = (
"386 -31 OFFCURVE",
"413 -19 OFFCURVE",
"436 4 CURVE SMOOTH",
"459 27 OFFCURVE",
"469 56 OFFCURVE",
"469 89 CURVE SMOOTH",
"469 122 OFFCURVE",
"458 147 OFFCURVE",
"433 169 CURVE SMOOTH",
"411 190 OFFCURVE",
"383 200 OFFCURVE",
"355 200 CURVE SMOOTH",
"325 200 OFFCURVE",
"299 192 OFFCURVE",
"278 172 CURVE SMOOTH",
"252 150 OFFCURVE",
"238 123 OFFCURVE",
"238 89 CURVE SMOOTH",
"238 50 OFFCURVE",
"252 20 OFFCURVE",
"279 -1 CURVE SMOOTH",
"302 -20 OFFCURVE",
"326 -31 OFFCURVE",
"355 -31 CURVE SMOOTH"
);
}
);
vertWidth = 0;
width = 709;
}
);
note = "";
unicode = 0021;
},
{
glyphname = quotedbl;
layers = (
{
layerId = "D444198A-330D-4B37-A977-E225F0F0EE7C";
paths = (
{
closed = 1;
nodes = (
"649 837 LINE",
"708 1140 LINE SMOOTH",
"724 1220 OFFCURVE",
"729 1283 OFFCURVE",
"729 1333 CURVE SMOOTH",
"729 1364 OFFCURVE",
"721 1390 OFFCURVE",
"701 1411 CURVE SMOOTH",
"682 1433 OFFCURVE",
"656 1443 OFFCURVE",
"625 1443 CURVE SMOOTH",
"555 1443 OFFCURVE",
"519 1401 OFFCURVE",
"519 1318 CURVE SMOOTH",
"519 1290 OFFCURVE",
"526 1230 OFFCURVE",
"543 1140 CURVE SMOOTH",
"599 837 LINE"
);
},
{
closed = 1;
nodes = (
"262 837 LINE",
"320 1143 LINE SMOOTH",
"339 1244 OFFCURVE",
"349 1307 OFFCURVE",
"349 1330 CURVE SMOOTH",
"349 1364 OFFCURVE",
"339 1391 OFFCURVE",
"319 1413 CURVE SMOOTH",
"299 1433 OFFCURVE",
"273 1443 OFFCURVE",
"242 1443 CURVE SMOOTH",
"173 1443 OFFCURVE",
"139 1401 OFFCURVE",
"139 1318 CURVE SMOOTH",
"139 1283 OFFCURVE",
"147 1224 OFFCURVE",
"162 1144 CURVE SMOOTH",
"219 837 LINE"
);
}
);
vertWidth = 0;
width = 869;
}
);
note = "";
unicode = 0022;
},
{
glyphname = numbersign;
layers = (
{
layerId = "D444198A-330D-4B37-A977-E225F0F0EE7C";
paths = (
{
closed = 1;
nodes = (
"207 -31 LINE",
"306 445 LINE",
"658 445 LINE",
"563 -31 LINE",
"648 -31 LINE",
"744 445 LINE",
"1030 445 LINE",
"1030 531 LINE",
"762 531 LINE",
"837 888 LINE",
"1030 888 LINE",
"1030 970 LINE",
"851 970 LINE",
"950 1443 LINE",
"864 1443 LINE",
"762 970 LINE",
"412 970 LINE",
"505 1443 LINE",
"420 1443 LINE",
"326 970 LINE",
"37 970 LINE",
"37 888 LINE",
"306 888 LINE",
"232 531 LINE",
"37 531 LINE",
"37 445 LINE",
"216 445 LINE",
"119 -31 LINE"
);
},
{
closed = 1;
nodes = (
"393 888 LINE",
"748 888 LINE",
"675 531 LINE",
"320 531 LINE"
);
}
);
vertWidth = 0;
width = 1067;
}
);
note = "";
unicode = 0023;
},
{
glyphname = dollar;
layers = (
{
layerId = "D444198A-330D-4B37-A977-E225F0F0EE7C";
paths = (
{
closed = 1;
nodes = (
"545 -162 LINE",
"545 -31 LINE",
"657 -24 OFFCURVE",
"752 13 OFFCURVE",
"832 80 CURVE SMOOTH",
"915 152 OFFCURVE",
"957 243 OFFCURVE",
"957 350 CURVE SMOOTH",
"957 439 OFFCURVE",
"927 518 OFFCURVE",
"867 582 CURVE SMOOTH",
"822 631 OFFCURVE",
"714 715 OFFCURVE",
"545 837 CURVE",
"545 1366 LINE",
"729 1347 OFFCURVE",
"831 1236 OFFCURVE",
"848 1031 CURVE",
"890 1031 LINE",
"890 1343 LINE",
"795 1379 OFFCURVE",
"728 1403 OFFCURVE",
"688 1417 CURVE",
"638 1427 OFFCURVE",
"589 1434 OFFCURVE",
"545 1436 CURVE",
"545 1532 LINE",
"479 1532 LINE",
"479 1436 LINE",
"391 1430 OFFCURVE",
"310 1403 OFFCURVE",
"242 1353 CURVE SMOOTH",
"153 1290 OFFCURVE",
"110 1204 OFFCURVE",
"110 1097 CURVE SMOOTH",
"110 1002 OFFCURVE",
"142 919 OFFCURVE",
"206 851 CURVE SMOOTH",
"252 802 OFFCURVE",
"342 735 OFFCURVE",
"479 646 CURVE",
"479 39 LINE",
"278 57 OFFCURVE",
"169 160 OFFCURVE",
"156 349 CURVE",
"110 349 LINE",
"110 53 LINE",
"222 4 OFFCURVE",
"345 -24 OFFCURVE",
"479 -31 CURVE",
"479 -162 LINE"
);
},
{
closed = 1;
nodes = (
"545 601 LINE",
"637 536 OFFCURVE",
"698 488 OFFCURVE",
"727 455 CURVE SMOOTH",
"769 408 OFFCURVE",
"791 355 OFFCURVE",
"791 299 CURVE SMOOTH",
"791 216 OFFCURVE",
"759 150 OFFCURVE",
"697 100 CURVE SMOOTH",
"649 64 OFFCURVE",
"599 43 OFFCURVE",
"545 39 CURVE"
);
},
{
closed = 1;
nodes = (
"340 968 OFFCURVE",
"272 1061 OFFCURVE",
"272 1163 CURVE SMOOTH",
"272 1277 OFFCURVE",
"340 1344 OFFCURVE",
"479 1366 CURVE",
"479 881 LINE"
);
}
);
vertWidth = 0;
width = 1067;
}
);
note = "";
unicode = 0024;
},
{
glyphname = percent;
layers = (
{
layerId = "D444198A-330D-4B37-A977-E225F0F0EE7C";
paths = (
{
closed = 1;
nodes = (
"562 -31 LINE",
"1386 1447 LINE",
"1284 1447 LINE",
"1211 1350 OFFCURVE",
"1104 1301 OFFCURVE",
"964 1300 CURVE SMOOTH",
"898 1298 OFFCURVE",
"839 1317 OFFCURVE",
"785 1357 CURVE SMOOTH",
"732 1397 OFFCURVE",
"678 1417 OFFCURVE",
"622 1417 CURVE SMOOTH",
"503 1417 OFFCURVE",
"397 1361 OFFCURVE",
"303 1251 CURVE SMOOTH",
"207 1141 OFFCURVE",
"160 1028 OFFCURVE",
"160 911 CURVE SMOOTH",
"160 715 OFFCURVE",
"244 618 OFFCURVE",
"415 618 CURVE SMOOTH",
"515 618 OFFCURVE",
"611 671 OFFCURVE",
"703 776 CURVE SMOOTH",
"802 891 OFFCURVE",
"851 1017 OFFCURVE",
"851 1154 CURVE SMOOTH",
"851 1167 OFFCURVE",
"848 1185 OFFCURVE",
"842 1213 CURVE SMOOTH",
"838 1240 OFFCURVE",
"835 1258 OFFCURVE",
"835 1268 CURVE",
"862 1258 OFFCURVE",
"898 1253 OFFCURVE",
"941 1253 CURVE SMOOTH",
"1028 1253 OFFCURVE",
"1117 1271 OFFCURVE",
"1205 1308 CURVE",
"459 -31 LINE"
);
},
{
closed = 1;
nodes = (
"366 691 OFFCURVE",
"322 744 OFFCURVE",
"322 849 CURVE SMOOTH",
"322 980 OFFCURVE",
"365 1101 OFFCURVE",
"448 1211 CURVE SMOOTH",
"519 1307 OFFCURVE",
"579 1356 OFFCURVE",
"629 1356 CURVE SMOOTH",
"641 1356 OFFCURVE",
"661 1347 OFFCURVE",
"686 1328 CURVE",
"719 1307 OFFCURVE",
"748 1291 OFFCURVE",
"778 1283 CURVE",
"795 1185 LINE",
"795 1072 OFFCURVE",
"764 964 OFFCURVE",
"698 859 CURVE SMOOTH",
"626 746 OFFCURVE",
"546 691 OFFCURVE",
"455 691 CURVE SMOOTH"
);
},
{
closed = 1;
nodes = (
"1361 -31 OFFCURVE",
"1454 20 OFFCURVE",
"1540 123 CURVE SMOOTH",
"1634 235 OFFCURVE",
"1682 370 OFFCURVE",
"1682 529 CURVE SMOOTH",
"1682 591 OFFCURVE",
"1662 643 OFFCURVE",
"1622 689 CURVE SMOOTH",
"1577 739 OFFCURVE",
"1521 765 OFFCURVE",
"1454 765 CURVE SMOOTH",
"1336 765 OFFCURVE",
"1230 711 OFFCURVE",
"1134 602 CURVE SMOOTH",
"1038 495 OFFCURVE",
"991 382 OFFCURVE",
"991 262 CURVE SMOOTH",
"991 67 OFFCURVE",
"1081 -31 OFFCURVE",
"1261 -31 CURVE SMOOTH"
);
},
{
closed = 1;
nodes = (
"1197 34 OFFCURVE",
"1153 84 OFFCURVE",
"1153 183 CURVE SMOOTH",
"1153 289 OFFCURVE",
"1185 398 OFFCURVE",
"1248 511 CURVE SMOOTH",
"1318 633 OFFCURVE",
"1394 695 OFFCURVE",
"1479 695 CURVE SMOOTH",
"1523 695 OFFCURVE",
"1560 676 OFFCURVE",
"1589 638 CURVE SMOOTH",
"1614 603 OFFCURVE",
"1626 563 OFFCURVE",
"1626 516 CURVE SMOOTH",
"1626 416 OFFCURVE",
"1594 315 OFFCURVE",
"1531 212 CURVE SMOOTH",
"1460 93 OFFCURVE",
"1378 34 OFFCURVE",
"1286 34 CURVE SMOOTH"
);
}
);
vertWidth = 0;
width = 1842;
}
);
note = "";
unicode = 0025;
},
{
glyphname = ampersand;
layers = (
{
layerId = "D444198A-330D-4B37-A977-E225F0F0EE7C";
paths = (
{
closed = 1;
nodes = (
"545 -33 OFFCURVE",
"638 -7 OFFCURVE",
"725 41 CURVE SMOOTH",
"771 66 OFFCURVE",
"829 109 OFFCURVE",
"899 170 CURVE",
"1025 34 OFFCURVE",
"1147 -33 OFFCURVE",
"1266 -33 CURVE SMOOTH",
"1360 -33 OFFCURVE",
"1439 1 OFFCURVE",
"1499 71 CURVE SMOOTH",
"1543 123 OFFCURVE",
"1572 183 OFFCURVE",
"1587 255 CURVE",
"1547 280 LINE",
"1523 179 OFFCURVE",
"1460 127 OFFCURVE",
"1357 127 CURVE SMOOTH",
"1264 127 OFFCURVE",
"1160 192 OFFCURVE",
"1045 322 CURVE",
"1128 428 OFFCURVE",
"1198 532 OFFCURVE",
"1254 635 CURVE SMOOTH",
"1311 738 OFFCURVE",
"1356 802 OFFCURVE",
"1389 828 CURVE SMOOTH",
"1411 847 OFFCURVE",
"1454 861 OFFCURVE",
"1519 869 CURVE",
"1519 908 LINE",
"1081 908 LINE",
"1081 869 LINE",
"1110 869 OFFCURVE",
"1133 857 OFFCURVE",
"1151 834 CURVE SMOOTH",
"1170 809 OFFCURVE",
"1178 782 OFFCURVE",
"1178 752 CURVE SMOOTH",
"1178 652 OFFCURVE",
"1118 529 OFFCURVE",
"997 383 CURVE",
"898 515 OFFCURVE",
"805 658 OFFCURVE",
"719 814 CURVE",
"824 868 OFFCURVE",
"897 914 OFFCURVE",
"940 951 CURVE SMOOTH",
"1021 1022 OFFCURVE",
"1062 1101 OFFCURVE",
"1062 1188 CURVE SMOOTH",
"1062 1258 OFFCURVE",
"1038 1317 OFFCURVE",
"990 1366 CURVE SMOOTH",
"938 1417 OFFCURVE",
"868 1443 OFFCURVE",
"781 1443 CURVE SMOOTH",
"685 1443 OFFCURVE",
"603 1416 OFFCURVE",
"535 1361 CURVE SMOOTH",
"458 1298 OFFCURVE",
"418 1211 OFFCURVE",
"418 1098 CURVE SMOOTH",
"418 1018 OFFCURVE",
"448 915 OFFCURVE",
"505 789 CURVE",
"216 636 OFFCURVE",
"71 466 OFFCURVE",
"71 279 CURVE SMOOTH",
"71 196 OFFCURVE",
"103 124 OFFCURVE",
"166 66 CURVE SMOOTH",
"236 0 OFFCURVE",
"329 -33 OFFCURVE",
"445 -33 CURVE SMOOTH"
);
},
{
closed = 1;
nodes = (
"469 94 OFFCURVE",
"405 124 OFFCURVE",
"356 183 CURVE SMOOTH",
"312 236 OFFCURVE",
"289 299 OFFCURVE",
"289 373 CURVE SMOOTH",
"289 511 OFFCURVE",
"372 626 OFFCURVE",
"538 718 CURVE",
"596 608 OFFCURVE",
"635 538 OFFCURVE",
"654 505 CURVE SMOOTH",
"679 462 OFFCURVE",
"742 370 OFFCURVE",
"845 230 CURVE",
"735 139 OFFCURVE",
"638 94 OFFCURVE",
"552 94 CURVE SMOOTH"
);
},
{
closed = 1;
nodes = (
"626 1011 OFFCURVE",
"596 1110 OFFCURVE",
"596 1181 CURVE SMOOTH",
"596 1218 OFFCURVE",
"608 1256 OFFCURVE",
"632 1291 CURVE SMOOTH",
"665 1344 OFFCURVE",
"715 1370 OFFCURVE",
"781 1370 CURVE SMOOTH",
"825 1370 OFFCURVE",
"862 1353 OFFCURVE",
"894 1320 CURVE SMOOTH",
"925 1287 OFFCURVE",
"941 1246 OFFCURVE",
"941 1193 CURVE SMOOTH",
"941 1065 OFFCURVE",
"855 961 OFFCURVE",
"685 884 CURVE"
);
}
);
vertWidth = 0;
width = 1659;
}
);
note = "";
unicode = 0026;
},
{
glyphname = quotesingle;
layers = (
{
layerId = "D444198A-330D-4B37-A977-E225F0F0EE7C";
paths = (
{
closed = 1;
nodes = (
"213 837 LINE",
"269 1143 LINE SMOOTH",
"287 1247 OFFCURVE",
"297 1311 OFFCURVE",
"297 1333 CURVE SMOOTH",
"297 1388 OFFCURVE",
"262 1443 OFFCURVE",
"186 1443 CURVE SMOOTH",
"122 1443 OFFCURVE",
"89 1401 OFFCURVE",
"89 1318 CURVE SMOOTH",
"89 1286 OFFCURVE",
"96 1227 OFFCURVE",
"110 1144 CURVE SMOOTH",
"166 837 LINE"
);
}
);
vertWidth = 0;
width = 385;
}
);
note = "";
unicode = 0027;
},
{
glyphname = parenleft;
layers = (
{
layerId = "D444198A-330D-4B37-A977-E225F0F0EE7C";
paths = (
{
closed = 1;
nodes = (
"661 -418 LINE",
"412 -265 OFFCURVE",
"287 54 OFFCURVE",
"287 539 CURVE SMOOTH",
"287 768 OFFCURVE",
"320 960 OFFCURVE",
"388 1115 CURVE SMOOTH",
"452 1267 OFFCURVE",
"542 1374 OFFCURVE",
"661 1437 CURVE",
"661 1480 LINE",
"489 1400 OFFCURVE",
"352 1271 OFFCURVE",
"246 1095 CURVE SMOOTH",
"140 918 OFFCURVE",
"89 725 OFFCURVE",
"89 512 CURVE SMOOTH",
"89 302 OFFCURVE",
"140 109 OFFCURVE",
"245 -70 CURVE SMOOTH",
"349 -247 OFFCURVE",
"488 -376 OFFCURVE",
"661 -458 CURVE"
);
}
);
vertWidth = 0;
width = 709;
}
);
note = "";
unicode = 0028;
},
{
glyphname = parenright;
layers = (
{
layerId = "D444198A-330D-4B37-A977-E225F0F0EE7C";
paths = (
{
closed = 1;
nodes = (
"216 -383 OFFCURVE",
"355 -257 OFFCURVE",
"462 -77 CURVE SMOOTH",
"569 102 OFFCURVE",
"623 296 OFFCURVE",
"623 509 CURVE SMOOTH",
"623 721 OFFCURVE",
"572 912 OFFCURVE",
"472 1085 CURVE SMOOTH",
"370 1258 OFFCURVE",
"229 1390 OFFCURVE",
"47 1480 CURVE",
"47 1439 LINE",
"206 1336 OFFCURVE",
"313 1180 OFFCURVE",
"370 974 CURVE SMOOTH",
"406 848 OFFCURVE",
"425 684 OFFCURVE",
"425 482 CURVE SMOOTH",
"425 16 OFFCURVE",
"299 -285 OFFCURVE",
"47 -418 CURVE",
"47 -458 LINE"
);
}
);
vertWidth = 0;
width = 709;
}
);
note = "";
unicode = 0029;
},
{
glyphname = asterisk;
layers = (
{
layerId = "D444198A-330D-4B37-A977-E225F0F0EE7C";
paths = (
{
closed = 1;
nodes = (
"589 618 OFFCURVE",
"619 654 OFFCURVE",
"619 728 CURVE SMOOTH",
"619 759 OFFCURVE",
"609 805 OFFCURVE",
"588 867 CURVE SMOOTH",
"566 928 OFFCURVE",
"556 977 OFFCURVE",
"556 1011 CURVE",
"601 968 OFFCURVE",
"645 925 OFFCURVE",
"689 884 CURVE SMOOTH",
"749 825 OFFCURVE",
"799 798 OFFCURVE",
"837 798 CURVE SMOOTH",
"888 798 OFFCURVE",
"914 822 OFFCURVE",
"914 874 CURVE SMOOTH",
"914 919 OFFCURVE",
"871 960 OFFCURVE",
"781 988 CURVE SMOOTH",
"715 1010 OFFCURVE",
"648 1027 OFFCURVE",
"581 1048 CURVE",
"648 1065 OFFCURVE",
"715 1083 OFFCURVE",
"781 1103 CURVE SMOOTH",
"872 1131 OFFCURVE",
"917 1173 OFFCURVE",
"917 1221 CURVE SMOOTH",
"917 1244 OFFCURVE",
"908 1261 OFFCURVE",
"892 1276 CURVE SMOOTH",
"875 1290 OFFCURVE",
"857 1297 OFFCURVE",
"834 1297 CURVE SMOOTH",
"801 1297 OFFCURVE",
"755 1268 OFFCURVE",
"695 1211 CURVE SMOOTH",
"612 1133 OFFCURVE",
"565 1091 OFFCURVE",
"556 1084 CURVE",
"558 1104 OFFCURVE",
"571 1153 OFFCURVE",
"592 1230 CURVE SMOOTH",
"609 1290 OFFCURVE",
"619 1338 OFFCURVE",
"619 1374 CURVE SMOOTH",
"619 1400 OFFCURVE",
"612 1424 OFFCURVE",
"598 1446 CURVE SMOOTH",
"583 1469 OFFCURVE",
"563 1480 OFFCURVE",
"539 1480 CURVE SMOOTH",
"479 1480 OFFCURVE",
"449 1443 OFFCURVE",
"449 1370 CURVE SMOOTH",
"449 1346 OFFCURVE",
"458 1301 OFFCURVE",
"478 1234 CURVE SMOOTH",
"499 1160 OFFCURVE",
"512 1111 OFFCURVE",
"515 1084 CURVE",
"469 1128 OFFCURVE",
"425 1171 OFFCURVE",
"379 1214 CURVE SMOOTH",
"316 1271 OFFCURVE",
"266 1300 OFFCURVE",
"230 1300 CURVE SMOOTH",
"177 1300 OFFCURVE",
"152 1274 OFFCURVE",
"152 1224 CURVE SMOOTH",
"152 1187 OFFCURVE",
"176 1157 OFFCURVE",
"222 1134 CURVE SMOOTH",
"249 1120 OFFCURVE",
"296 1103 OFFCURVE",
"363 1087 CURVE SMOOTH",
"432 1070 OFFCURVE",
"475 1057 OFFCURVE",
"492 1048 CURVE",
"423 1028 OFFCURVE",
"355 1012 OFFCURVE",
"289 990 CURVE SMOOTH",
"196 960 OFFCURVE",
"152 917 OFFCURVE",
"152 869 CURVE SMOOTH",
"152 849 OFFCURVE",
"160 831 OFFCURVE",
"177 817 CURVE SMOOTH",
"194 802 OFFCURVE",
"214 795 OFFCURVE",
"236 795 CURVE SMOOTH",
"269 795 OFFCURVE",
"316 825 OFFCURVE",
"379 884 CURVE SMOOTH",
"469 968 OFFCURVE",
"513 1011 OFFCURVE",
"516 1012 CURVE",
"515 1004 OFFCURVE",
"502 957 OFFCURVE",
"476 869 CURVE SMOOTH",
"458 808 OFFCURVE",
"449 759 OFFCURVE",
"449 724 CURVE SMOOTH",
"449 698 OFFCURVE",
"456 674 OFFCURVE",
"470 651 CURVE SMOOTH",
"485 628 OFFCURVE",
"505 618 OFFCURVE",
"529 618 CURVE SMOOTH"
);
}
);
vertWidth = 0;
width = 1065;
}
);
note = "";
unicode = 002A;
},
{
glyphname = plus;
layers = (
{
layerId = "D444198A-330D-4B37-A977-E225F0F0EE7C";
paths = (
{
closed = 1;
nodes = (
"1088 0 LINE",
"1088 552 LINE",
"1640 552 LINE",
"1640 679 LINE",
"1088 679 LINE",
"1088 1230 LINE",
"961 1230 LINE",
"961 679 LINE",
"410 679 LINE",
"410 552 LINE",
"961 552 LINE",
"961 0 LINE"
);
}
);
vertWidth = 0;
width = 2051;
}
);
note = "";
unicode = 002B;
},
{
glyphname = comma;
layers = (
{
layerId = "D444198A-330D-4B37-A977-E225F0F0EE7C";
paths = (
{
closed = 1;
nodes = (
"322 -285 OFFCURVE",
"425 -169 OFFCURVE",
"425 -10 CURVE SMOOTH",
"425 57 OFFCURVE",
"405 110 OFFCURVE",
"368 152 CURVE SMOOTH",
"333 189 OFFCURVE",
"293 207 OFFCURVE",
"250 207 CURVE SMOOTH",
"213 207 OFFCURVE",
"182 196 OFFCURVE",
"154 173 CURVE SMOOTH",
"129 150 OFFCURVE",
"114 122 OFFCURVE",
"114 86 CURVE SMOOTH",
"114 9 OFFCURVE",
"152 -31 OFFCURVE",
"226 -31 CURVE SMOOTH",
"236 -31 OFFCURVE",
"252 -26 OFFCURVE",
"270 -16 CURVE SMOOTH",
"290 -6 OFFCURVE",
"305 0 OFFCURVE",
"316 0 CURVE SMOOTH",
"330 0 OFFCURVE",
"339 -14 OFFCURVE",
"339 -41 CURVE SMOOTH",
"339 -106 OFFCURVE",
"315 -163 OFFCURVE",
"266 -216 CURVE SMOOTH",
"225 -260 OFFCURVE",
"173 -292 OFFCURVE",
"114 -309 CURVE",
"114 -356 LINE"
);
}
);
vertWidth = 0;
width = 533;
}
);
note = "";
unicode = 002C;
},
{
glyphname = period;
layers = (
{
layerId = "D444198A-330D-4B37-A977-E225F0F0EE7C";
paths = (
{
closed = 1;
nodes = (
"299 -31 OFFCURVE",
"326 -19 OFFCURVE",
"349 4 CURVE SMOOTH",
"370 27 OFFCURVE",
"382 56 OFFCURVE",
"382 89 CURVE SMOOTH",
"382 122 OFFCURVE",
"370 149 OFFCURVE",
"347 170 CURVE SMOOTH",
"325 192 OFFCURVE",
"297 203 OFFCURVE",
"266 203 CURVE SMOOTH",
"233 203 OFFCURVE",
"206 192 OFFCURVE",
"184 170 CURVE SMOOTH",
"163 149 OFFCURVE",
"152 122 OFFCURVE",
"152 89 CURVE SMOOTH",
"152 56 OFFCURVE",
"162 27 OFFCURVE",
"183 4 CURVE SMOOTH",
"204 -19 OFFCURVE",
"232 -31 OFFCURVE",
"266 -31 CURVE SMOOTH"
);
}
);
vertWidth = 0;
width = 533;
}
);
note = "";
unicode = 002E;
},
{
glyphname = slash;
layers = (
{
layerId = "D444198A-330D-4B37-A977-E225F0F0EE7C";
paths = (
{
closed = 1;
nodes = (
"89 -31 LINE",
"596 1480 LINE",
"515 1480 LINE",
"1 -31 LINE"
);
}
);
vertWidth = 0;
width = 592;
}
);
note = "";
unicode = 002F;
},
{
glyphname = zero;
layers = (
{
layerId = "D444198A-330D-4B37-A977-E225F0F0EE7C";
paths = (
{
closed = 1;
nodes = (
"671 -24 OFFCURVE",
"785 51 OFFCURVE",
"871 204 CURVE SMOOTH",
"950 345 OFFCURVE",
"990 515 OFFCURVE",
"990 718 CURVE SMOOTH",
"990 934 OFFCURVE",
"944 1110 OFFCURVE",
"852 1247 CURVE SMOOTH",
"766 1376 OFFCURVE",
"662 1441 OFFCURVE",
"538 1441 CURVE SMOOTH",
"412 1441 OFFCURVE",
"303 1374 OFFCURVE",
"216 1238 CURVE SMOOTH",
"122 1095 OFFCURVE",
"76 914 OFFCURVE",
"76 696 CURVE SMOOTH",
"76 505 OFFCURVE",
"116 337 OFFCURVE",
"197 199 CURVE SMOOTH",
"283 50 OFFCURVE",
"395 -24 OFFCURVE",
"526 -24 CURVE SMOOTH"
);
},
{
closed = 1;
nodes = (
"453 41 OFFCURVE",
"392 93 OFFCURVE",
"349 199 CURVE SMOOTH",
"303 309 OFFCURVE",
"280 468 OFFCURVE",
"280 672 CURVE SMOOTH",
"280 929 OFFCURVE",
"309 1117 OFFCURVE",
"365 1236 CURVE SMOOTH",
"408 1327 OFFCURVE",
"463 1374 OFFCURVE",
"535 1374 CURVE SMOOTH",
"616 1374 OFFCURVE",
"678 1320 OFFCURVE",
"722 1211 CURVE SMOOTH",
"765 1104 OFFCURVE",
"786 955 OFFCURVE",
"786 765 CURVE SMOOTH",
"786 282 OFFCURVE",
"702 41 OFFCURVE",
"531 41 CURVE SMOOTH"
);
}
);
vertWidth = 0;
width = 1065;
}
);
note = "";
unicode = 0030;
},
{
glyphname = one;
layers = (
{
layerId = "D444198A-330D-4B37-A977-E225F0F0EE7C";
paths = (
{
closed = 1;
nodes = (
"805 0 LINE",
"805 39 LINE",
"721 39 OFFCURVE",
"671 53 OFFCURVE",
"652 77 CURVE SMOOTH",
"638 97 OFFCURVE",
"629 154 OFFCURVE",
"629 250 CURVE SMOOTH",
"629 1441 LINE",
"592 1441 LINE",
"250 1273 LINE",
"265 1240 LINE",
"309 1261 OFFCURVE",
"346 1271 OFFCURVE",
"373 1271 CURVE SMOOTH",
"415 1271 OFFCURVE",
"440 1246 OFFCURVE",
"450 1195 CURVE SMOOTH",
"456 1173 OFFCURVE",
"458 1111 OFFCURVE",
"458 1011 CURVE SMOOTH",
"458 250 LINE SMOOTH",
"458 157 OFFCURVE",
"449 100 OFFCURVE",
"432 77 CURVE SMOOTH",
"412 51 OFFCURVE",
"359 39 OFFCURVE",
"275 39 CURVE",
"275 0 LINE"
);
}
);
vertWidth = 0;
width = 1065;
}
);
note = "";
unicode = 0031;
},
{
glyphname = two;
layers = (
{
layerId = "D444198A-330D-4B37-A977-E225F0F0EE7C";
paths = (
{
closed = 1;
nodes = (
"878 0 LINE",
"978 270 LINE",
"940 270 LINE",
"901 216 OFFCURVE",
"858 182 OFFCURVE",
"809 169 CURVE SMOOTH",
"784 162 OFFCURVE",
"726 157 OFFCURVE",
"638 157 CURVE SMOOTH",
"269 157 LINE",
"302 187 OFFCURVE",
"409 302 OFFCURVE",
"591 498 CURVE SMOOTH",
"792 716 OFFCURVE",
"892 908 OFFCURVE",
"892 1070 CURVE SMOOTH",
"892 1181 OFFCURVE",
"849 1271 OFFCURVE",
"765 1343 CURVE SMOOTH",
"686 1409 OFFCURVE",
"595 1441 OFFCURVE",
"488 1441 CURVE SMOOTH",
"353 1441 OFFCURVE",
"250 1390 OFFCURVE",
"179 1290 CURVE SMOOTH",
"130 1223 OFFCURVE",
"100 1141 OFFCURVE",
"89 1044 CURVE",
"124 1044 LINE",
"180 1203 OFFCURVE",
"283 1281 OFFCURVE",
"435 1281 CURVE SMOOTH",
"496 1281 OFFCURVE",
"553 1260 OFFCURVE",
"606 1218 CURVE SMOOTH",
"678 1161 OFFCURVE",
"714 1081 OFFCURVE",
"714 974 CURVE SMOOTH",
"714 859 OFFCURVE",
"664 729 OFFCURVE",
"563 586 CURVE SMOOTH",
"500 496 OFFCURVE",
"419 400 OFFCURVE",
"320 299 CURVE SMOOTH",
"265 243 OFFCURVE",
"174 156 OFFCURVE",
"47 39 CURVE",
"47 0 LINE"
);
}
);
vertWidth = 0;
width = 1065;
}
);
note = "";
unicode = 0032;
},
{
glyphname = three;
layers = (
{
layerId = "D444198A-330D-4B37-A977-E225F0F0EE7C";
paths = (
{
closed = 1;
nodes = (
"503 -24 OFFCURVE",
"639 21 OFFCURVE",
"739 112 CURVE SMOOTH",
"839 203 OFFCURVE",
"889 322 OFFCURVE",
"889 468 CURVE SMOOTH",
"889 649 OFFCURVE",
"802 772 OFFCURVE",
"628 837 CURVE",
"755 947 OFFCURVE",
"818 1052 OFFCURVE",
"818 1154 CURVE SMOOTH",
"818 1214 OFFCURVE",
"798 1271 OFFCURVE",
"756 1327 CURVE SMOOTH",
"698 1403 OFFCURVE",
"609 1441 OFFCURVE",
"490 1441 CURVE SMOOTH",
"379 1441 OFFCURVE",
"289 1401 OFFCURVE",
"219 1324 CURVE SMOOTH",
"186 1287 OFFCURVE",
"149 1227 OFFCURVE",
"109 1143 CURVE",
"143 1125 LINE",
"216 1240 OFFCURVE",
"306 1297 OFFCURVE",
"415 1297 CURVE SMOOTH",
"472 1297 OFFCURVE",
"521 1280 OFFCURVE",
"563 1247 CURVE SMOOTH",
"618 1204 OFFCURVE",
"646 1143 OFFCURVE",
"646 1060 CURVE SMOOTH",
"646 950 OFFCURVE",
"598 864 OFFCURVE",
"505 802 CURVE SMOOTH",
"445 762 OFFCURVE",
"386 739 OFFCURVE",
"325 732 CURVE",
"325 699 LINE",
"405 698 OFFCURVE",
"473 685 OFFCURVE",
"531 661 CURVE SMOOTH",
"668 602 OFFCURVE",
"736 496 OFFCURVE",
"736 340 CURVE SMOOTH",
"736 262 OFFCURVE",
"708 196 OFFCURVE",
"654 143 CURVE SMOOTH",
"598 92 OFFCURVE",
"538 66 OFFCURVE",
"472 66 CURVE SMOOTH",
"420 66 OFFCURVE",
"366 82 OFFCURVE",
"306 114 CURVE SMOOTH",
"247 146 OFFCURVE",
"202 162 OFFCURVE",
"170 162 CURVE SMOOTH",
"149 162 OFFCURVE",
"129 154 OFFCURVE",
"113 140 CURVE SMOOTH",
"96 126 OFFCURVE",
"89 109 OFFCURVE",
"89 89 CURVE SMOOTH",
"89 13 OFFCURVE",
"170 -24 OFFCURVE",
"332 -24 CURVE SMOOTH"
);
}
);
vertWidth = 0;
width = 1065;
}
);
note = "";
unicode = 0033;
},
{
glyphname = four;
layers = (
{
layerId = "D444198A-330D-4B37-A977-E225F0F0EE7C";
paths = (
{
closed = 1;
nodes = (
"804 0 LINE",
"804 373 LINE",
"990 373 LINE",
"990 521 LINE",
"804 521 LINE",
"804 1441 LINE",
"689 1441 LINE",
"33 505 LINE",
"33 373 LINE",
"632 373 LINE",
"632 0 LINE"
);
},
{
closed = 1;
nodes = (
"632 1221 LINE",
"632 521 LINE",
"136 521 LINE"
);
}
);
vertWidth = 0;
width = 1065;
}
);
note = "";
unicode = 0034;
},
{
glyphname = five;
layers = (
{
layerId = "D444198A-330D-4B37-A977-E225F0F0EE7C";
paths = (
{
closed = 1;
nodes = (
"479 -24 OFFCURVE",
"601 21 OFFCURVE",
"711 110 CURVE SMOOTH",
"838 213 OFFCURVE",
"902 346 OFFCURVE",
"902 509 CURVE SMOOTH",
"902 681 OFFCURVE",
"824 819 OFFCURVE",
"664 922 CURVE SMOOTH",
"553 994 OFFCURVE",
"440 1034 OFFCURVE",
"326 1045 CURVE",
"420 1234 LINE",
"845 1234 LINE",
"925 1410 LINE",
"420 1410 LINE",
"150 864 LINE",
"346 857 OFFCURVE",
"500 807 OFFCURVE",
"611 715 CURVE SMOOTH",
"715 629 OFFCURVE",
"766 523 OFFCURVE",
"766 398 CURVE SMOOTH",
"766 309 OFFCURVE",
"736 235 OFFCURVE",
"675 173 CURVE SMOOTH",
"615 113 OFFCURVE",
"543 82 OFFCURVE",
"462 82 CURVE SMOOTH",
"412 82 OFFCURVE",
"362 100 OFFCURVE",
"309 136 CURVE SMOOTH",
"256 170 OFFCURVE",
"214 189 OFFCURVE",
"184 189 CURVE SMOOTH",
"130 189 OFFCURVE",
"103 163 OFFCURVE",
"103 113 CURVE SMOOTH",
"103 73 OFFCURVE",
"123 40 OFFCURVE",
"164 14 CURVE SMOOTH",
"207 -11 OFFCURVE",
"266 -24 OFFCURVE",
"345 -24 CURVE SMOOTH"
);
}
);
vertWidth = 0;
width = 1065;
}
);
note = "";
unicode = 0035;
},
{
glyphname = six;
layers = (
{
layerId = "D444198A-330D-4B37-A977-E225F0F0EE7C";
paths = (
{
closed = 1;
nodes = (
"666 -24 OFFCURVE",
"775 29 OFFCURVE",
"864 133 CURVE SMOOTH",
"944 230 OFFCURVE",
"984 345 OFFCURVE",
"984 476 CURVE SMOOTH",
"984 615 OFFCURVE",
"941 724 OFFCURVE",
"852 802 CURVE SMOOTH",
"785 862 OFFCURVE",
"709 892 OFFCURVE",
"628 892 CURVE SMOOTH",
"528 892 OFFCURVE",
"428 857 OFFCURVE",
"326 786 CURVE",
"369 965 OFFCURVE",
"446 1110 OFFCURVE",
"558 1221 CURVE SMOOTH",
"669 1334 OFFCURVE",
"802 1394 OFFCURVE",
"955 1403 CURVE",
"955 1441 LINE",
"895 1441 LINE SMOOTH",
"712 1441 OFFCURVE",
"542 1367 OFFCURVE",
"383 1218 CURVE SMOOTH",
"189 1035 OFFCURVE",
"93 814 OFFCURVE",
"93 553 CURVE SMOOTH",
"93 393 OFFCURVE",
"133 259 OFFCURVE",
"216 147 CURVE SMOOTH",
"300 33 OFFCURVE",
"406 -24 OFFCURVE",
"535 -24 CURVE SMOOTH"
);
},
{
closed = 1;
nodes = (
"483 30 OFFCURVE",
"415 80 OFFCURVE",
"360 184 CURVE SMOOTH",
"313 276 OFFCURVE",
"289 376 OFFCURVE",
"289 486 CURVE SMOOTH",
"289 533 OFFCURVE",
"296 609 OFFCURVE",
"309 711 CURVE",
"406 772 OFFCURVE",
"479 802 OFFCURVE",
"526 802 CURVE SMOOTH",
"616 802 OFFCURVE",
"685 756 OFFCURVE",
"734 664 CURVE SMOOTH",
"776 583 OFFCURVE",
"798 483 OFFCURVE",
"798 363 CURVE SMOOTH",
"798 260 OFFCURVE",
"774 179 OFFCURVE",
"728 119 CURVE SMOOTH",
"685 64 OFFCURVE",
"632 36 OFFCURVE",
"566 33 CURVE SMOOTH"
);
}
);
vertWidth = 0;
width = 1065;
}
);
note = "";
unicode = 0036;
},
{
glyphname = seven;
layers = (
{
layerId = "D444198A-330D-4B37-A977-E225F0F0EE7C";
paths = (
{
closed = 1;
nodes = (
"498 -31 LINE",
"968 1374 LINE",
"968 1410 LINE",
"216 1410 LINE",
"77 1078 LINE",
"109 1068 LINE",
"143 1127 OFFCURVE",
"170 1165 OFFCURVE",
"193 1183 CURVE SMOOTH",
"243 1221 OFFCURVE",
"319 1240 OFFCURVE",
"418 1240 CURVE SMOOTH",
"805 1240 LINE",
"383 -31 LINE"
);
}
);
vertWidth = 0;
width = 1065;
}
);
note = "";
unicode = 0037;
},
{
glyphname = eight;
layers = (
{
layerId = "D444198A-330D-4B37-A977-E225F0F0EE7C";
paths = (
{
closed = 1;
nodes = (
"678 -24 OFFCURVE",
"788 19 OFFCURVE",
"861 107 CURVE SMOOTH",
"915 172 OFFCURVE",
"942 247 OFFCURVE",
"942 335 CURVE SMOOTH",
"942 426 OFFCURVE",
"905 516 OFFCURVE",
"828 602 CURVE SMOOTH",
"788 648 OFFCURVE",
"718 708 OFFCURVE",
"621 784 CURVE",
"708 837 OFFCURVE",
"771 884 OFFCURVE",
"812 925 CURVE SMOOTH",
"879 991 OFFCURVE",
"912 1062 OFFCURVE",
"912 1135 CURVE SMOOTH",
"912 1200 OFFCURVE",
"888 1261 OFFCURVE",
"838 1320 CURVE SMOOTH",
"769 1401 OFFCURVE",
"666 1441 OFFCURVE",
"533 1441 CURVE SMOOTH",
"426 1441 OFFCURVE",
"336 1411 OFFCURVE",
"262 1351 CURVE SMOOTH",
"184 1288 OFFCURVE",
"146 1205 OFFCURVE",
"146 1105 CURVE SMOOTH",
"146 1022 OFFCURVE",
"174 944 OFFCURVE",
"236 871 CURVE SMOOTH",
"262 839 OFFCURVE",
"322 786 OFFCURVE",
"410 709 CURVE",
"222 579 OFFCURVE",
"127 450 OFFCURVE",
"127 322 CURVE SMOOTH",
"127 233 OFFCURVE",
"163 156 OFFCURVE",
"232 89 CURVE SMOOTH",
"309 13 OFFCURVE",
"409 -24 OFFCURVE",
"533 -24 CURVE SMOOTH"
);
},
{
closed = 1;
nodes = (
"472 33 OFFCURVE",
"410 59 OFFCURVE",
"360 110 CURVE SMOOTH",
"312 163 OFFCURVE",
"287 235 OFFCURVE",
"287 326 CURVE SMOOTH",
"287 459 OFFCURVE",
"345 573 OFFCURVE",
"459 672 CURVE",
"532 611 OFFCURVE",
"606 552 OFFCURVE",
"675 488 CURVE SMOOTH",
"758 409 OFFCURVE",
"795 326 OFFCURVE",
"795 250 CURVE SMOOTH",
"795 183 OFFCURVE",
"772 130 OFFCURVE",
"725 92 CURVE SMOOTH",
"678 53 OFFCURVE",
"618 33 OFFCURVE",
"548 33 CURVE SMOOTH"
);
},
{
closed = 1;
nodes = (
"466 907 OFFCURVE",
"398 965 OFFCURVE",
"369 998 CURVE SMOOTH",
"322 1052 OFFCURVE",
"297 1111 OFFCURVE",
"297 1174 CURVE SMOOTH",
"297 1237 OFFCURVE",
"320 1287 OFFCURVE",
"366 1324 CURVE SMOOTH",
"412 1361 OFFCURVE",
"468 1380 OFFCURVE",
"535 1380 CURVE SMOOTH",
"686 1380 OFFCURVE",
"762 1303 OFFCURVE",
"762 1148 CURVE SMOOTH",
"762 1077 OFFCURVE",
"744 1015 OFFCURVE",
"708 961 CURVE SMOOTH",
"688 934 OFFCURVE",
"643 888 OFFCURVE",
"573 822 CURVE"
);
}
);
vertWidth = 0;
width = 1065;
}
);
note = "";
unicode = 0038;
},
{
glyphname = nine;
layers = (
{
layerId = "D444198A-330D-4B37-A977-E225F0F0EE7C";
paths = (
{
closed = 1;
nodes = (
"172 -31 LINE SMOOTH",
"380 -31 OFFCURVE",
"568 63 OFFCURVE",
"736 247 CURVE SMOOTH",
"894 423 OFFCURVE",
"974 626 OFFCURVE",
"974 859 CURVE SMOOTH",
"974 1007 OFFCURVE",
"935 1138 OFFCURVE",
"857 1253 CURVE SMOOTH",
"771 1379 OFFCURVE",
"661 1441 OFFCURVE",
"525 1441 CURVE SMOOTH",
"406 1441 OFFCURVE",
"305 1394 OFFCURVE",
"219 1300 CURVE SMOOTH",
"130 1201 OFFCURVE",
"86 1080 OFFCURVE",
"86 935 CURVE SMOOTH",
"86 821 OFFCURVE",
"117 725 OFFCURVE",
"179 646 CURVE SMOOTH",
"246 559 OFFCURVE",
"335 515 OFFCURVE",
"445 515 CURVE SMOOTH",
"536 515 OFFCURVE",
"635 551 OFFCURVE",
"741 621 CURVE",
"699 453 OFFCURVE",
"618 305 OFFCURVE",
"498 174 CURVE SMOOTH",
"399 67 OFFCURVE",
"272 13 OFFCURVE",
"113 9 CURVE",
"113 -31 LINE"
);
},
{
closed = 1;
nodes = (
"450 609 OFFCURVE",
"389 649 OFFCURVE",
"342 729 CURVE SMOOTH",
"295 809 OFFCURVE",
"270 914 OFFCURVE",
"270 1044 CURVE SMOOTH",
"270 1145 OFFCURVE",
"293 1227 OFFCURVE",
"339 1287 CURVE SMOOTH",
"379 1343 OFFCURVE",
"433 1371 OFFCURVE",
"500 1374 CURVE SMOOTH",
"569 1376 OFFCURVE",
"631 1338 OFFCURVE",
"685 1258 CURVE SMOOTH",
"746 1170 OFFCURVE",
"776 1054 OFFCURVE",
"776 912 CURVE SMOOTH",
"776 868 OFFCURVE",
"771 797 OFFCURVE",
"756 696 CURVE",
"742 678 OFFCURVE",
"711 658 OFFCURVE",
"662 639 CURVE SMOOTH",
"613 619 OFFCURVE",
"569 609 OFFCURVE",
"529 609 CURVE SMOOTH"
);
}
);
vertWidth = 0;
width = 1065;
}
);
note = "";
unicode = 0039;
},
{
glyphname = colon;
layers = (
{
layerId = "D444198A-330D-4B37-A977-E225F0F0EE7C";
paths = (
{
closed = 1;
nodes = (
"327 -31 OFFCURVE",
"355 -20 OFFCURVE",
"378 3 CURVE SMOOTH",
"402 26 OFFCURVE",
"415 54 OFFCURVE",
"415 89 CURVE SMOOTH",
"415 123 OFFCURVE",
"402 150 OFFCURVE",
"378 172 CURVE SMOOTH",
"353 193 OFFCURVE",
"326 203 OFFCURVE",
"297 203 CURVE SMOOTH",
"269 203 OFFCURVE",
"242 193 OFFCURVE",
"217 172 CURVE SMOOTH",
"193 152 OFFCURVE",
"180 123 OFFCURVE",
"180 89 CURVE SMOOTH",
"180 54 OFFCURVE",
"192 26 OFFCURVE",
"216 3 CURVE SMOOTH",
"239 -20 OFFCURVE",
"266 -31 OFFCURVE",
"297 -31 CURVE SMOOTH"
);
},
{
closed = 1;
nodes = (
"329 752 OFFCURVE",
"356 764 OFFCURVE",
"379 785 CURVE SMOOTH",
"402 807 OFFCURVE",
"415 834 OFFCURVE",
"415 867 CURVE SMOOTH",
"415 899 OFFCURVE",
"403 927 OFFCURVE",
"380 950 CURVE SMOOTH",
"357 971 OFFCURVE",
"330 982 OFFCURVE",
"299 982 CURVE SMOOTH",
"266 982 OFFCURVE",
"239 971 OFFCURVE",
"216 950 CURVE SMOOTH",
"193 927 OFFCURVE",
"183 899 OFFCURVE",
"183 867 CURVE SMOOTH",
"183 835 OFFCURVE",
"194 809 OFFCURVE",
"217 786 CURVE SMOOTH",
"240 764 OFFCURVE",
"267 752 OFFCURVE",
"299 752 CURVE SMOOTH"
);
}
);
vertWidth = 0;
width = 595;
}
);
note = "";
unicode = 003A;
},
{
glyphname = semicolon;
layers = (
{
layerId = "D444198A-330D-4B37-A977-E225F0F0EE7C";
paths = (
{
closed = 1;
nodes = (
"385 -285 OFFCURVE",
"488 -169 OFFCURVE",
"488 -10 CURVE SMOOTH",
"488 57 OFFCURVE",
"469 110 OFFCURVE",
"430 152 CURVE SMOOTH",
"396 189 OFFCURVE",
"357 207 OFFCURVE",
"313 207 CURVE SMOOTH",
"277 207 OFFCURVE",
"245 196 OFFCURVE",
"219 173 CURVE SMOOTH",
"192 150 OFFCURVE",
"179 122 OFFCURVE",
"179 86 CURVE SMOOTH",
"179 9 OFFCURVE",
"216 -31 OFFCURVE",
"289 -31 CURVE SMOOTH",
"300 -31 OFFCURVE",
"315 -26 OFFCURVE",
"335 -16 CURVE SMOOTH",
"353 -6 OFFCURVE",
"369 0 OFFCURVE",
"379 0 CURVE SMOOTH",
"395 0 OFFCURVE",
"402 -14 OFFCURVE",
"402 -41 CURVE SMOOTH",
"402 -106 OFFCURVE",
"378 -163 OFFCURVE",
"330 -216 CURVE SMOOTH",
"287 -260 OFFCURVE",
"237 -292 OFFCURVE",
"179 -309 CURVE",
"179 -356 LINE"
);
},
{
closed = 1;
nodes = (
"356 755 OFFCURVE",
"383 765 OFFCURVE",
"406 786 CURVE SMOOTH",
"429 809 OFFCURVE",
"440 837 OFFCURVE",
"440 869 CURVE SMOOTH",
"440 902 OFFCURVE",
"429 929 OFFCURVE",
"408 951 CURVE SMOOTH",
"385 972 OFFCURVE",
"357 984 OFFCURVE",
"326 984 CURVE SMOOTH",
"293 984 OFFCURVE",
"266 972 OFFCURVE",
"243 951 CURVE SMOOTH",
"220 929 OFFCURVE",
"209 902 OFFCURVE",
"209 869 CURVE SMOOTH",
"209 838 OFFCURVE",
"220 811 OFFCURVE",
"245 788 CURVE SMOOTH",
"267 765 OFFCURVE",
"295 755 OFFCURVE",
"326 755 CURVE SMOOTH"
);
}
);
vertWidth = 0;
width = 595;
}
);
note = "";
unicode = 003B;
},
{
glyphname = less;
layers = (
{
layerId = "D444198A-330D-4B37-A977-E225F0F0EE7C";
paths = (
{
closed = 1;
nodes = (
"1640 207 LINE",
"541 615 LINE",
"1640 1022 LINE",
"1640 1150 LINE",
"410 679 LINE",
"410 552 LINE",
"1640 80 LINE"
);
}
);
vertWidth = 0;
width = 2051;
}
);
note = "";
unicode = 003C;
},
{
glyphname = equal;
layers = (
{
layerId = "D444198A-330D-4B37-A977-E225F0F0EE7C";
paths = (
{
closed = 1;
nodes = (
"1640 738 LINE",
"1640 865 LINE",
"410 865 LINE",
"410 738 LINE"
);
},
{
closed = 1;
nodes = (
"1640 365 LINE",
"1640 492 LINE",
"410 492 LINE",
"410 365 LINE"
);
}
);
vertWidth = 0;
width = 2051;
}
);
note = "";
unicode = 003D;
},
{
glyphname = greater;
layers = (
{
layerId = "D444198A-330D-4B37-A977-E225F0F0EE7C";
paths = (
{
closed = 1;
nodes = (
"1640 552 LINE",
"1640 679 LINE",
"410 1150 LINE",
"410 1022 LINE",
"1509 615 LINE",
"410 207 LINE",
"410 80 LINE"
);
}
);
vertWidth = 0;
width = 2051;
}
);
note = "";
unicode = 003E;
},
{
glyphname = question;
layers = (
{
layerId = "D444198A-330D-4B37-A977-E225F0F0EE7C";
paths = (
{
closed = 1;
nodes = (
"473 332 LINE",
"478 420 OFFCURVE",
"499 498 OFFCURVE",
"535 562 CURVE SMOOTH",
"559 603 OFFCURVE",
"613 674 OFFCURVE",
"699 771 CURVE SMOOTH",
"807 892 OFFCURVE",
"861 1007 OFFCURVE",
"861 1115 CURVE SMOOTH",
"861 1217 OFFCURVE",
"825 1297 OFFCURVE",
"752 1356 CURVE SMOOTH",
"679 1414 OFFCURVE",
"586 1443 OFFCURVE",
"472 1443 CURVE SMOOTH",
"355 1443 OFFCURVE",
"262 1414 OFFCURVE",
"193 1353 CURVE SMOOTH",
"127 1296 OFFCURVE",
"96 1226 OFFCURVE",
"96 1144 CURVE SMOOTH",
"96 1085 OFFCURVE",
"112 1041 OFFCURVE",
"143 1011 CURVE SMOOTH",
"166 990 OFFCURVE",
"187 980 OFFCURVE",
"212 980 CURVE SMOOTH",
"232 980 OFFCURVE",
"250 988 OFFCURVE",
"269 1004 CURVE SMOOTH",
"286 1021 OFFCURVE",
"295 1042 OFFCURVE",
"295 1070 CURVE SMOOTH",
"295 1085 OFFCURVE",
"285 1114 OFFCURVE",
"262 1155 CURVE SMOOTH",
"240 1197 OFFCURVE",
"230 1228 OFFCURVE",
"230 1248 CURVE SMOOTH",
"230 1283 OFFCURVE",
"247 1314 OFFCURVE",
"282 1343 CURVE SMOOTH",
"316 1371 OFFCURVE",
"365 1386 OFFCURVE",
"426 1386 CURVE SMOOTH",
"489 1386 OFFCURVE",
"543 1364 OFFCURVE",
"588 1320 CURVE SMOOTH",
"642 1268 OFFCURVE",
"668 1194 OFFCURVE",
"668 1098 CURVE SMOOTH",
"668 1002 OFFCURVE",
"635 898 OFFCURVE",
"571 789 CURVE SMOOTH",
"483 646 OFFCURVE",
"436 493 OFFCURVE",
"429 332 CURVE"
);
},
{
closed = 1;
nodes = (
"488 -29 OFFCURVE",
"515 -19 OFFCURVE",
"538 3 CURVE SMOOTH",
"562 24 OFFCURVE",
"573 53 OFFCURVE",
"573 89 CURVE SMOOTH",
"573 123 OFFCURVE",
"562 150 OFFCURVE",
"539 172 CURVE SMOOTH",
"516 194 OFFCURVE",
"489 204 OFFCURVE",
"459 204 CURVE SMOOTH",
"428 204 OFFCURVE",
"400 193 OFFCURVE",
"376 172 CURVE SMOOTH",
"352 149 OFFCURVE",
"340 122 OFFCURVE",
"340 89 CURVE SMOOTH",
"340 53 OFFCURVE",
"352 24 OFFCURVE",
"376 3 CURVE SMOOTH",
"400 -19 OFFCURVE",
"428 -29 OFFCURVE",
"459 -29 CURVE SMOOTH"
);
}
);
vertWidth = 0;
width = 947;
}
);
note = "";
unicode = 003F;
},
{
glyphname = at;
layers = (
{
layerId = "D444198A-330D-4B37-A977-E225F0F0EE7C";
paths = (
{
closed = 1;
nodes = (
"1261 -462 OFFCURVE",
"1477 -380 OFFCURVE",
"1656 -216 CURVE SMOOTH",
"1787 -94 OFFCURVE",
"1872 37 OFFCURVE",
"1910 179 CURVE",
"1852 179 LINE",
"1789 34 OFFCURVE",
"1705 -84 OFFCURVE",
"1599 -179 CURVE SMOOTH",
"1439 -323 OFFCURVE",
"1244 -396 OFFCURVE",
"1015 -396 CURVE SMOOTH",
"754 -396 OFFCURVE",
"549 -309 OFFCURVE",
"400 -137 CURVE SMOOTH",
"266 17 OFFCURVE",
"199 207 OFFCURVE",
"199 435 CURVE SMOOTH",
"199 722 OFFCURVE",
"287 960 OFFCURVE",
"465 1150 CURVE SMOOTH",
"638 1334 OFFCURVE",
"847 1427 OFFCURVE",
"1091 1427 CURVE SMOOTH",
"1281 1427 OFFCURVE",
"1440 1370 OFFCURVE",
"1566 1257 CURVE SMOOTH",
"1699 1138 OFFCURVE",
"1765 981 OFFCURVE",
"1765 786 CURVE SMOOTH",
"1765 591 OFFCURVE",
"1712 423 OFFCURVE",
"1607 287 CURVE SMOOTH",
"1516 167 OFFCURVE",
"1421 107 OFFCURVE",
"1327 107 CURVE SMOOTH",
"1304 107 OFFCURVE",
"1286 114 OFFCURVE",
"1270 129 CURVE SMOOTH",
"1254 144 OFFCURVE",
"1247 163 OFFCURVE",
"1247 184 CURVE SMOOTH",
"1247 220 OFFCURVE",
"1280 353 OFFCURVE",
"1344 582 CURVE SMOOTH",
"1464 998 LINE",
"1301 974 LINE",
"1268 859 LINE",
"1248 957 OFFCURVE",
"1188 1004 OFFCURVE",
"1088 1004 CURVE SMOOTH",
"967 1004 OFFCURVE",
"842 925 OFFCURVE",
"714 766 CURVE SMOOTH",
"582 605 OFFCURVE",
"516 439 OFFCURVE",
"516 273 CURVE SMOOTH",
"516 200 OFFCURVE",
"535 142 OFFCURVE",
"572 99 CURVE SMOOTH",
"609 54 OFFCURVE",
"652 33 OFFCURVE",
"704 33 CURVE SMOOTH",
"812 33 OFFCURVE",
"950 132 OFFCURVE",
"1113 327 CURVE",
"1103 265 OFFCURVE",
"1097 217 OFFCURVE",
"1097 184 CURVE SMOOTH",
"1097 83 OFFCURVE",
"1150 33 OFFCURVE",
"1254 33 CURVE SMOOTH",
"1416 33 OFFCURVE",
"1552 104 OFFCURVE",
"1663 246 CURVE SMOOTH",
"1773 388 OFFCURVE",
"1829 562 OFFCURVE",
"1829 766 CURVE SMOOTH",
"1829 991 OFFCURVE",
"1756 1168 OFFCURVE",
"1609 1297 CURVE SMOOTH",
"1473 1419 OFFCURVE",
"1297 1480 OFFCURVE",
"1084 1480 CURVE SMOOTH",
"834 1480 OFFCURVE",
"612 1396 OFFCURVE",
"422 1224 CURVE SMOOTH",
"207 1030 OFFCURVE",
"100 776 OFFCURVE",
"100 463 CURVE SMOOTH",
"100 223 OFFCURVE",
"176 14 OFFCURVE",
"327 -162 CURVE SMOOTH",
"499 -362 OFFCURVE",
"725 -462 OFFCURVE",
"1008 -462 CURVE SMOOTH"
);
},
{
closed = 1;
nodes = (
"771 157 OFFCURVE",
"745 170 OFFCURVE",
"722 194 CURVE SMOOTH",
"695 223 OFFCURVE",
"681 259 OFFCURVE",
"681 306 CURVE SMOOTH",
"681 409 OFFCURVE",
"725 539 OFFCURVE",
"814 696 CURVE SMOOTH",
"911 869 OFFCURVE",
"1007 955 OFFCURVE",
"1101 955 CURVE SMOOTH",
"1187 955 OFFCURVE",
"1230 898 OFFCURVE",
"1230 785 CURVE SMOOTH",
"1230 715 OFFCURVE",
"1230 681 OFFCURVE",
"1173 535 CURVE SMOOTH",
"1134 438 OFFCURVE",
"1080 353 OFFCURVE",
"1011 279 CURVE SMOOTH",
"935 199 OFFCURVE",
"865 157 OFFCURVE",
"799 157 CURVE SMOOTH"
);
}
);
vertWidth = 0;
width = 1963;
}
);
note = "";
unicode = 0040;
},
{
glyphname = A;
layers = (
{
layerId = "D444198A-330D-4B37-A977-E225F0F0EE7C";
paths = (
{
closed = 1;
nodes = (
"462 0 LINE",
"462 39 LINE",
"352 49 OFFCURVE",
"297 79 OFFCURVE",
"297 132 CURVE SMOOTH",
"297 154 OFFCURVE",
"309 193 OFFCURVE",
"332 247 CURVE SMOOTH",
"429 473 LINE",
"975 473 LINE",
"1060 270 LINE SMOOTH",
"1088 204 OFFCURVE",
"1101 156 OFFCURVE",
"1101 129 CURVE SMOOTH",
"1101 70 OFFCURVE",
"1054 40 OFFCURVE",
"960 39 CURVE",
"960 0 LINE",
"1514 0 LINE",
"1514 39 LINE",
"1453 43 OFFCURVE",
"1410 59 OFFCURVE",
"1381 84 CURVE SMOOTH",
"1350 113 OFFCURVE",
"1313 174 OFFCURVE",
"1273 270 CURVE SMOOTH",
"784 1443 LINE",
"746 1443 LINE",
"250 280 LINE SMOOTH",
"214 196 OFFCURVE",
"183 137 OFFCURVE",
"154 104 CURVE SMOOTH",
"119 64 OFFCURVE",
"73 43 OFFCURVE",
"16 39 CURVE",
"16 0 LINE"
);
},
{
closed = 1;
nodes = (
"708 1121 LINE",
"947 549 LINE",
"462 549 LINE"
);
}
);
vertWidth = 0;
width = 1532;
}
);
note = "";
unicode = 0041;
},
{
glyphname = B;
layers = (
{
layerId = "D444198A-330D-4B37-A977-E225F0F0EE7C";
paths = (
{
closed = 1;
nodes = (
"701 0 LINE SMOOTH",
"921 0 OFFCURVE",
"1075 34 OFFCURVE",
"1163 103 CURVE SMOOTH",
"1257 176 OFFCURVE",
"1304 270 OFFCURVE",
"1304 386 CURVE SMOOTH",
"1304 569 OFFCURVE",
"1197 681 OFFCURVE",
"984 722 CURVE",
"1067 748 OFFCURVE",
"1131 789 OFFCURVE",
"1177 847 CURVE SMOOTH",
"1218 899 OFFCURVE",
"1240 962 OFFCURVE",
"1240 1034 CURVE SMOOTH",
"1240 1284 OFFCURVE",
"1042 1410 OFFCURVE",
"646 1410 CURVE SMOOTH",
"37 1410 LINE",
"37 1374 LINE",
"89 1374 LINE SMOOTH",
"143 1374 OFFCURVE",
"183 1358 OFFCURVE",
"209 1328 CURVE SMOOTH",
"229 1307 OFFCURVE",
"237 1251 OFFCURVE",
"237 1163 CURVE SMOOTH",
"237 250 LINE SMOOTH",
"237 170 OFFCURVE",
"230 119 OFFCURVE",
"216 96 CURVE SMOOTH",
"190 57 OFFCURVE",
"147 39 OFFCURVE",
"89 39 CURVE SMOOTH",
"37 39 LINE",
"37 0 LINE"
);
},
{
closed = 1;
nodes = (
"603 74 OFFCURVE",
"523 83 OFFCURVE",
"439 103 CURVE",
"439 681 LINE",
"472 688 OFFCURVE",
"533 691 OFFCURVE",
"623 691 CURVE SMOOTH",
"764 691 OFFCURVE",
"872 662 OFFCURVE",
"950 602 CURVE SMOOTH",
"1025 543 OFFCURVE",
"1064 466 OFFCURVE",
"1064 369 CURVE SMOOTH",
"1064 280 OFFCURVE",
"1031 210 OFFCURVE",
"965 157 CURVE SMOOTH",
"895 102 OFFCURVE",
"801 74 OFFCURVE",
"679 74 CURVE SMOOTH"
);
},
{
closed = 1;
nodes = (
"546 762 OFFCURVE",
"479 768 OFFCURVE",
"439 776 CURVE",
"439 1320 LINE",
"492 1334 OFFCURVE",
"555 1341 OFFCURVE",
"628 1341 CURVE SMOOTH",
"755 1341 OFFCURVE",
"854 1311 OFFCURVE",
"925 1253 CURVE SMOOTH",
"990 1198 OFFCURVE",
"1021 1128 OFFCURVE",
"1021 1044 CURVE SMOOTH",
"1021 857 OFFCURVE",
"894 762 OFFCURVE",
"638 762 CURVE SMOOTH"
);
}
);
vertWidth = 0;
width = 1386;
}
);
note = "";
unicode = 0042;
},
{
glyphname = C;
layers = (
{
layerId = "D444198A-330D-4B37-A977-E225F0F0EE7C";
paths = (
{
closed = 1;
nodes = (
"1015 -33 OFFCURVE",
"1210 89 OFFCURVE",
"1347 330 CURVE",
"1316 353 LINE",
"1236 239 OFFCURVE",
"1160 160 OFFCURVE",
"1087 117 CURVE SMOOTH",
"1021 79 OFFCURVE",
"940 60 OFFCURVE",
"842 60 CURVE SMOOTH",
"679 60 OFFCURVE",
"552 113 OFFCURVE",
"459 219 CURVE SMOOTH",
"362 330 OFFCURVE",
"313 485 OFFCURVE",
"313 682 CURVE SMOOTH",
"313 909 OFFCURVE",
"362 1081 OFFCURVE",
"455 1201 CURVE SMOOTH",
"542 1313 OFFCURVE",
"661 1370 OFFCURVE",
"812 1370 CURVE SMOOTH",
"1045 1370 OFFCURVE",
"1203 1234 OFFCURVE",
"1283 964 CURVE",
"1316 964 LINE",
"1283 1443 LINE",
"1247 1443 LINE",
"1230 1377 OFFCURVE",
"1201 1344 OFFCURVE",
"1160 1344 CURVE",
"1160 1344 OFFCURVE",
"1121 1361 OFFCURVE",
"1041 1394 CURVE SMOOTH",
"962 1427 OFFCURVE",
"879 1443 OFFCURVE",
"795 1443 CURVE SMOOTH",
"583 1443 OFFCURVE",
"409 1369 OFFCURVE",
"273 1218 CURVE SMOOTH",
"142 1072 OFFCURVE",
"76 895 OFFCURVE",
"76 685 CURVE SMOOTH",
"76 483 OFFCURVE",
"136 316 OFFCURVE",
"256 183 CURVE SMOOTH",
"385 39 OFFCURVE",
"553 -33 OFFCURVE",
"762 -33 CURVE SMOOTH"
);
}
);
vertWidth = 0;
width = 1423;
}
);
note = "";
unicode = 0043;
},
{
glyphname = D;
layers = (
{
layerId = "D444198A-330D-4B37-A977-E225F0F0EE7C";
paths = (
{
closed = 1;
nodes = (
"668 0 LINE SMOOTH",
"928 0 OFFCURVE",
"1127 70 OFFCURVE",
"1267 209 CURVE SMOOTH",
"1394 335 OFFCURVE",
"1457 503 OFFCURVE",
"1457 714 CURVE SMOOTH",
"1457 940 OFFCURVE",
"1386 1117 OFFCURVE",
"1240 1244 CURVE SMOOTH",
"1115 1356 OFFCURVE",
"905 1410 OFFCURVE",
"611 1410 CURVE SMOOTH",
"37 1410 LINE",
"37 1374 LINE",
"90 1374 LINE SMOOTH",
"140 1374 OFFCURVE",
"182 1358 OFFCURVE",
"212 1328 CURVE",
"229 1306 OFFCURVE",
"237 1250 OFFCURVE",
"237 1163 CURVE SMOOTH",
"237 250 LINE SMOOTH",
"237 172 OFFCURVE",
"230 122 OFFCURVE",
"216 96 CURVE",
"192 59 OFFCURVE",
"150 39 OFFCURVE",
"90 39 CURVE SMOOTH",
"37 39 LINE",
"37 0 LINE"
);
},
{
closed = 1;
nodes = (
"609 71 OFFCURVE",
"536 82 OFFCURVE",
"439 103 CURVE",
"439 1301 LINE",
"513 1323 OFFCURVE",
"585 1333 OFFCURVE",
"652 1333 CURVE SMOOTH",
"819 1333 OFFCURVE",
"957 1276 OFFCURVE",
"1062 1163 CURVE SMOOTH",
"1168 1050 OFFCURVE",
"1221 895 OFFCURVE",
"1221 704 CURVE SMOOTH",
"1221 511 OFFCURVE",
"1168 356 OFFCURVE",
"1062 242 CURVE SMOOTH",
"957 127 OFFCURVE",
"822 70 OFFCURVE",
"661 71 CURVE SMOOTH"
);
}
);
vertWidth = 0;
width = 1540;
}
);
note = "";
unicode = 0044;
},
{
glyphname = E;
layers = (
{
layerId = "D444198A-330D-4B37-A977-E225F0F0EE7C";
paths = (
{
closed = 1;
nodes = (
"1131 0 LINE",
"1254 355 LINE",
"1211 355 LINE",
"1143 235 OFFCURVE",
"1087 160 OFFCURVE",
"1044 129 CURVE SMOOTH",
"994 94 OFFCURVE",
"914 76 OFFCURVE",
"802 76 CURVE SMOOTH",
"563 76 LINE SMOOTH",
"505 76 OFFCURVE",
"469 92 OFFCURVE",
"455 122 CURVE SMOOTH",
"449 134 OFFCURVE",
"445 172 OFFCURVE",
"445 233 CURVE SMOOTH",
"445 699 LINE",
"755 699 LINE SMOOTH",
"844 699 OFFCURVE",
"902 682 OFFCURVE",
"931 649 CURVE SMOOTH",
"951 626 OFFCURVE",
"967 573 OFFCURVE",
"978 490 CURVE",
"1017 490 LINE",
"1017 980 LINE",
"978 980 LINE",
"967 899 OFFCURVE",
"951 847 OFFCURVE",
"931 824 CURVE SMOOTH",
"902 792 OFFCURVE",
"844 776 OFFCURVE",
"755 776 CURVE SMOOTH",
"445 776 LINE",
"445 1334 LINE",
"834 1334 LINE SMOOTH",
"944 1334 OFFCURVE",
"1018 1311 OFFCURVE",
"1054 1266 CURVE SMOOTH",
"1067 1248 OFFCURVE",
"1084 1193 OFFCURVE",
"1107 1103 CURVE",
"1148 1103 LINE",
"1131 1410 LINE",
"46 1410 LINE",
"46 1374 LINE",
"94 1374 LINE SMOOTH",
"152 1374 OFFCURVE",
"193 1358 OFFCURVE",
"219 1330 CURVE SMOOTH",
"237 1311 OFFCURVE",
"246 1257 OFFCURVE",
"246 1167 CURVE SMOOTH",
"246 250 LINE SMOOTH",
"246 154 OFFCURVE",
"233 96 OFFCURVE",
"206 73 CURVE SMOOTH",
"179 50 OFFCURVE",
"142 39 OFFCURVE",
"94 39 CURVE SMOOTH",
"46 39 LINE",
"46 0 LINE"
);
}
);
vertWidth = 0;
width = 1301;
}
);
note = "";
unicode = 0045;
},
{
glyphname = F;
layers = (
{
layerId = "D444198A-330D-4B37-A977-E225F0F0EE7C";
paths = (
{
closed = 1;
nodes = (
"639 0 LINE",
"639 39 LINE",
"588 39 LINE SMOOTH",
"531 39 OFFCURVE",
"488 57 OFFCURVE",
"459 93 CURVE",
"445 107 OFFCURVE",
"436 160 OFFCURVE",
"436 250 CURVE SMOOTH",
"436 694 LINE",
"694 694 LINE SMOOTH",
"761 694 OFFCURVE",
"809 678 OFFCURVE",
"837 646 CURVE SMOOTH",
"864 615 OFFCURVE",
"878 563 OFFCURVE",
"878 493 CURVE",
"917 493 LINE",
"917 972 LINE",
"878 972 LINE",
"867 898 OFFCURVE",
"848 848 OFFCURVE",
"824 821 CURVE SMOOTH",
"798 795 OFFCURVE",
"755 781 OFFCURVE",
"694 781 CURVE SMOOTH",
"436 781 LINE",
"436 1334 LINE",
"748 1334 LINE SMOOTH",
"848 1334 OFFCURVE",
"919 1317 OFFCURVE",
"964 1283 CURVE SMOOTH",
"1002 1253 OFFCURVE",
"1035 1193 OFFCURVE",
"1062 1103 CURVE",
"1098 1103 LINE",
"1084 1410 LINE",
"34 1410 LINE",
"34 1374 LINE",
"86 1374 LINE SMOOTH",
"136 1374 OFFCURVE",
"176 1358 OFFCURVE",
"207 1327 CURVE SMOOTH",
"226 1307 OFFCURVE",
"236 1253 OFFCURVE",
"236 1163 CURVE SMOOTH",
"236 250 LINE SMOOTH",
"236 164 OFFCURVE",
"227 110 OFFCURVE",
"212 90 CURVE SMOOTH",
"184 56 OFFCURVE",
"142 39 OFFCURVE",
"86 39 CURVE SMOOTH",
"34 39 LINE",
"34 0 LINE"
);
}
);
vertWidth = 0;
width = 1185;
}
);
note = "";
unicode = 0046;
},
{
glyphname = G;
layers = (
{
layerId = "D444198A-330D-4B37-A977-E225F0F0EE7C";
paths = (
{
closed = 1;
nodes = (
"1040 -33 OFFCURVE",
"1204 10 OFFCURVE",
"1351 94 CURVE",
"1351 525 LINE SMOOTH",
"1351 603 OFFCURVE",
"1358 655 OFFCURVE",
"1374 676 CURVE",
"1393 714 OFFCURVE",
"1430 732 OFFCURVE",
"1484 732 CURVE SMOOTH",
"1509 732 LINE",
"1509 769 LINE",
"964 769 LINE",
"964 732 LINE",
"1041 729 OFFCURVE",
"1091 715 OFFCURVE",
"1114 691 CURVE SMOOTH",
"1137 666 OFFCURVE",
"1148 611 OFFCURVE",
"1148 525 CURVE SMOOTH",
"1148 117 LINE",
"1062 64 OFFCURVE",
"965 39 OFFCURVE",
"857 39 CURVE SMOOTH",
"699 39 OFFCURVE",
"569 104 OFFCURVE",
"466 233 CURVE SMOOTH",
"363 363 OFFCURVE",
"312 529 OFFCURVE",
"313 729 CURVE SMOOTH",
"315 918 OFFCURVE",
"360 1071 OFFCURVE",
"450 1187 CURVE SMOOTH",
"546 1310 OFFCURVE",
"678 1371 OFFCURVE",
"842 1371 CURVE SMOOTH",
"1071 1371 OFFCURVE",
"1227 1247 OFFCURVE",
"1310 998 CURVE",
"1344 998 LINE",
"1310 1443 LINE",
"1271 1443 LINE",
"1264 1383 OFFCURVE",
"1247 1353 OFFCURVE",
"1220 1353 CURVE SMOOTH",
"1218 1353 OFFCURVE",
"1175 1369 OFFCURVE",
"1091 1399 CURVE SMOOTH",
"1005 1429 OFFCURVE",
"917 1443 OFFCURVE",
"822 1443 CURVE SMOOTH",
"592 1443 OFFCURVE",
"408 1360 OFFCURVE",
"265 1193 CURVE SMOOTH",
"137 1045 OFFCURVE",
"74 877 OFFCURVE",
"74 685 CURVE SMOOTH",
"74 479 OFFCURVE",
"143 309 OFFCURVE",
"280 176 CURVE SMOOTH",
"425 37 OFFCURVE",
"616 -33 OFFCURVE",
"855 -33 CURVE SMOOTH"
);
}
);
vertWidth = 0;
width = 1540;
}
);
note = "";
unicode = 0047;
},
{
glyphname = H;
layers = (
{
layerId = "D444198A-330D-4B37-A977-E225F0F0EE7C";
paths = (
{
closed = 1;
nodes = (
"642 0 LINE",
"642 39 LINE",
"591 39 LINE SMOOTH",
"533 39 OFFCURVE",
"490 56 OFFCURVE",
"463 89 CURVE SMOOTH",
"446 109 OFFCURVE",
"436 163 OFFCURVE",
"436 250 CURVE SMOOTH",
"436 681 LINE",
"1095 681 LINE",
"1095 250 LINE SMOOTH",
"1095 167 OFFCURVE",
"1085 113 OFFCURVE",
"1068 90 CURVE SMOOTH",
"1042 56 OFFCURVE",
"1001 39 OFFCURVE",
"942 39 CURVE SMOOTH",
"892 39 LINE",
"892 0 LINE",
"1497 0 LINE",
"1497 39 LINE",
"1446 39 LINE SMOOTH",
"1386 39 OFFCURVE",
"1343 56 OFFCURVE",
"1318 90 CURVE SMOOTH",
"1301 113 OFFCURVE",
"1294 167 OFFCURVE",
"1294 250 CURVE SMOOTH",
"1294 1163 LINE SMOOTH",
"1294 1223 OFFCURVE",
"1296 1260 OFFCURVE",
"1297 1276 CURVE",
"1301 1296 OFFCURVE",
"1310 1313 OFFCURVE",
"1324 1328 CURVE SMOOTH",
"1353 1358 OFFCURVE",
"1393 1374 OFFCURVE",
"1446 1374 CURVE SMOOTH",
"1497 1374 LINE",
"1497 1410 LINE",
"892 1410 LINE",
"892 1374 LINE",
"942 1374 LINE SMOOTH",
"994 1374 OFFCURVE",
"1034 1358 OFFCURVE",
"1064 1328 CURVE SMOOTH",
"1084 1308 OFFCURVE",
"1095 1253 OFFCURVE",
"1095 1163 CURVE SMOOTH",
"1095 756 LINE",
"436 756 LINE",
"436 1163 LINE SMOOTH",
"436 1248 OFFCURVE",
"448 1304 OFFCURVE",
"469 1328 CURVE SMOOTH",
"496 1358 OFFCURVE",
"538 1374 OFFCURVE",
"591 1374 CURVE SMOOTH",
"642 1374 LINE",
"642 1410 LINE",
"37 1410 LINE",
"37 1374 LINE",
"89 1374 LINE SMOOTH",
"144 1374 OFFCURVE",
"184 1358 OFFCURVE",
"209 1327 CURVE SMOOTH",
"229 1301 OFFCURVE",
"237 1247 OFFCURVE",
"237 1163 CURVE SMOOTH",
"237 250 LINE SMOOTH",
"237 164 OFFCURVE",
"230 110 OFFCURVE",
"213 90 CURVE SMOOTH",
"186 56 OFFCURVE",
"144 39 OFFCURVE",
"89 39 CURVE SMOOTH",
"37 39 LINE",
"37 0 LINE"
);
}
);
vertWidth = 0;
width = 1540;
}
);
note = "";
unicode = 0048;
},
{
glyphname = I;
layers = (
{
layerId = "D444198A-330D-4B37-A977-E225F0F0EE7C";
paths = (
{
closed = 1;
nodes = (
"658 0 LINE",
"658 39 LINE",
"606 39 LINE SMOOTH",
"582 39 OFFCURVE",
"556 44 OFFCURVE",
"531 56 CURVE SMOOTH",
"505 66 OFFCURVE",
"488 77 OFFCURVE",
"479 89 CURVE SMOOTH",
"463 113 OFFCURVE",
"455 167 OFFCURVE",
"455 250 CURVE SMOOTH",
"455 1163 LINE SMOOTH",
"455 1246 OFFCURVE",
"463 1298 OFFCURVE",
"482 1323 CURVE SMOOTH",
"508 1357 OFFCURVE",
"549 1374 OFFCURVE",
"606 1374 CURVE SMOOTH",
"658 1374 LINE",
"658 1410 LINE",
"53 1410 LINE",
"53 1374 LINE",
"104 1374 LINE SMOOTH",
"160 1374 OFFCURVE",
"203 1356 OFFCURVE",
"232 1320 CURVE SMOOTH",
"246 1303 OFFCURVE",
"255 1250 OFFCURVE",
"255 1163 CURVE SMOOTH",
"255 250 LINE SMOOTH",
"255 164 OFFCURVE",
"246 110 OFFCURVE",
"230 90 CURVE SMOOTH",
"202 56 OFFCURVE",
"160 39 OFFCURVE",
"104 39 CURVE SMOOTH",
"53 39 LINE",
"53 0 LINE"
);
}
);
vertWidth = 0;
width = 709;
}
);
note = "";
unicode = 0049;
},
{
glyphname = J;
layers = (
{
layerId = "D444198A-330D-4B37-A977-E225F0F0EE7C";
paths = (
{
closed = 1;
nodes = (
"346 -33 OFFCURVE",
"422 -3 OFFCURVE",
"483 57 CURVE SMOOTH",
"571 143 OFFCURVE",
"615 280 OFFCURVE",
"615 472 CURVE SMOOTH",
"615 1163 LINE SMOOTH",
"615 1247 OFFCURVE",
"622 1301 OFFCURVE",
"639 1323 CURVE SMOOTH",
"669 1357 OFFCURVE",
"711 1374 OFFCURVE",
"765 1374 CURVE SMOOTH",
"817 1374 LINE",
"817 1410 LINE",
"213 1410 LINE",
"213 1374 LINE",
"262 1374 LINE SMOOTH",
"290 1374 OFFCURVE",
"316 1367 OFFCURVE",
"343 1356 CURVE SMOOTH",
"370 1344 OFFCURVE",
"388 1331 OFFCURVE",
"396 1316 CURVE SMOOTH",
"409 1293 OFFCURVE",
"416 1241 OFFCURVE",
"416 1163 CURVE SMOOTH",
"416 199 LINE SMOOTH",
"416 93 OFFCURVE",
"390 41 OFFCURVE",
"339 41 CURVE SMOOTH",
"313 41 OFFCURVE",
"287 73 OFFCURVE",
"260 139 CURVE SMOOTH",
"233 203 OFFCURVE",
"196 236 OFFCURVE",
"150 236 CURVE SMOOTH",
"80 236 OFFCURVE",
"46 200 OFFCURVE",
"46 127 CURVE SMOOTH",
"46 83 OFFCURVE",
"63 46 OFFCURVE",
"100 14 CURVE SMOOTH",
"137 -17 OFFCURVE",
"189 -33 OFFCURVE",
"255 -33 CURVE SMOOTH"
);
}
);
vertWidth = 0;
width = 831;
}
);
note = "";
unicode = 004A;
},
{
glyphname = K;
layers = (
{
layerId = "D444198A-330D-4B37-A977-E225F0F0EE7C";
paths = (
{
closed = 1;
nodes = (
"638 0 LINE",
"638 39 LINE",
"588 39 LINE SMOOTH",
"528 39 OFFCURVE",
"486 56 OFFCURVE",
"462 90 CURVE SMOOTH",
"445 113 OFFCURVE",
"436 167 OFFCURVE",
"436 250 CURVE SMOOTH",
"436 582 LINE",
"498 643 LINE",
"922 222 LINE SMOOTH",
"977 167 OFFCURVE",
"1004 127 OFFCURVE",
"1001 104 CURVE SMOOTH",
"995 61 OFFCURVE",
"957 39 OFFCURVE",
"885 39 CURVE",
"885 0 LINE",
"1559 0 LINE",
"1559 39 LINE",
"1493 46 OFFCURVE",
"1431 63 OFFCURVE",
"1377 90 CURVE SMOOTH",
"1317 122 OFFCURVE",
"1244 179 OFFCURVE",
"1158 265 CURVE SMOOTH",
"638 784 LINE",
"852 998 LINE SMOOTH",
"1008 1154 OFFCURVE",
"1088 1234 OFFCURVE",
"1091 1236 CURVE",
"1120 1264 OFFCURVE",
"1155 1290 OFFCURVE",
"1197 1316 CURVE SMOOTH",
"1258 1354 OFFCURVE",
"1317 1374 OFFCURVE",
"1374 1374 CURVE",
"1374 1410 LINE",
"852 1410 LINE",
"852 1374 LINE",
"885 1374 LINE SMOOTH",
"948 1374 OFFCURVE",
"980 1354 OFFCURVE",
"980 1314 CURVE SMOOTH",
"980 1291 OFFCURVE",
"971 1266 OFFCURVE",
"954 1240 CURVE SMOOTH",
"899 1163 OFFCURVE",
"775 1032 OFFCURVE",
"581 851 CURVE SMOOTH",
"503 779 OFFCURVE",
"456 736 OFFCURVE",
"436 719 CURVE",
"436 1163 LINE SMOOTH",
"436 1253 OFFCURVE",
"449 1310 OFFCURVE",
"475 1336 CURVE SMOOTH",
"500 1361 OFFCURVE",
"538 1374 OFFCURVE",
"588 1374 CURVE SMOOTH",
"638 1374 LINE",
"638 1410 LINE",
"37 1410 LINE",
"37 1374 LINE",
"86 1374 LINE SMOOTH",
"109 1374 OFFCURVE",
"132 1369 OFFCURVE",
"157 1358 CURVE SMOOTH",
"184 1348 OFFCURVE",
"200 1338 OFFCURVE",
"209 1328 CURVE SMOOTH",
"227 1308 OFFCURVE",
"236 1253 OFFCURVE",
"236 1163 CURVE SMOOTH",
"236 250 LINE SMOOTH",
"236 163 OFFCURVE",
"229 109 OFFCURVE",
"213 90 CURVE SMOOTH",
"186 56 OFFCURVE",
"143 39 OFFCURVE",
"86 39 CURVE SMOOTH",
"37 39 LINE",
"37 0 LINE"
);
}
);
vertWidth = 0;
width = 1540;
}
);
note = "";
unicode = 004B;
},
{
glyphname = L;
layers = (
{
layerId = "D444198A-330D-4B37-A977-E225F0F0EE7C";
paths = (
{
closed = 1;
nodes = (
"1135 0 LINE",
"1258 383 LINE",
"1221 389 LINE",
"1175 282 OFFCURVE",
"1123 202 OFFCURVE",
"1064 152 CURVE SMOOTH",
"1017 110 OFFCURVE",
"917 90 OFFCURVE",
"765 90 CURVE SMOOTH",
"621 90 LINE SMOOTH",
"555 90 OFFCURVE",
"511 100 OFFCURVE",
"488 119 CURVE SMOOTH",
"459 143 OFFCURVE",
"445 192 OFFCURVE",
"445 266 CURVE SMOOTH",
"445 1195 LINE SMOOTH",
"445 1268 OFFCURVE",
"465 1318 OFFCURVE",
"502 1343 CURVE SMOOTH",
"531 1361 OFFCURVE",
"581 1371 OFFCURVE",
"652 1371 CURVE",
"652 1410 LINE",
"39 1410 LINE",
"39 1371 LINE",
"110 1371 OFFCURVE",
"160 1361 OFFCURVE",
"189 1343 CURVE SMOOTH",
"227 1318 OFFCURVE",
"246 1268 OFFCURVE",
"246 1195 CURVE SMOOTH",
"246 216 LINE SMOOTH",
"246 142 OFFCURVE",
"227 93 OFFCURVE",
"189 67 CURVE SMOOTH",
"160 49 OFFCURVE",
"110 39 OFFCURVE",
"39 39 CURVE",
"39 0 LINE"
);
}
);
vertWidth = 0;
width = 1301;
}
);
note = "";
unicode = 004C;
},
{
glyphname = M;
layers = (
{
layerId = "D444198A-330D-4B37-A977-E225F0F0EE7C";
paths = (
{
closed = 1;
nodes = (
"526 0 LINE",
"526 39 LINE",
"478 39 LINE SMOOTH",
"422 39 OFFCURVE",
"382 53 OFFCURVE",
"356 82 CURVE SMOOTH",
"336 106 OFFCURVE",
"326 162 OFFCURVE",
"326 246 CURVE SMOOTH",
"326 1187 LINE",
"871 0 LINE",
"907 0 LINE",
"1451 1187 LINE",
"1451 246 LINE SMOOTH",
"1451 167 OFFCURVE",
"1444 116 OFFCURVE",
"1429 94 CURVE SMOOTH",
"1403 57 OFFCURVE",
"1360 39 OFFCURVE",
"1300 39 CURVE SMOOTH",
"1250 39 LINE",
"1250 0 LINE",
"1852 0 LINE",
"1852 39 LINE",
"1802 39 LINE SMOOTH",
"1746 39 OFFCURVE",
"1706 53 OFFCURVE",
"1682 82 CURVE SMOOTH",
"1660 106 OFFCURVE",
"1650 160 OFFCURVE",
"1650 246 CURVE SMOOTH",
"1650 1167 LINE SMOOTH",
"1650 1243 OFFCURVE",
"1657 1294 OFFCURVE",
"1673 1320 CURVE",
"1700 1356 OFFCURVE",
"1743 1374 OFFCURVE",
"1802 1374 CURVE SMOOTH",
"1852 1374 LINE",
"1852 1410 LINE",
"1451 1410 LINE",
"947 307 LINE",
"435 1410 LINE",
"37 1410 LINE",
"37 1374 LINE",
"104 1374 OFFCURVE",
"154 1361 OFFCURVE",
"189 1334 CURVE SMOOTH",
"219 1311 OFFCURVE",
"233 1256 OFFCURVE",
"233 1167 CURVE SMOOTH",
"233 246 LINE SMOOTH",
"233 169 OFFCURVE",
"227 117 OFFCURVE",
"213 94 CURVE",
"186 57 OFFCURVE",
"143 39 OFFCURVE",
"86 39 CURVE SMOOTH",
"37 39 LINE",
"37 0 LINE"
);
}
);
vertWidth = 0;
width = 1896;
}
);
note = "";
unicode = 004D;
},
{
glyphname = N;
layers = (
{
layerId = "D444198A-330D-4B37-A977-E225F0F0EE7C";
paths = (
{
closed = 1;
nodes = (
"1310 -23 LINE",
"1310 1167 LINE SMOOTH",
"1310 1246 OFFCURVE",
"1317 1297 OFFCURVE",
"1333 1320 CURVE SMOOTH",
"1356 1356 OFFCURVE",
"1399 1374 OFFCURVE",
"1460 1374 CURVE SMOOTH",
"1509 1374 LINE",
"1509 1410 LINE",
"1018 1410 LINE",
"1018 1374 LINE",
"1065 1374 LINE SMOOTH",
"1121 1374 OFFCURVE",
"1161 1358 OFFCURVE",
"1188 1328 CURVE SMOOTH",
"1208 1308 OFFCURVE",
"1218 1254 OFFCURVE",
"1218 1167 CURVE SMOOTH",
"1218 353 LINE",
"356 1410 LINE",
"13 1410 LINE",
"13 1374 LINE",
"82 1374 OFFCURVE",
"139 1353 OFFCURVE",
"184 1311 CURVE",
"206 1283 OFFCURVE",
"229 1254 OFFCURVE",
"250 1226 CURVE",
"250 246 LINE SMOOTH",
"250 166 OFFCURVE",
"242 114 OFFCURVE",
"226 94 CURVE",
"203 57 OFFCURVE",
"162 39 OFFCURVE",
"99 39 CURVE SMOOTH",
"49 39 LINE",
"49 0 LINE",
"541 0 LINE",
"541 39 LINE",
"492 39 LINE SMOOTH",
"435 39 OFFCURVE",
"393 53 OFFCURVE",
"369 82 CURVE SMOOTH",
"350 104 OFFCURVE",
"340 159 OFFCURVE",
"340 246 CURVE SMOOTH",
"340 1113 LINE",
"1273 -23 LINE"
);
}
);
vertWidth = 0;
width = 1540;
}
);
note = "";
unicode = 004E;
},
{
glyphname = O;
layers = (
{
layerId = "D444198A-330D-4B37-A977-E225F0F0EE7C";
paths = (
{
closed = 1;
nodes = (
"960 -33 OFFCURVE",
"1124 39 OFFCURVE",
"1257 180 CURVE SMOOTH",
"1389 323 OFFCURVE",
"1456 500 OFFCURVE",
"1456 714 CURVE SMOOTH",
"1456 922 OFFCURVE",
"1390 1097 OFFCURVE",
"1258 1236 CURVE SMOOTH",
"1127 1374 OFFCURVE",
"968 1443 OFFCURVE",
"781 1443 CURVE SMOOTH",
"581 1443 OFFCURVE",
"412 1374 OFFCURVE",
"277 1234 CURVE SMOOTH",
"142 1095 OFFCURVE",
"74 919 OFFCURVE",
"74 709 CURVE SMOOTH",
"74 492 OFFCURVE",
"140 313 OFFCURVE",
"275 172 CURVE SMOOTH",
"405 36 OFFCURVE",
"568 -33 OFFCURVE",
"762 -33 CURVE SMOOTH"
);
},
{
closed = 1;
nodes = (
"618 43 OFFCURVE",
"508 106 OFFCURVE",
"429 230 CURVE SMOOTH",
"352 350 OFFCURVE",
"313 512 OFFCURVE",
"313 715 CURVE SMOOTH",
"313 919 OFFCURVE",
"353 1080 OFFCURVE",
"430 1197 CURVE SMOOTH",
"509 1313 OFFCURVE",
"618 1371 OFFCURVE",
"758 1370 CURVE SMOOTH",
"1068 1367 OFFCURVE",
"1223 1140 OFFCURVE",
"1220 686 CURVE SMOOTH",
"1218 472 OFFCURVE",
"1175 309 OFFCURVE",
"1091 197 CURVE SMOOTH",
"1011 92 OFFCURVE",
"899 40 OFFCURVE",
"761 41 CURVE SMOOTH"
);
}
);
vertWidth = 0;
width = 1540;
}
);
note = "";
unicode = 004F;
},
{
glyphname = P;
layers = (
{
layerId = "D444198A-330D-4B37-A977-E225F0F0EE7C";
paths = (
{
closed = 1;
nodes = (
"639 0 LINE",
"639 39 LINE",
"586 39 LINE SMOOTH",
"532 39 OFFCURVE",
"492 54 OFFCURVE",
"468 86 CURVE",
"448 106 OFFCURVE",
"436 160 OFFCURVE",
"436 250 CURVE SMOOTH",
"436 642 LINE",
"532 635 OFFCURVE",
"592 632 OFFCURVE",
"618 632 CURVE SMOOTH",
"947 631 OFFCURVE",
"1111 759 OFFCURVE",
"1111 1021 CURVE SMOOTH",
"1111 1141 OFFCURVE",
"1057 1241 OFFCURVE",
"950 1323 CURVE SMOOTH",
"871 1381 OFFCURVE",
"739 1410 OFFCURVE",
"552 1410 CURVE SMOOTH",
"37 1410 LINE",
"37 1374 LINE",
"89 1374 LINE SMOOTH",
"142 1374 OFFCURVE",
"183 1360 OFFCURVE",
"209 1328 CURVE SMOOTH",
"227 1306 OFFCURVE",
"236 1250 OFFCURVE",
"236 1163 CURVE SMOOTH",
"236 250 LINE SMOOTH",
"236 170 OFFCURVE",
"229 119 OFFCURVE",
"216 96 CURVE SMOOTH",
"192 59 OFFCURVE",
"150 39 OFFCURVE",
"89 39 CURVE SMOOTH",
"37 39 LINE",
"37 0 LINE"
);
},
{
closed = 1;
nodes = (
"551 699 OFFCURVE",
"493 704 OFFCURVE",
"436 711 CURVE",
"436 1308 LINE",
"498 1321 OFFCURVE",
"543 1328 OFFCURVE",
"573 1328 CURVE SMOOTH",
"668 1328 OFFCURVE",
"744 1296 OFFCURVE",
"799 1228 CURVE SMOOTH",
"849 1168 OFFCURVE",
"875 1093 OFFCURVE",
"874 1001 CURVE SMOOTH",
"872 911 OFFCURVE",
"845 839 OFFCURVE",
"795 784 CURVE SMOOTH",
"744 726 OFFCURVE",
"681 699 OFFCURVE",
"606 699 CURVE SMOOTH"
);
}
);
vertWidth = 0;
width = 1185;
}
);
note = "";
unicode = 0050;
},
{
glyphname = Q;
layers = (
{
layerId = "D444198A-330D-4B37-A977-E225F0F0EE7C";
paths = (
{
closed = 1;
nodes = (
"1450 -383 LINE",
"1243 -368 OFFCURVE",
"1072 -245 OFFCURVE",
"940 -14 CURVE",
"1095 33 OFFCURVE",
"1221 123 OFFCURVE",
"1316 253 CURVE SMOOTH",
"1410 383 OFFCURVE",
"1457 535 OFFCURVE",
"1457 705 CURVE SMOOTH",
"1457 918 OFFCURVE",
"1391 1095 OFFCURVE",
"1260 1234 CURVE SMOOTH",
"1128 1374 OFFCURVE",
"967 1443 OFFCURVE",
"776 1443 CURVE SMOOTH",
"578 1443 OFFCURVE",
"410 1374 OFFCURVE",
"276 1234 CURVE SMOOTH",
"142 1095 OFFCURVE",
"74 919 OFFCURVE",
"74 708 CURVE SMOOTH",
"74 345 OFFCURVE",
"243 104 OFFCURVE",
"581 -14 CURVE",
"676 -120 OFFCURVE",
"802 -209 OFFCURVE",
"957 -285 CURVE SMOOTH",
"1125 -366 OFFCURVE",
"1290 -412 OFFCURVE",
"1450 -418 CURVE"
);
},
{
closed = 1;
nodes = (
"621 40 OFFCURVE",
"509 102 OFFCURVE",
"429 226 CURVE SMOOTH",
"352 345 OFFCURVE",
"313 505 OFFCURVE",
"313 708 CURVE SMOOTH",
"313 919 OFFCURVE",
"353 1081 OFFCURVE",
"432 1195 CURVE SMOOTH",
"512 1308 OFFCURVE",
"622 1366 OFFCURVE",
"762 1366 CURVE SMOOTH",
"909 1366 OFFCURVE",
"1021 1304 OFFCURVE",
"1101 1181 CURVE SMOOTH",
"1180 1060 OFFCURVE",
"1220 892 OFFCURVE",
"1220 679 CURVE SMOOTH",
"1220 478 OFFCURVE",
"1180 320 OFFCURVE",
"1100 207 CURVE SMOOTH",
"1020 93 OFFCURVE",
"908 37 OFFCURVE",
"762 39 CURVE SMOOTH"
);
}
);
vertWidth = 0;
width = 1540;
}
);
note = "";
unicode = 0051;
},
{
glyphname = R;
layers = (
{
layerId = "D444198A-330D-4B37-A977-E225F0F0EE7C";
paths = (
{
closed = 1;
nodes = (
"642 0 LINE",
"642 39 LINE",
"586 39 LINE SMOOTH",
"532 39 OFFCURVE",
"492 54 OFFCURVE",
"468 86 CURVE",
"448 107 OFFCURVE",
"436 162 OFFCURVE",
"436 250 CURVE SMOOTH",
"436 661 LINE",
"460 656 OFFCURVE",
"509 656 OFFCURVE",
"586 661 CURVE",
"1064 0 LINE",
"1441 0 LINE",
"1441 39 LINE",
"1361 47 OFFCURVE",
"1297 67 OFFCURVE",
"1248 100 CURVE SMOOTH",
"1200 133 OFFCURVE",
"1143 193 OFFCURVE",
"1081 280 CURVE SMOOTH",
"791 686 LINE",
"1022 739 OFFCURVE",
"1138 859 OFFCURVE",
"1138 1050 CURVE SMOOTH",
"1138 1127 OFFCURVE",
"1114 1197 OFFCURVE",
"1065 1257 CURVE SMOOTH",
"1020 1313 OFFCURVE",
"958 1353 OFFCURVE",
"884 1377 CURVE SMOOTH",
"815 1400 OFFCURVE",
"704 1410 OFFCURVE",
"549 1410 CURVE SMOOTH",
"37 1410 LINE",
"37 1374 LINE",
"90 1374 LINE SMOOTH",
"140 1374 OFFCURVE",
"182 1358 OFFCURVE",
"212 1328 CURVE",
"229 1306 OFFCURVE",
"237 1250 OFFCURVE",
"237 1163 CURVE SMOOTH",
"237 250 LINE SMOOTH",
"237 169 OFFCURVE",
"230 117 OFFCURVE",
"217 96 CURVE SMOOTH",
"193 59 OFFCURVE",
"150 39 OFFCURVE",
"90 39 CURVE SMOOTH",
"37 39 LINE",
"37 0 LINE"
);
},
{
closed = 1;
nodes = (
"436 1314 LINE",
"512 1327 OFFCURVE",
"566 1333 OFFCURVE",
"601 1333 CURVE SMOOTH",
"692 1331 OFFCURVE",
"765 1303 OFFCURVE",
"821 1248 CURVE SMOOTH",
"877 1194 OFFCURVE",
"904 1123 OFFCURVE",
"904 1034 CURVE SMOOTH",
"904 941 OFFCURVE",
"871 867 OFFCURVE",
"804 812 CURVE SMOOTH",
"732 754 OFFCURVE",
"631 725 OFFCURVE",
"496 725 CURVE SMOOTH",
"436 725 LINE"
);
}
);
vertWidth = 0;
width = 1423;
}
);
note = "";
unicode = 0052;
},
{
glyphname = S;
layers = (
{
layerId = "D444198A-330D-4B37-A977-E225F0F0EE7C";
paths = (
{
closed = 1;
nodes = (
"184 -33 LINE",
"193 21 OFFCURVE",
"214 49 OFFCURVE",
"247 49 CURVE SMOOTH",
"260 49 OFFCURVE",
"307 36 OFFCURVE",
"390 9 CURVE SMOOTH",
"473 -19 OFFCURVE",
"552 -33 OFFCURVE",
"628 -33 CURVE SMOOTH",
"756 -33 OFFCURVE",
"862 6 OFFCURVE",
"947 82 CURVE SMOOTH",
"1030 159 OFFCURVE",
"1072 252 OFFCURVE",
"1072 360 CURVE SMOOTH",
"1072 479 OFFCURVE",
"1021 578 OFFCURVE",
"921 654 CURVE SMOOTH",
"865 696 OFFCURVE",
"775 751 OFFCURVE",
"649 818 CURVE SMOOTH",
"509 894 OFFCURVE",
"416 952 OFFCURVE",
"369 997 CURVE SMOOTH",
"323 1040 OFFCURVE",
"299 1090 OFFCURVE",
"299 1144 CURVE SMOOTH",
"299 1203 OFFCURVE",
"323 1254 OFFCURVE",
"372 1297 CURVE SMOOTH",
"420 1340 OFFCURVE",
"479 1361 OFFCURVE",
"548 1361 CURVE SMOOTH",
"649 1361 OFFCURVE",
"738 1326 OFFCURVE",
"811 1254 CURVE SMOOTH",
"884 1184 OFFCURVE",
"927 1084 OFFCURVE",
"940 955 CURVE",
"978 955 LINE",
"978 1443 LINE",
"940 1443 LINE",
"925 1390 OFFCURVE",
"902 1363 OFFCURVE",
"871 1363 CURVE SMOOTH",
"861 1363 OFFCURVE",
"819 1377 OFFCURVE",
"748 1403 CURVE SMOOTH",
"678 1430 OFFCURVE",
"609 1443 OFFCURVE",
"545 1443 CURVE SMOOTH",
"422 1443 OFFCURVE",
"323 1407 OFFCURVE",
"247 1334 CURVE SMOOTH",
"173 1263 OFFCURVE",
"136 1174 OFFCURVE",
"136 1072 CURVE SMOOTH",
"136 984 OFFCURVE",
"163 909 OFFCURVE",
"216 851 CURVE SMOOTH",
"270 788 OFFCURVE",
"380 711 OFFCURVE",
"545 618 CURVE SMOOTH",
"681 541 OFFCURVE",
"768 485 OFFCURVE",
"808 449 CURVE SMOOTH",
"859 402 OFFCURVE",
"885 345 OFFCURVE",
"885 279 CURVE SMOOTH",
"885 214 OFFCURVE",
"859 162 OFFCURVE",
"809 119 CURVE SMOOTH",
"756 73 OFFCURVE",
"688 49 OFFCURVE",
"605 49 CURVE SMOOTH",
"495 49 OFFCURVE",
"405 80 OFFCURVE",
"332 142 CURVE SMOOTH",
"250 212 OFFCURVE",
"200 315 OFFCURVE",
"184 450 CURVE",
"147 450 LINE",
"147 -33 LINE"
);
}
);
vertWidth = 0;
width = 1185;
}
);
note = "";
unicode = 0053;
},
{
glyphname = T;
layers = (
{
layerId = "D444198A-330D-4B37-A977-E225F0F0EE7C";
paths = (
{
closed = 1;
nodes = (
"945 0 LINE",
"945 39 LINE",
"895 39 LINE SMOOTH",
"839 39 OFFCURVE",
"799 53 OFFCURVE",
"775 82 CURVE SMOOTH",
"755 104 OFFCURVE",
"746 160 OFFCURVE",
"746 246 CURVE SMOOTH",
"746 1324 LINE",
"945 1324 LINE SMOOTH",
"1028 1324 OFFCURVE",
"1093 1301 OFFCURVE",
"1138 1254 CURVE SMOOTH",
"1174 1218 OFFCURVE",
"1195 1160 OFFCURVE",
"1204 1081 CURVE",
"1248 1081 LINE",
"1236 1410 LINE",
"66 1410 LINE",
"51 1081 LINE",
"99 1081 LINE",
"107 1175 OFFCURVE",
"136 1243 OFFCURVE",
"186 1280 CURVE",
"220 1310 OFFCURVE",
"285 1324 OFFCURVE",
"378 1324 CURVE SMOOTH",
"545 1324 LINE",
"545 246 LINE SMOOTH",
"545 169 OFFCURVE",
"539 117 OFFCURVE",
"525 94 CURVE",
"498 57 OFFCURVE",
"455 39 OFFCURVE",
"398 39 CURVE SMOOTH",
"346 39 LINE",
"346 0 LINE"
);
}
);
vertWidth = 0;
width = 1297;
}
);
note = "";
unicode = 0054;
},
{
glyphname = U;
layers = (
{
layerId = "D444198A-330D-4B37-A977-E225F0F0EE7C";
paths = (
{
closed = 1;
nodes = (
"869 -33 OFFCURVE",
"954 -21 OFFCURVE",
"1021 4 CURVE SMOOTH",
"1081 27 OFFCURVE",
"1138 69 OFFCURVE",
"1191 123 CURVE SMOOTH",
"1273 207 OFFCURVE",
"1314 360 OFFCURVE",
"1314 581 CURVE SMOOTH",
"1314 1154 LINE SMOOTH",
"1314 1234 OFFCURVE",
"1323 1281 OFFCURVE",
"1337 1301 CURVE SMOOTH",
"1370 1348 OFFCURVE",
"1410 1374 OFFCURVE",
"1464 1374 CURVE SMOOTH",
"1517 1374 LINE",
"1517 1410 LINE",
"1017 1410 LINE",
"1017 1374 LINE",
"1070 1374 LINE SMOOTH",
"1125 1374 OFFCURVE",
"1165 1358 OFFCURVE",
"1191 1328 CURVE SMOOTH",
"1210 1307 OFFCURVE",
"1220 1251 OFFCURVE",
"1220 1163 CURVE SMOOTH",
"1220 591 LINE SMOOTH",
"1220 380 OFFCURVE",
"1187 245 OFFCURVE",
"1121 183 CURVE SMOOTH",
"1031 97 OFFCURVE",
"918 56 OFFCURVE",
"784 56 CURVE SMOOTH",
"626 56 OFFCURVE",
"521 114 OFFCURVE",
"465 232 CURVE SMOOTH",
"433 302 OFFCURVE",
"416 406 OFFCURVE",
"416 545 CURVE SMOOTH",
"416 1163 LINE SMOOTH",
"416 1238 OFFCURVE",
"425 1291 OFFCURVE",
"443 1318 CURVE SMOOTH",
"466 1356 OFFCURVE",
"500 1374 OFFCURVE",
"548 1374 CURVE SMOOTH",
"601 1374 LINE",
"601 1410 LINE",
"31 1410 LINE",
"31 1374 LINE",
"63 1374 LINE SMOOTH",
"127 1374 OFFCURVE",
"172 1354 OFFCURVE",
"193 1314 CURVE SMOOTH",
"209 1286 OFFCURVE",
"216 1234 OFFCURVE",
"216 1163 CURVE SMOOTH",
"216 609 LINE SMOOTH",
"216 419 OFFCURVE",
"235 285 OFFCURVE",
"275 204 CURVE SMOOTH",
"355 46 OFFCURVE",
"519 -33 OFFCURVE",
"769 -33 CURVE SMOOTH"
);
}
);
vertWidth = 0;
width = 1540;
}
);
note = "";
unicode = 0055;
},
{
glyphname = V;
layers = (
{
layerId = "D444198A-330D-4B37-A977-E225F0F0EE7C";
paths = (
{
closed = 1;
nodes = (
"809 -33 LINE",
"1301 1171 LINE SMOOTH",
"1330 1240 OFFCURVE",
"1363 1291 OFFCURVE",
"1400 1327 CURVE SMOOTH",
"1424 1350 OFFCURVE",
"1463 1366 OFFCURVE",
"1513 1374 CURVE",
"1513 1410 LINE",
"1078 1410 LINE",
"1078 1374 LINE",
"1154 1360 OFFCURVE",
"1200 1338 OFFCURVE",
"1218 1308 CURVE SMOOTH",
"1224 1297 OFFCURVE",
"1228 1284 OFFCURVE",
"1228 1268 CURVE SMOOTH",
"1228 1240 OFFCURVE",
"1211 1187 OFFCURVE",
"1178 1107 CURVE SMOOTH",
"847 287 LINE",
"486 1115 LINE SMOOTH",
"455 1187 OFFCURVE",
"439 1241 OFFCURVE",
"439 1276 CURVE SMOOTH",
"439 1294 OFFCURVE",
"443 1310 OFFCURVE",
"450 1323 CURVE",
"469 1348 OFFCURVE",
"516 1366 OFFCURVE",
"595 1374 CURVE",
"595 1410 LINE",
"19 1410 LINE",
"19 1374 LINE",
"79 1369 OFFCURVE",
"123 1353 OFFCURVE",
"153 1330 CURVE SMOOTH",
"182 1306 OFFCURVE",
"213 1257 OFFCURVE",
"245 1185 CURVE SMOOTH",
"771 -33 LINE"
);
}
);
vertWidth = 0;
width = 1540;
}
);
note = "";
unicode = 0056;
},
{
glyphname = W;
layers = (
{
layerId = "D444198A-330D-4B37-A977-E225F0F0EE7C";
paths = (
{
closed = 1;
nodes = (
"699 -33 LINE",
"1018 869 LINE",
"1338 -33 LINE",
"1381 -33 LINE",
"1773 1107 LINE SMOOTH",
"1803 1194 OFFCURVE",
"1826 1251 OFFCURVE",
"1840 1280 CURVE",
"1875 1341 OFFCURVE",
"1926 1374 OFFCURVE",
"1995 1374 CURVE",
"1995 1410 LINE",
"1574 1410 LINE",
"1574 1374 LINE",
"1677 1374 OFFCURVE",
"1729 1341 OFFCURVE",
"1729 1277 CURVE SMOOTH",
"1729 1248 OFFCURVE",
"1715 1191 OFFCURVE",
"1685 1107 CURVE SMOOTH",
"1417 327 LINE",
"1144 1097 LINE SMOOTH",
"1114 1181 OFFCURVE",
"1098 1243 OFFCURVE",
"1098 1281 CURVE SMOOTH",
"1098 1343 OFFCURVE",
"1137 1374 OFFCURVE",
"1211 1374 CURVE SMOOTH",
"1248 1374 LINE",
"1248 1410 LINE",
"699 1410 LINE",
"699 1374 LINE",
"746 1374 OFFCURVE",
"786 1361 OFFCURVE",
"817 1337 CURVE SMOOTH",
"847 1311 OFFCURVE",
"881 1250 OFFCURVE",
"921 1148 CURVE SMOOTH",
"937 1105 OFFCURVE",
"954 1057 OFFCURVE",
"970 1002 CURVE",
"736 327 LINE",
"459 1121 LINE SMOOTH",
"429 1207 OFFCURVE",
"415 1263 OFFCURVE",
"415 1290 CURVE SMOOTH",
"415 1301 OFFCURVE",
"418 1314 OFFCURVE",
"425 1327 CURVE SMOOTH",
"440 1357 OFFCURVE",
"475 1374 OFFCURVE",
"525 1374 CURVE SMOOTH",
"549 1374 LINE",
"549 1410 LINE",
"29 1410 LINE",
"29 1374 LINE",
"89 1374 OFFCURVE",
"132 1358 OFFCURVE",
"156 1328 CURVE",
"173 1316 OFFCURVE",
"202 1253 OFFCURVE",
"242 1140 CURVE SMOOTH",
"661 -33 LINE"
);
}
);
vertWidth = 0;
width = 2013;
}
);
note = "";
unicode = 0057;
},
{
glyphname = X;
layers = (
{
layerId = "D444198A-330D-4B37-A977-E225F0F0EE7C";
paths = (
{
closed = 1;
nodes = (
"516 0 LINE",
"516 39 LINE",
"426 41 OFFCURVE",
"382 69 OFFCURVE",
"382 119 CURVE SMOOTH",
"382 146 OFFCURVE",
"402 187 OFFCURVE",
"445 242 CURVE SMOOTH",
"742 621 LINE",
"980 259 LINE SMOOTH",
"1027 187 OFFCURVE",
"1050 140 OFFCURVE",
"1050 119 CURVE SMOOTH",
"1050 107 OFFCURVE",
"1044 93 OFFCURVE",
"1034 77 CURVE SMOOTH",
"1015 51 OFFCURVE",
"974 39 OFFCURVE",
"908 39 CURVE",
"908 0 LINE",
"1513 0 LINE",
"1513 39 LINE",
"1450 43 OFFCURVE",
"1399 61 OFFCURVE",
"1357 96 CURVE SMOOTH",
"1316 130 OFFCURVE",
"1254 209 OFFCURVE",
"1173 330 CURVE SMOOTH",
"869 784 LINE",
"1153 1140 LINE SMOOTH",
"1223 1228 OFFCURVE",
"1274 1287 OFFCURVE",
"1306 1311 CURVE",
"1351 1350 OFFCURVE",
"1411 1370 OFFCURVE",
"1481 1374 CURVE",
"1481 1410 LINE",
"980 1410 LINE",
"980 1374 LINE",
"1055 1373 OFFCURVE",
"1101 1358 OFFCURVE",
"1121 1333 CURVE SMOOTH",
"1130 1323 OFFCURVE",
"1134 1311 OFFCURVE",
"1134 1297 CURVE SMOOTH",
"1134 1270 OFFCURVE",
"1111 1230 OFFCURVE",
"1068 1174 CURVE SMOOTH",
"818 857 LINE",
"601 1181 LINE SMOOTH",
"568 1230 OFFCURVE",
"552 1267 OFFCURVE",
"552 1291 CURVE SMOOTH",
"552 1311 OFFCURVE",
"562 1328 OFFCURVE",
"585 1346 CURVE SMOOTH",
"606 1363 OFFCURVE",
"643 1373 OFFCURVE",
"696 1374 CURVE",
"696 1410 LINE",
"46 1410 LINE",
"46 1374 LINE",
"117 1370 OFFCURVE",
"180 1351 OFFCURVE",
"230 1316 CURVE SMOOTH",
"285 1277 OFFCURVE",
"347 1205 OFFCURVE",
"418 1103 CURVE SMOOTH",
"696 695 LINE",
"363 273 LINE SMOOTH",
"243 122 OFFCURVE",
"126 43 OFFCURVE",
"14 39 CURVE",
"14 0 LINE"
);
}
);
vertWidth = 0;
width = 1540;
}
);
note = "";
unicode = 0058;
},
{
glyphname = Y;
layers = (
{
layerId = "D444198A-330D-4B37-A977-E225F0F0EE7C";
paths = (
{
closed = 1;
nodes = (
"1062 0 LINE",
"1062 39 LINE",
"1017 39 LINE SMOOTH",
"958 39 OFFCURVE",
"917 53 OFFCURVE",
"892 82 CURVE SMOOTH",
"871 106 OFFCURVE",
"861 160 OFFCURVE",
"861 246 CURVE SMOOTH",
"861 599 LINE",
"1204 1134 LINE SMOOTH",
"1251 1208 OFFCURVE",
"1286 1257 OFFCURVE",
"1308 1281 CURVE SMOOTH",
"1364 1343 OFFCURVE",
"1421 1374 OFFCURVE",
"1481 1374 CURVE SMOOTH",
"1509 1374 LINE",
"1509 1410 LINE",
"1017 1410 LINE",
"1017 1374 LINE",
"1080 1374 OFFCURVE",
"1121 1357 OFFCURVE",
"1143 1324 CURVE SMOOTH",
"1153 1307 OFFCURVE",
"1160 1290 OFFCURVE",
"1160 1271 CURVE SMOOTH",
"1160 1241 OFFCURVE",
"1140 1193 OFFCURVE",
"1097 1125 CURVE SMOOTH",
"818 691 LINE",
"525 1144 LINE SMOOTH",
"482 1210 OFFCURVE",
"462 1256 OFFCURVE",
"462 1281 CURVE SMOOTH",
"462 1311 OFFCURVE",
"476 1336 OFFCURVE",
"506 1353 CURVE SMOOTH",
"531 1367 OFFCURVE",
"559 1374 OFFCURVE",
"592 1374 CURVE SMOOTH",
"623 1374 LINE",
"623 1410 LINE",
"19 1410 LINE",
"19 1374 LINE",
"64 1374 OFFCURVE",
"113 1354 OFFCURVE",
"162 1316 CURVE SMOOTH",
"180 1303 OFFCURVE",
"197 1283 OFFCURVE",
"217 1257 CURVE SMOOTH",
"226 1244 OFFCURVE",
"246 1215 OFFCURVE",
"275 1171 CURVE SMOOTH",
"661 581 LINE",
"661 246 LINE SMOOTH",
"661 169 OFFCURVE",
"654 117 OFFCURVE",
"639 94 CURVE SMOOTH",
"612 57 OFFCURVE",
"571 39 OFFCURVE",
"512 39 CURVE SMOOTH",
"463 39 LINE",
"463 0 LINE"
);
}
);
vertWidth = 0;
width = 1540;
}
);
note = "";
unicode = 0059;
},
{
glyphname = Z;
layers = (
{
layerId = "D444198A-330D-4B37-A977-E225F0F0EE7C";
paths = (
{
closed = 1;
nodes = (
"1177 0 LINE",
"1243 373 LINE",
"1210 379 LINE",
"1175 275 OFFCURVE",
"1140 202 OFFCURVE",
"1101 162 CURVE SMOOTH",
"1051 112 OFFCURVE",
"975 86 OFFCURVE",
"878 86 CURVE SMOOTH",
"299 86 LINE",
"1226 1410 LINE",
"183 1410 LINE",
"154 1058 LINE",
"193 1058 LINE",
"212 1171 OFFCURVE",
"240 1244 OFFCURVE",
"279 1278 CURVE SMOOTH",
"317 1311 OFFCURVE",
"385 1328 OFFCURVE",
"482 1328 CURVE SMOOTH",
"931 1328 LINE",
"29 39 LINE",
"29 0 LINE"
);
}
);
vertWidth = 0;
width = 1301;
}
);
note = "";
unicode = 005A;
},
{
glyphname = bracketleft;
layers = (
{
layerId = "D444198A-330D-4B37-A977-E225F0F0EE7C";
paths = (
{
closed = 1;
nodes = (
"632 -422 LINE",
"632 -340 LINE",
"327 -340 LINE",
"327 1363 LINE",
"632 1363 LINE",
"632 1443 LINE",
"172 1443 LINE",
"172 -422 LINE"
);
}
);
vertWidth = 0;
width = 709;
}
);
note = "";
unicode = 005B;
},
{
glyphname = backslash;
layers = (
{
layerId = "D444198A-330D-4B37-A977-E225F0F0EE7C";
paths = (
{
closed = 1;
nodes = (
"601 -31 LINE",
"93 1480 LINE",
"1 1480 LINE",
"515 -31 LINE"
);
}
);
vertWidth = 0;
width = 592;
}
);
note = "";
unicode = 005C;
},
{
glyphname = bracketright;
layers = (
{
layerId = "D444198A-330D-4B37-A977-E225F0F0EE7C";
paths = (
{
closed = 1;
nodes = (
"538 -425 LINE",
"538 1443 LINE",
"80 1443 LINE",
"80 1363 LINE",
"382 1363 LINE",
"382 -340 LINE",
"80 -340 LINE",
"80 -425 LINE"
);
}
);
vertWidth = 0;
width = 709;
}
);
note = "";
unicode = 005D;
},
{
glyphname = asciicircum;
layers = (
{
layerId = "D444198A-330D-4B37-A977-E225F0F0EE7C";
paths = (
{
closed = 1;
nodes = (
"618 20 LINE",
"1025 1120 LINE",
"1433 20 LINE",
"1560 20 LINE",
"1088 1250 LINE",
"961 1250 LINE",
"490 20 LINE"
);
}
);
vertWidth = 0;
width = 2051;
}
);
note = "";
unicode = 005E;
},
{
glyphname = underscore;
layers = (
{
layerId = "D444198A-330D-4B37-A977-E225F0F0EE7C";
paths = (
{
closed = 1;
nodes = (
"1025 -240 LINE",
"1025 -164 LINE",
"0 -164 LINE",
"0 -240 LINE"
);
}
);
vertWidth = 0;
width = 1025;
}
);
note = "";
unicode = 005F;
},
{
glyphname = grave;
layers = (
{
layerId = "D444198A-330D-4B37-A977-E225F0F0EE7C";
paths = (
{
closed = 1;
nodes = (
"486 1084 LINE",
"190 1381 LINE SMOOTH",
"144 1429 OFFCURVE",
"103 1451 OFFCURVE",
"66 1451 CURVE SMOOTH",
"21 1451 OFFCURVE",
"0 1424 OFFCURVE",
"0 1371 CURVE SMOOTH",
"0 1348 OFFCURVE",
"31 1318 OFFCURVE",
"93 1280 CURVE SMOOTH",
"400 1084 LINE"
);
}
);
vertWidth = 0;
width = 799;
}
);
note = "";
unicode = 0060;
},
{
glyphname = a;
layers = (
{
layerId = "D444198A-330D-4B37-A977-E225F0F0EE7C";
paths = (
{
closed = 1;
nodes = (
"352 -19 OFFCURVE",
"393 -9 OFFCURVE",
"430 10 CURVE SMOOTH",
"460 26 OFFCURVE",
"519 69 OFFCURVE",
"606 137 CURVE",
"606 33 OFFCURVE",
"643 -19 OFFCURVE",
"718 -19 CURVE SMOOTH",
"791 -19 OFFCURVE",
"867 33 OFFCURVE",
"945 137 CURVE",
"945 197 LINE",
"889 140 OFFCURVE",
"851 113 OFFCURVE",
"832 113 CURVE SMOOTH",
"808 113 OFFCURVE",
"792 130 OFFCURVE",
"786 164 CURVE SMOOTH",
"782 193 OFFCURVE",
"781 247 OFFCURVE",
"781 330 CURVE SMOOTH",
"781 656 LINE SMOOTH",
"781 768 OFFCURVE",
"762 847 OFFCURVE",
"725 892 CURVE SMOOTH",
"678 951 OFFCURVE",
"589 980 OFFCURVE",
"462 980 CURVE SMOOTH",
"366 980 OFFCURVE",
"286 958 OFFCURVE",
"219 917 CURVE SMOOTH",
"149 872 OFFCURVE",
"113 815 OFFCURVE",
"113 742 CURVE SMOOTH",
"113 675 OFFCURVE",
"142 642 OFFCURVE",
"200 642 CURVE SMOOTH",
"262 642 OFFCURVE",
"289 675 OFFCURVE",
"287 741 CURVE SMOOTH",
"285 802 LINE",
"287 835 OFFCURVE",
"302 864 OFFCURVE",
"327 885 CURVE SMOOTH",
"352 908 OFFCURVE",
"386 918 OFFCURVE",
"429 918 CURVE SMOOTH",
"490 918 OFFCURVE",
"535 899 OFFCURVE",
"563 861 CURVE SMOOTH",
"592 822 OFFCURVE",
"606 759 OFFCURVE",
"606 671 CURVE SMOOTH",
"606 632 LINE",
"395 559 OFFCURVE",
"250 489 OFFCURVE",
"172 422 CURVE SMOOTH",
"109 369 OFFCURVE",
"76 303 OFFCURVE",
"76 226 CURVE SMOOTH",
"76 152 OFFCURVE",
"97 93 OFFCURVE",
"139 49 CURVE SMOOTH",
"180 4 OFFCURVE",
"235 -19 OFFCURVE",
"303 -19 CURVE SMOOTH"
);
},
{
closed = 1;
nodes = (
"356 102 OFFCURVE",
"322 119 OFFCURVE",
"295 152 CURVE SMOOTH",
"266 184 OFFCURVE",
"252 226 OFFCURVE",
"252 275 CURVE SMOOTH",
"252 327 OFFCURVE",
"272 373 OFFCURVE",
"309 410 CURVE SMOOTH",
"360 459 OFFCURVE",
"459 512 OFFCURVE",
"606 571 CURVE",
"606 204 LINE",
"519 134 OFFCURVE",
"449 99 OFFCURVE",
"398 100 CURVE SMOOTH"
);
}
);
vertWidth = 0;
width = 947;
}
);
note = "";
unicode = 0061;
},
{
glyphname = b;
layers = (
{
layerId = "D444198A-330D-4B37-A977-E225F0F0EE7C";
paths = (
{
closed = 1;
nodes = (
"633 -31 OFFCURVE",
"749 21 OFFCURVE",
"847 126 CURVE SMOOTH",
"944 230 OFFCURVE",
"992 360 OFFCURVE",
"992 515 CURVE SMOOTH",
"992 655 OFFCURVE",
"957 769 OFFCURVE",
"884 857 CURVE SMOOTH",
"815 940 OFFCURVE",
"728 980 OFFCURVE",
"628 980 CURVE SMOOTH",
"521 980 OFFCURVE",
"420 917 OFFCURVE",
"327 789 CURVE",
"327 1480 LINE",
"279 1480 LINE",
"-9 1366 LINE",
"6 1328 LINE",
"63 1346 OFFCURVE",
"102 1347 OFFCURVE",
"122 1330 CURVE SMOOTH",
"134 1320 OFFCURVE",
"144 1301 OFFCURVE",
"147 1277 CURVE SMOOTH",
"152 1246 OFFCURVE",
"154 1180 OFFCURVE",
"154 1078 CURVE SMOOTH",
"154 93 LINE",
"275 10 OFFCURVE",
"389 -31 OFFCURVE",
"500 -31 CURVE SMOOTH"
);
},
{
closed = 1;
nodes = (
"473 47 OFFCURVE",
"398 82 OFFCURVE",
"327 152 CURVE",
"327 724 LINE",
"406 798 OFFCURVE",
"478 834 OFFCURVE",
"543 834 CURVE SMOOTH",
"618 834 OFFCURVE",
"682 801 OFFCURVE",
"734 732 CURVE SMOOTH",
"786 664 OFFCURVE",
"812 571 OFFCURVE",
"812 455 CURVE SMOOTH",
"812 327 OFFCURVE",
"785 226 OFFCURVE",
"729 150 CURVE SMOOTH",
"679 82 OFFCURVE",
"621 47 OFFCURVE",
"553 47 CURVE SMOOTH"
);
}
);
vertWidth = 0;
width = 1065;
}
);
note = "";
unicode = 0062;
},
{
glyphname = c;
layers = (
{
layerId = "D444198A-330D-4B37-A977-E225F0F0EE7C";
paths = (
{
closed = 1;
nodes = (
"572 -31 OFFCURVE",
"658 6 OFFCURVE",
"734 80 CURVE SMOOTH",
"811 154 OFFCURVE",
"858 247 OFFCURVE",
"875 363 CURVE",
"847 378 LINE",
"779 216 OFFCURVE",
"681 136 OFFCURVE",
"552 136 CURVE SMOOTH",
"456 136 OFFCURVE",
"379 179 OFFCURVE",
"322 266 CURVE SMOOTH",
"269 347 OFFCURVE",
"242 448 OFFCURVE",
"242 566 CURVE SMOOTH",
"242 666 OFFCURVE",
"265 749 OFFCURVE",
"309 815 CURVE SMOOTH",
"355 879 OFFCURVE",
"416 912 OFFCURVE",
"492 912 CURVE SMOOTH",
"582 912 OFFCURVE",
"631 871 OFFCURVE",
"638 788 CURVE SMOOTH",
"645 705 OFFCURVE",
"682 664 OFFCURVE",
"752 664 CURVE SMOOTH",
"818 664 OFFCURVE",
"851 694 OFFCURVE",
"851 752 CURVE SMOOTH",
"851 821 OFFCURVE",
"812 878 OFFCURVE",
"736 922 CURVE SMOOTH",
"669 961 OFFCURVE",
"599 980 OFFCURVE",
"526 980 CURVE SMOOTH",
"400 980 OFFCURVE",
"293 932 OFFCURVE",
"207 841 CURVE SMOOTH",
"117 745 OFFCURVE",
"71 623 OFFCURVE",
"71 476 CURVE SMOOTH",
"71 325 OFFCURVE",
"110 202 OFFCURVE",
"189 109 CURVE SMOOTH",
"266 16 OFFCURVE",
"363 -31 OFFCURVE",
"478 -31 CURVE SMOOTH"
);
}
);
vertWidth = 0;
width = 947;
}
);
note = "";
unicode = 0063;
},
{
glyphname = d;
layers = (
{
layerId = "D444198A-330D-4B37-A977-E225F0F0EE7C";
paths = (
{
closed = 1;
nodes = (
"559 -31 OFFCURVE",
"652 16 OFFCURVE",
"741 107 CURVE",
"741 -31 LINE",
"786 -31 LINE",
"1074 89 LINE",
"1062 124 LINE",
"1007 104 OFFCURVE",
"970 103 OFFCURVE",
"947 122 CURVE SMOOTH",
"932 133 OFFCURVE",
"922 152 OFFCURVE",
"919 179 CURVE SMOOTH",
"917 207 OFFCURVE",
"914 273 OFFCURVE",
"914 378 CURVE SMOOTH",
"914 1480 LINE",
"867 1480 LINE",
"581 1366 LINE",
"595 1328 LINE",
"652 1347 OFFCURVE",
"689 1348 OFFCURVE",
"708 1330 CURVE SMOOTH",
"721 1317 OFFCURVE",
"731 1298 OFFCURVE",
"734 1276 CURVE SMOOTH",
"739 1244 OFFCURVE",
"741 1178 OFFCURVE",
"741 1078 CURVE SMOOTH",
"741 902 LINE",
"686 955 OFFCURVE",
"618 982 OFFCURVE",
"533 982 CURVE SMOOTH",
"393 981 OFFCURVE",
"280 921 OFFCURVE",
"190 802 CURVE SMOOTH",
"110 695 OFFCURVE",
"70 573 OFFCURVE",
"70 436 CURVE SMOOTH",
"70 305 OFFCURVE",
"109 193 OFFCURVE",
"186 103 CURVE SMOOTH",
"263 14 OFFCURVE",
"355 -31 OFFCURVE",
"462 -31 CURVE SMOOTH"
);
},
{
closed = 1;
nodes = (
"479 87 OFFCURVE",
"413 122 OFFCURVE",
"359 189 CURVE SMOOTH",
"295 267 OFFCURVE",
"262 379 OFFCURVE",
"262 521 CURVE SMOOTH",
"262 639 OFFCURVE",
"287 738 OFFCURVE",
"339 814 CURVE SMOOTH",
"388 887 OFFCURVE",
"448 921 OFFCURVE",
"521 918 CURVE SMOOTH",
"585 915 OFFCURVE",
"639 888 OFFCURVE",
"682 834 CURVE SMOOTH",
"722 785 OFFCURVE",
"741 731 OFFCURVE",
"741 672 CURVE SMOOTH",
"741 180 LINE",
"681 117 OFFCURVE",
"619 86 OFFCURVE",
"556 86 CURVE SMOOTH"
);
}
);
vertWidth = 0;
width = 1065;
}
);
note = "";
unicode = 0064;
},
{
glyphname = e;
layers = (
{
layerId = "D444198A-330D-4B37-A977-E225F0F0EE7C";
paths = (
{
closed = 1;
nodes = (
"598 -31 OFFCURVE",
"686 9 OFFCURVE",
"761 89 CURVE SMOOTH",
"828 160 OFFCURVE",
"871 247 OFFCURVE",
"885 349 CURVE",
"852 369 LINE",
"794 216 OFFCURVE",
"701 140 OFFCURVE",
"573 142 CURVE SMOOTH",
"478 143 OFFCURVE",
"396 183 OFFCURVE",
"330 262 CURVE SMOOTH",
"260 347 OFFCURVE",
"226 458 OFFCURVE",
"226 595 CURVE",
"885 595 LINE",
"885 714 OFFCURVE",
"851 808 OFFCURVE",
"784 878 CURVE SMOOTH",
"715 947 OFFCURVE",
"628 982 OFFCURVE",
"521 982 CURVE SMOOTH",
"389 982 OFFCURVE",
"283 935 OFFCURVE",
"200 844 CURVE SMOOTH",
"119 751 OFFCURVE",
"77 625 OFFCURVE",
"77 465 CURVE SMOOTH",
"77 317 OFFCURVE",
"119 199 OFFCURVE",
"199 107 CURVE SMOOTH",
"279 16 OFFCURVE",
"378 -31 OFFCURVE",
"493 -31 CURVE SMOOTH"
);
},
{
closed = 1;
nodes = (
"233 734 OFFCURVE",
"260 795 OFFCURVE",
"306 841 CURVE SMOOTH",
"350 885 OFFCURVE",
"402 908 OFFCURVE",
"462 908 CURVE SMOOTH",
"511 908 OFFCURVE",
"553 891 OFFCURVE",
"591 859 CURVE SMOOTH",
"642 814 OFFCURVE",
"668 745 OFFCURVE",
"668 654 CURVE",
"226 654 LINE"
);
}
);
vertWidth = 0;
width = 947;
}
);
note = "";
unicode = 0065;
},
{
glyphname = f;
layers = (
{
layerId = "D444198A-330D-4B37-A977-E225F0F0EE7C";
paths = (
{
closed = 1;
nodes = (
"658 0 LINE",
"658 39 LINE",
"572 39 LINE SMOOTH",
"525 39 OFFCURVE",
"492 54 OFFCURVE",
"469 84 CURVE",
"449 104 OFFCURVE",
"439 160 OFFCURVE",
"439 252 CURVE SMOOTH",
"439 878 LINE",
"685 878 LINE",
"685 954 LINE",
"439 954 LINE",
"439 1021 LINE SMOOTH",
"439 1168 OFFCURVE",
"448 1266 OFFCURVE",
"462 1311 CURVE SMOOTH",
"479 1371 OFFCURVE",
"519 1403 OFFCURVE",
"582 1403 CURVE SMOOTH",
"633 1403 OFFCURVE",
"682 1371 OFFCURVE",
"726 1308 CURVE SMOOTH",
"771 1247 OFFCURVE",
"809 1215 OFFCURVE",
"842 1215 CURVE SMOOTH",
"864 1215 OFFCURVE",
"884 1226 OFFCURVE",
"901 1244 CURVE SMOOTH",
"918 1264 OFFCURVE",
"927 1283 OFFCURVE",
"927 1301 CURVE SMOOTH",
"927 1348 OFFCURVE",
"898 1390 OFFCURVE",
"842 1426 CURVE SMOOTH",
"786 1461 OFFCURVE",
"726 1480 OFFCURVE",
"664 1480 CURVE SMOOTH",
"583 1480 OFFCURVE",
"509 1457 OFFCURVE",
"440 1410 CURVE SMOOTH",
"323 1331 OFFCURVE",
"265 1200 OFFCURVE",
"265 1017 CURVE SMOOTH",
"265 954 LINE",
"77 954 LINE",
"77 878 LINE",
"265 878 LINE",
"265 252 LINE SMOOTH",
"265 156 OFFCURVE",
"252 97 OFFCURVE",
"225 74 CURVE SMOOTH",
"197 50 OFFCURVE",
"166 39 OFFCURVE",
"127 39 CURVE SMOOTH",
"84 39 LINE",
"84 0 LINE"
);
}
);
vertWidth = 0;
width = 709;
}
);
note = "";
unicode = 0066;
},
{
glyphname = g;
layers = (
{
layerId = "D444198A-330D-4B37-A977-E225F0F0EE7C";
paths = (
{
closed = 1;
nodes = (
"629 -462 OFFCURVE",
"756 -423 OFFCURVE",
"864 -346 CURVE SMOOTH",
"964 -273 OFFCURVE",
"1015 -186 OFFCURVE",
"1015 -89 CURVE SMOOTH",
"1015 57 OFFCURVE",
"904 132 OFFCURVE",
"682 137 CURVE SMOOTH",
"529 142 OFFCURVE",
"433 146 OFFCURVE",
"393 150 CURVE SMOOTH",
"352 154 OFFCURVE",
"326 162 OFFCURVE",
"313 172 CURVE",
"302 183 OFFCURVE",
"295 196 OFFCURVE",
"295 212 CURVE SMOOTH",
"295 250 OFFCURVE",
"322 290 OFFCURVE",
"373 327 CURVE",
"419 315 OFFCURVE",
"468 307 OFFCURVE",
"519 307 CURVE SMOOTH",
"633 307 OFFCURVE",
"725 340 OFFCURVE",
"795 403 CURVE SMOOTH",
"862 465 OFFCURVE",
"895 539 OFFCURVE",
"894 629 CURVE SMOOTH",
"894 706 OFFCURVE",
"875 769 OFFCURVE",
"837 819 CURVE",
"960 819 LINE SMOOTH",
"990 819 OFFCURVE",
"1008 821 OFFCURVE",
"1015 828 CURVE SMOOTH",
"1024 835 OFFCURVE",
"1027 849 OFFCURVE",
"1027 869 CURVE SMOOTH",
"1027 895 OFFCURVE",
"1022 908 OFFCURVE",
"1012 911 CURVE",
"998 912 OFFCURVE",
"980 914 OFFCURVE",
"957 912 CURVE SMOOTH",
"921 909 OFFCURVE",
"891 908 OFFCURVE",
"867 908 CURVE SMOOTH",
"827 908 OFFCURVE",
"772 919 OFFCURVE",
"706 944 CURVE SMOOTH",
"641 968 OFFCURVE",
"578 980 OFFCURVE",
"521 980 CURVE SMOOTH",
"406 980 OFFCURVE",
"315 947 OFFCURVE",
"245 878 CURVE SMOOTH",
"176 811 OFFCURVE",
"142 731 OFFCURVE",
"142 638 CURVE SMOOTH",
"142 578 OFFCURVE",
"157 521 OFFCURVE",
"189 468 CURVE SMOOTH",
"220 415 OFFCURVE",
"265 375 OFFCURVE",
"322 349 CURVE",
"212 255 OFFCURVE",
"156 179 OFFCURVE",
"156 123 CURVE SMOOTH",
"156 89 OFFCURVE",
"189 50 OFFCURVE",
"255 9 CURVE",
"127 -119 OFFCURVE",
"63 -209 OFFCURVE",
"63 -263 CURVE SMOOTH",
"63 -312 OFFCURVE",
"107 -358 OFFCURVE",
"193 -399 CURVE SMOOTH",
"280 -440 OFFCURVE",
"376 -462 OFFCURVE",
"482 -462 CURVE SMOOTH"
);
},
{
closed = 1;
nodes = (
"468 -335 OFFCURVE",
"380 -320 OFFCURVE",
"313 -292 CURVE SMOOTH",
"247 -263 OFFCURVE",
"213 -226 OFFCURVE",
"213 -183 CURVE SMOOTH",
"213 -134 OFFCURVE",
"246 -74 OFFCURVE",
"312 0 CURVE",
"460 -13 OFFCURVE",
"581 -19 OFFCURVE",
"672 -23 CURVE SMOOTH",
"756 -26 OFFCURVE",
"811 -31 OFFCURVE",
"837 -37 CURVE SMOOTH",
"905 -51 OFFCURVE",
"940 -82 OFFCURVE",
"940 -127 CURVE SMOOTH",
"940 -182 OFFCURVE",
"909 -229 OFFCURVE",
"849 -269 CURVE SMOOTH",
"782 -312 OFFCURVE",
"691 -335 OFFCURVE",
"573 -335 CURVE SMOOTH"
);
},
{
closed = 1;
nodes = (
"465 359 OFFCURVE",
"415 389 OFFCURVE",
"378 448 CURVE SMOOTH",
"340 508 OFFCURVE",
"322 586 OFFCURVE",
"322 682 CURVE SMOOTH",
"322 765 OFFCURVE",
"340 828 OFFCURVE",
"375 871 CURVE SMOOTH",
"408 911 OFFCURVE",
"449 931 OFFCURVE",
"502 931 CURVE SMOOTH",
"566 931 OFFCURVE",
"618 901 OFFCURVE",
"654 841 CURVE SMOOTH",
"691 781 OFFCURVE",
"709 701 OFFCURVE",
"709 602 CURVE SMOOTH",
"709 440 OFFCURVE",
"649 359 OFFCURVE",
"531 359 CURVE SMOOTH"
);
}
);
vertWidth = 0;
width = 1065;
}
);
note = "";
unicode = 0067;
},
{
glyphname = h;
layers = (
{
layerId = "D444198A-330D-4B37-A977-E225F0F0EE7C";
paths = (
{
closed = 1;
nodes = (
"500 0 LINE",
"500 39 LINE",
"433 39 OFFCURVE",
"390 50 OFFCURVE",
"370 71 CURVE",
"356 90 OFFCURVE",
"349 130 OFFCURVE",
"349 194 CURVE SMOOTH",
"349 718 LINE",
"428 809 OFFCURVE",
"506 855 OFFCURVE",
"585 855 CURVE SMOOTH",
"656 855 OFFCURVE",
"704 821 OFFCURVE",
"724 751 CURVE SMOOTH",
"734 716 OFFCURVE",
"738 649 OFFCURVE",
"738 552 CURVE SMOOTH",
"738 194 LINE SMOOTH",
"738 130 OFFCURVE",
"728 89 OFFCURVE",
"708 69 CURVE SMOOTH",
"686 49 OFFCURVE",
"646 39 OFFCURVE",
"585 39 CURVE",
"585 0 LINE",
"1055 0 LINE",
"1055 39 LINE",
"992 39 OFFCURVE",
"954 51 OFFCURVE",
"935 76 CURVE SMOOTH",
"921 94 OFFCURVE",
"912 133 OFFCURVE",
"912 194 CURVE SMOOTH",
"912 552 LINE SMOOTH",
"912 682 OFFCURVE",
"902 778 OFFCURVE",
"879 837 CURVE SMOOTH",
"844 932 OFFCURVE",
"771 980 OFFCURVE",
"664 980 CURVE SMOOTH",
"541 980 OFFCURVE",
"436 914 OFFCURVE",
"349 784 CURVE",
"349 1480 LINE",
"299 1480 LINE",
"13 1366 LINE",
"29 1328 LINE",
"54 1340 OFFCURVE",
"80 1344 OFFCURVE",
"104 1344 CURVE SMOOTH",
"152 1344 OFFCURVE",
"174 1297 OFFCURVE",
"174 1201 CURVE SMOOTH",
"174 194 LINE SMOOTH",
"174 136 OFFCURVE",
"166 96 OFFCURVE",
"150 76 CURVE SMOOTH",
"130 51 OFFCURVE",
"90 39 OFFCURVE",
"29 39 CURVE",
"29 0 LINE"
);
}
);
vertWidth = 0;
width = 1065;
}
);
note = "";
unicode = 0068;
},
{
glyphname = i;
layers = (
{
layerId = "D444198A-330D-4B37-A977-E225F0F0EE7C";
paths = (
{
closed = 1;
nodes = (
"545 0 LINE",
"545 39 LINE",
"485 39 OFFCURVE",
"446 49 OFFCURVE",
"428 69 CURVE SMOOTH",
"409 89 OFFCURVE",
"400 130 OFFCURVE",
"400 194 CURVE SMOOTH",
"400 980 LINE",
"355 980 LINE",
"66 865 LINE",
"80 828 LINE",
"112 839 OFFCURVE",
"136 845 OFFCURVE",
"154 845 CURVE SMOOTH",
"202 845 OFFCURVE",
"226 798 OFFCURVE",
"226 705 CURVE SMOOTH",
"226 194 LINE SMOOTH",
"226 130 OFFCURVE",
"216 89 OFFCURVE",
"197 69 CURVE SMOOTH",
"179 49 OFFCURVE",
"140 39 OFFCURVE",
"80 39 CURVE",
"80 0 LINE"
);
},
{
closed = 1;
nodes = (
"343 1171 OFFCURVE",
"369 1181 OFFCURVE",
"389 1201 CURVE SMOOTH",
"409 1221 OFFCURVE",
"418 1247 OFFCURVE",
"418 1277 CURVE SMOOTH",
"418 1306 OFFCURVE",
"408 1330 OFFCURVE",
"388 1351 CURVE SMOOTH",
"368 1371 OFFCURVE",
"342 1381 OFFCURVE",
"313 1381 CURVE SMOOTH",
"285 1381 OFFCURVE",
"260 1371 OFFCURVE",
"239 1351 CURVE SMOOTH",
"217 1333 OFFCURVE",
"207 1307 OFFCURVE",
"207 1277 CURVE SMOOTH",
"207 1247 OFFCURVE",
"217 1221 OFFCURVE",
"237 1201 CURVE SMOOTH",
"259 1181 OFFCURVE",
"283 1171 OFFCURVE",
"313 1171 CURVE SMOOTH"
);
}
);
vertWidth = 0;
width = 592;
}
);
note = "";
unicode = 0069;
},
{
glyphname = j;
layers = (
{
layerId = "D444198A-330D-4B37-A977-E225F0F0EE7C";
paths = (
{
closed = 1;
nodes = (
"136 -462 OFFCURVE",
"227 -423 OFFCURVE",
"293 -345 CURVE SMOOTH",
"365 -260 OFFCURVE",
"400 -139 OFFCURVE",
"400 20 CURVE SMOOTH",
"400 980 LINE",
"355 980 LINE",
"66 865 LINE",
"77 828 LINE",
"134 848 OFFCURVE",
"173 848 OFFCURVE",
"194 831 CURVE SMOOTH",
"214 814 OFFCURVE",
"226 731 OFFCURVE",
"226 581 CURVE SMOOTH",
"226 -99 LINE SMOOTH",
"226 -192 OFFCURVE",
"223 -255 OFFCURVE",
"216 -287 CURVE SMOOTH",
"202 -347 OFFCURVE",
"173 -378 OFFCURVE",
"129 -378 CURVE SMOOTH",
"103 -378 OFFCURVE",
"76 -362 OFFCURVE",
"46 -332 CURVE SMOOTH",
"1 -289 OFFCURVE",
"-40 -266 OFFCURVE",
"-77 -266 CURVE SMOOTH",
"-102 -266 OFFCURVE",
"-122 -275 OFFCURVE",
"-139 -292 CURVE SMOOTH",
"-156 -309 OFFCURVE",
"-164 -330 OFFCURVE",
"-164 -356 CURVE SMOOTH",
"-162 -383 OFFCURVE",
"-146 -405 OFFCURVE",
"-119 -425 CURVE SMOOTH",
"-84 -449 OFFCURVE",
"-37 -462 OFFCURVE",
"23 -462 CURVE SMOOTH"
);
},
{
closed = 1;
nodes = (
"339 1171 OFFCURVE",
"365 1181 OFFCURVE",
"386 1203 CURVE SMOOTH",
"406 1224 OFFCURVE",
"416 1248 OFFCURVE",
"416 1277 CURVE SMOOTH",
"416 1306 OFFCURVE",
"405 1331 OFFCURVE",
"383 1351 CURVE SMOOTH",
"362 1373 OFFCURVE",
"337 1384 OFFCURVE",
"309 1384 CURVE SMOOTH",
"280 1384 OFFCURVE",
"256 1373 OFFCURVE",
"235 1351 CURVE SMOOTH",
"213 1331 OFFCURVE",
"203 1306 OFFCURVE",
"203 1277 CURVE SMOOTH",
"203 1247 OFFCURVE",
"213 1221 OFFCURVE",
"233 1201 CURVE SMOOTH",
"255 1181 OFFCURVE",
"279 1171 OFFCURVE",
"309 1171 CURVE SMOOTH"
);
}
);
vertWidth = 0;
width = 592;
}
);
note = "";
unicode = 006A;
},
{
glyphname = k;
layers = (
{
layerId = "D444198A-330D-4B37-A977-E225F0F0EE7C";
paths = (
{
closed = 1;
nodes = (
"502 0 LINE",
"502 39 LINE",
"435 39 OFFCURVE",
"392 50 OFFCURVE",
"373 74 CURVE SMOOTH",
"357 92 OFFCURVE",
"350 139 OFFCURVE",
"350 216 CURVE SMOOTH",
"350 526 LINE",
"642 157 LINE SMOOTH",
"674 117 OFFCURVE",
"686 86 OFFCURVE",
"679 63 CURVE",
"672 47 OFFCURVE",
"652 39 OFFCURVE",
"615 39 CURVE",
"615 0 LINE",
"1078 0 LINE",
"1078 39 LINE",
"1028 39 OFFCURVE",
"998 41 OFFCURVE",
"988 47 CURVE SMOOTH",
"950 69 OFFCURVE",
"924 86 OFFCURVE",
"911 99 CURVE SMOOTH",
"887 120 OFFCURVE",
"838 179 OFFCURVE",
"762 273 CURVE SMOOTH",
"512 585 LINE",
"762 808 LINE SMOOTH",
"808 848 OFFCURVE",
"849 877 OFFCURVE",
"885 892 CURVE SMOOTH",
"922 908 OFFCURVE",
"971 918 OFFCURVE",
"1030 921 CURVE",
"1030 954 LINE",
"615 954 LINE",
"615 921 LINE",
"664 917 OFFCURVE",
"689 898 OFFCURVE",
"689 867 CURVE SMOOTH",
"689 847 OFFCURVE",
"656 808 OFFCURVE",
"591 752 CURVE SMOOTH",
"350 549 LINE",
"350 1480 LINE",
"302 1480 LINE",
"14 1366 LINE",
"34 1328 LINE",
"61 1340 OFFCURVE",
"84 1344 OFFCURVE",
"103 1344 CURVE SMOOTH",
"119 1344 OFFCURVE",
"133 1340 OFFCURVE",
"144 1330 CURVE SMOOTH",
"156 1320 OFFCURVE",
"163 1301 OFFCURVE",
"167 1276 CURVE SMOOTH",
"170 1250 OFFCURVE",
"172 1183 OFFCURVE",
"172 1077 CURVE SMOOTH",
"172 209 LINE SMOOTH",
"172 136 OFFCURVE",
"163 89 OFFCURVE",
"144 69 CURVE SMOOTH",
"126 49 OFFCURVE",
"83 39 OFFCURVE",
"14 39 CURVE",
"14 0 LINE"
);
}
);
vertWidth = 0;
width = 1065;
}
);
note = "";
unicode = 006B;
},
{
glyphname = l;
layers = (
{
layerId = "D444198A-330D-4B37-A977-E225F0F0EE7C";
paths = (
{
closed = 1;
nodes = (
"548 0 LINE",
"548 39 LINE",
"482 39 OFFCURVE",
"440 51 OFFCURVE",
"422 74 CURVE SMOOTH",
"403 99 OFFCURVE",
"393 146 OFFCURVE",
"393 216 CURVE SMOOTH",
"393 1480 LINE",
"349 1480 LINE",
"61 1366 LINE",
"80 1328 LINE",
"126 1346 OFFCURVE",
"163 1347 OFFCURVE",
"190 1330 CURVE",
"202 1320 OFFCURVE",
"210 1303 OFFCURVE",
"213 1280 CURVE SMOOTH",
"217 1248 OFFCURVE",
"219 1181 OFFCURVE",
"219 1081 CURVE SMOOTH",
"219 216 LINE SMOOTH",
"219 144 OFFCURVE",
"210 97 OFFCURVE",
"192 74 CURVE SMOOTH",
"173 50 OFFCURVE",
"136 39 OFFCURVE",
"80 39 CURVE",
"80 0 LINE"
);
}
);
vertWidth = 0;
width = 592;
}
);
note = "";
unicode = 006C;
},
{
glyphname = m;
layers = (
{
layerId = "D444198A-330D-4B37-A977-E225F0F0EE7C";
paths = (
{
closed = 1;
nodes = (
"502 0 LINE",
"502 39 LINE",
"438 39 OFFCURVE",
"396 49 OFFCURVE",
"378 69 CURVE SMOOTH",
"357 89 OFFCURVE",
"349 137 OFFCURVE",
"349 216 CURVE SMOOTH",
"349 728 LINE",
"430 815 OFFCURVE",
"512 859 OFFCURVE",
"592 859 CURVE SMOOTH",
"701 859 OFFCURVE",
"755 782 OFFCURVE",
"755 628 CURVE SMOOTH",
"755 216 LINE SMOOTH",
"755 144 OFFCURVE",
"749 100 OFFCURVE",
"738 82 CURVE SMOOTH",
"719 53 OFFCURVE",
"672 39 OFFCURVE",
"599 39 CURVE",
"599 0 LINE",
"1083 0 LINE",
"1083 39 LINE",
"1012 39 OFFCURVE",
"970 51 OFFCURVE",
"951 76 CURVE SMOOTH",
"937 96 OFFCURVE",
"928 143 OFFCURVE",
"928 216 CURVE SMOOTH",
"928 728 LINE",
"1015 814 OFFCURVE",
"1097 857 OFFCURVE",
"1174 857 CURVE SMOOTH",
"1280 857 OFFCURVE",
"1333 781 OFFCURVE",
"1333 628 CURVE SMOOTH",
"1333 216 LINE SMOOTH",
"1333 144 OFFCURVE",
"1326 99 OFFCURVE",
"1311 77 CURVE SMOOTH",
"1293 51 OFFCURVE",
"1248 39 OFFCURVE",
"1178 39 CURVE",
"1178 0 LINE",
"1650 0 LINE",
"1650 39 LINE",
"1593 39 OFFCURVE",
"1554 50 OFFCURVE",
"1536 73 CURVE SMOOTH",
"1516 96 OFFCURVE",
"1507 143 OFFCURVE",
"1507 216 CURVE SMOOTH",
"1507 628 LINE SMOOTH",
"1507 862 OFFCURVE",
"1423 980 OFFCURVE",
"1254 980 CURVE SMOOTH",
"1198 980 OFFCURVE",
"1147 967 OFFCURVE",
"1101 941 CURVE SMOOTH",
"1048 911 OFFCURVE",
"988 857 OFFCURVE",
"921 779 CURVE",
"891 912 OFFCURVE",
"809 980 OFFCURVE",
"679 980 CURVE SMOOTH",
"628 980 OFFCURVE",
"579 968 OFFCURVE",
"535 942 CURVE SMOOTH",
"483 914 OFFCURVE",
"420 858 OFFCURVE",
"349 779 CURVE",
"349 980 LINE",
"303 980 LINE",
"14 865 LINE",
"31 828 LINE",
"61 839 OFFCURVE",
"84 845 OFFCURVE",
"103 845 CURVE SMOOTH",
"139 845 OFFCURVE",
"160 822 OFFCURVE",
"169 776 CURVE SMOOTH",
"172 754 OFFCURVE",
"174 688 OFFCURVE",
"174 581 CURVE SMOOTH",
"174 216 LINE SMOOTH",
"174 140 OFFCURVE",
"166 92 OFFCURVE",
"147 70 CURVE SMOOTH",
"130 50 OFFCURVE",
"92 39 OFFCURVE",
"31 39 CURVE",
"31 0 LINE"
);
}
);
vertWidth = 0;
width = 1659;
}
);
note = "";
unicode = 006D;
},
{
glyphname = n;
layers = (
{
layerId = "D444198A-330D-4B37-A977-E225F0F0EE7C";
paths = (
{
closed = 1;
nodes = (
"500 0 LINE",
"500 39 LINE",
"429 39 OFFCURVE",
"385 53 OFFCURVE",
"365 80 CURVE SMOOTH",
"352 99 OFFCURVE",
"345 144 OFFCURVE",
"345 216 CURVE SMOOTH",
"345 718 LINE",
"426 808 OFFCURVE",
"509 852 OFFCURVE",
"591 852 CURVE SMOOTH",
"645 852 OFFCURVE",
"684 834 OFFCURVE",
"706 795 CURVE SMOOTH",
"729 755 OFFCURVE",
"741 692 OFFCURVE",
"741 605 CURVE SMOOTH",
"741 216 LINE SMOOTH",
"741 140 OFFCURVE",
"732 92 OFFCURVE",
"715 70 CURVE SMOOTH",
"698 50 OFFCURVE",
"654 39 OFFCURVE",
"585 39 CURVE",
"585 0 LINE",
"1062 0 LINE",
"1062 39 LINE",
"997 39 OFFCURVE",
"954 53 OFFCURVE",
"935 82 CURVE SMOOTH",
"921 103 OFFCURVE",
"914 149 OFFCURVE",
"914 216 CURVE SMOOTH",
"914 623 LINE SMOOTH",
"914 861 OFFCURVE",
"831 980 OFFCURVE",
"664 980 CURVE SMOOTH",
"563 980 OFFCURVE",
"456 914 OFFCURVE",
"345 781 CURVE",
"345 980 LINE",
"302 980 LINE",
"10 865 LINE",
"27 828 LINE",
"79 849 OFFCURVE",
"116 849 OFFCURVE",
"139 831 CURVE SMOOTH",
"160 812 OFFCURVE",
"170 725 OFFCURVE",
"170 571 CURVE SMOOTH",
"170 216 LINE SMOOTH",
"170 142 OFFCURVE",
"162 93 OFFCURVE",
"143 71 CURVE SMOOTH",
"126 50 OFFCURVE",
"87 39 OFFCURVE",
"27 39 CURVE",
"27 0 LINE"
);
}
);
vertWidth = 0;
width = 1065;
}
);
note = "";
unicode = 006E;
},
{
glyphname = o;
layers = (
{
layerId = "D444198A-330D-4B37-A977-E225F0F0EE7C";
paths = (
{
closed = 1;
nodes = (
"669 -31 OFFCURVE",
"786 26 OFFCURVE",
"875 139 CURVE SMOOTH",
"954 240 OFFCURVE",
"992 359 OFFCURVE",
"992 493 CURVE SMOOTH",
"992 632 OFFCURVE",
"950 748 OFFCURVE",
"864 841 CURVE SMOOTH",
"776 934 OFFCURVE",
"666 980 OFFCURVE",
"533 980 CURVE SMOOTH",
"396 980 OFFCURVE",
"283 927 OFFCURVE",
"194 819 CURVE SMOOTH",
"113 721 OFFCURVE",
"71 602 OFFCURVE",
"71 468 CURVE SMOOTH",
"71 332 OFFCURVE",
"114 216 OFFCURVE",
"200 117 CURVE SMOOTH",
"286 19 OFFCURVE",
"393 -31 OFFCURVE",
"523 -31 CURVE SMOOTH"
);
},
{
closed = 1;
nodes = (
"478 46 OFFCURVE",
"403 96 OFFCURVE",
"346 197 CURVE SMOOTH",
"292 293 OFFCURVE",
"265 413 OFFCURVE",
"265 553 CURVE SMOOTH",
"265 679 OFFCURVE",
"290 774 OFFCURVE",
"342 838 CURVE SMOOTH",
"383 889 OFFCURVE",
"436 914 OFFCURVE",
"500 914 CURVE SMOOTH",
"591 914 OFFCURVE",
"662 867 OFFCURVE",
"716 772 CURVE SMOOTH",
"771 679 OFFCURVE",
"798 559 OFFCURVE",
"798 415 CURVE SMOOTH",
"798 169 OFFCURVE",
"721 46 OFFCURVE",
"566 46 CURVE SMOOTH"
);
}
);
vertWidth = 0;
width = 1065;
}
);
note = "";
unicode = 006F;
},
{
glyphname = p;
layers = (
{
layerId = "D444198A-330D-4B37-A977-E225F0F0EE7C";
paths = (
{
closed = 1;
nodes = (
"492 -458 LINE",
"492 -418 LINE",
"418 -416 OFFCURVE",
"373 -402 OFFCURVE",
"355 -379 CURVE SMOOTH",
"339 -359 OFFCURVE",
"330 -312 OFFCURVE",
"330 -233 CURVE SMOOTH",
"330 56 LINE",
"395 -1 OFFCURVE",
"470 -31 OFFCURVE",
"558 -31 CURVE SMOOTH",
"686 -31 OFFCURVE",
"791 23 OFFCURVE",
"874 129 CURVE SMOOTH",
"954 232 OFFCURVE",
"994 359 OFFCURVE",
"994 512 CURVE SMOOTH",
"994 646 OFFCURVE",
"961 758 OFFCURVE",
"894 847 CURVE SMOOTH",
"827 935 OFFCURVE",
"741 980 OFFCURVE",
"638 980 CURVE SMOOTH",
"521 980 OFFCURVE",
"418 905 OFFCURVE",
"330 755 CURVE",
"330 978 LINE",
"292 978 LINE",
"-6 859 LINE",
"6 824 LINE",
"57 845 OFFCURVE",
"94 845 OFFCURVE",
"119 828 CURVE SMOOTH",
"134 817 OFFCURVE",
"146 802 OFFCURVE",
"150 781 CURVE SMOOTH",
"153 766 OFFCURVE",
"154 729 OFFCURVE",
"154 672 CURVE SMOOTH",
"154 -230 LINE SMOOTH",
"154 -310 OFFCURVE",
"146 -362 OFFCURVE",
"129 -382 CURVE SMOOTH",
"112 -403 OFFCURVE",
"64 -416 OFFCURVE",
"-13 -418 CURVE",
"-13 -458 LINE"
);
},
{
closed = 1;
nodes = (
"496 33 OFFCURVE",
"449 47 OFFCURVE",
"410 77 CURVE SMOOTH",
"373 109 OFFCURVE",
"350 143 OFFCURVE",
"340 184 CURVE SMOOTH",
"333 212 OFFCURVE",
"330 263 OFFCURVE",
"330 336 CURVE SMOOTH",
"330 694 LINE",
"385 754 OFFCURVE",
"422 791 OFFCURVE",
"443 808 CURVE SMOOTH",
"480 838 OFFCURVE",
"516 852 OFFCURVE",
"553 852 CURVE SMOOTH",
"633 852 OFFCURVE",
"698 818 OFFCURVE",
"746 748 CURVE SMOOTH",
"801 671 OFFCURVE",
"828 561 OFFCURVE",
"828 415 CURVE SMOOTH",
"828 297 OFFCURVE",
"802 206 OFFCURVE",
"752 136 CURVE SMOOTH",
"702 67 OFFCURVE",
"635 33 OFFCURVE",
"553 33 CURVE SMOOTH"
);
}
);
vertWidth = 0;
width = 1065;
}
);
note = "";
unicode = 0070;
},
{
glyphname = q;
layers = (
{
layerId = "D444198A-330D-4B37-A977-E225F0F0EE7C";
paths = (
{
closed = 1;
nodes = (
"1070 -458 LINE",
"1070 -418 LINE",
"1004 -418 OFFCURVE",
"962 -408 OFFCURVE",
"942 -386 CURVE SMOOTH",
"924 -365 OFFCURVE",
"914 -319 OFFCURVE",
"914 -246 CURVE SMOOTH",
"914 980 LINE",
"878 980 LINE",
"827 950 OFFCURVE",
"786 928 OFFCURVE",
"758 914 CURVE",
"715 958 OFFCURVE",
"649 980 OFFCURVE",
"562 980 CURVE SMOOTH",
"420 980 OFFCURVE",
"303 928 OFFCURVE",
"210 827 CURVE SMOOTH",
"116 724 OFFCURVE",
"70 593 OFFCURVE",
"70 435 CURVE SMOOTH",
"70 293 OFFCURVE",
"107 180 OFFCURVE",
"183 93 CURVE SMOOTH",
"252 10 OFFCURVE",
"333 -31 OFFCURVE",
"426 -31 CURVE SMOOTH",
"526 -31 OFFCURVE",
"631 34 OFFCURVE",
"741 166 CURVE",
"741 -246 LINE SMOOTH",
"741 -322 OFFCURVE",
"731 -369 OFFCURVE",
"711 -389 CURVE SMOOTH",
"691 -409 OFFCURVE",
"648 -418 OFFCURVE",
"585 -418 CURVE",
"585 -458 LINE"
);
},
{
closed = 1;
nodes = (
"453 117 OFFCURVE",
"385 150 OFFCURVE",
"332 216 CURVE SMOOTH",
"275 286 OFFCURVE",
"246 385 OFFCURVE",
"246 511 CURVE SMOOTH",
"246 639 OFFCURVE",
"275 738 OFFCURVE",
"330 809 CURVE SMOOTH",
"380 875 OFFCURVE",
"448 908 OFFCURVE",
"529 908 CURVE SMOOTH",
"669 908 OFFCURVE",
"741 832 OFFCURVE",
"741 679 CURVE SMOOTH",
"741 230 LINE",
"674 154 OFFCURVE",
"605 117 OFFCURVE",
"535 117 CURVE SMOOTH"
);
}
);
vertWidth = 0;
width = 1065;
}
);
note = "";
unicode = 0071;
},
{
glyphname = r;
layers = (
{
layerId = "D444198A-330D-4B37-A977-E225F0F0EE7C";
paths = (
{
closed = 1;
nodes = (
"512 0 LINE",
"512 39 LINE",
"448 39 OFFCURVE",
"403 54 OFFCURVE",
"378 86 CURVE SMOOTH",
"355 113 OFFCURVE",
"345 159 OFFCURVE",
"345 222 CURVE SMOOTH",
"345 681 LINE",
"402 788 OFFCURVE",
"448 842 OFFCURVE",
"483 842 CURVE SMOOTH",
"498 842 OFFCURVE",
"519 831 OFFCURVE",
"549 805 CURVE SMOOTH",
"579 781 OFFCURVE",
"606 769 OFFCURVE",
"632 769 CURVE SMOOTH",
"658 769 OFFCURVE",
"679 779 OFFCURVE",
"698 798 CURVE SMOOTH",
"716 818 OFFCURVE",
"725 841 OFFCURVE",
"725 865 CURVE SMOOTH",
"725 898 OFFCURVE",
"712 925 OFFCURVE",
"686 947 CURVE SMOOTH",
"661 970 OFFCURVE",
"629 980 OFFCURVE",
"591 980 CURVE SMOOTH",
"506 980 OFFCURVE",
"423 909 OFFCURVE",
"345 766 CURVE",
"345 980 LINE",
"303 980 LINE",
"9 865 LINE",
"19 828 LINE",
"64 848 OFFCURVE",
"106 848 OFFCURVE",
"139 831 CURVE",
"160 805 OFFCURVE",
"170 724 OFFCURVE",
"170 585 CURVE SMOOTH",
"170 216 LINE SMOOTH",
"170 137 OFFCURVE",
"160 89 OFFCURVE",
"142 69 CURVE SMOOTH",
"123 49 OFFCURVE",
"82 39 OFFCURVE",
"19 39 CURVE",
"19 0 LINE"
);
}
);
vertWidth = 0;
width = 729;
}
);
note = "";
unicode = 0072;
},
{
glyphname = s;
layers = (
{
layerId = "D444198A-330D-4B37-A977-E225F0F0EE7C";
paths = (
{
closed = 1;
nodes = (
"522 -31 OFFCURVE",
"595 -4 OFFCURVE",
"659 50 CURVE SMOOTH",
"722 104 OFFCURVE",
"755 167 OFFCURVE",
"755 240 CURVE SMOOTH",
"755 362 OFFCURVE",
"681 456 OFFCURVE",
"535 525 CURVE SMOOTH",
"382 596 LINE SMOOTH",
"275 646 OFFCURVE",
"223 712 OFFCURVE",
"226 795 CURVE SMOOTH",
"229 879 OFFCURVE",
"290 921 OFFCURVE",
"410 921 CURVE SMOOTH",
"541 921 OFFCURVE",
"626 832 OFFCURVE",
"668 656 CURVE",
"704 656 LINE",
"704 980 LINE",
"668 980 LINE",
"656 955 OFFCURVE",
"641 942 OFFCURVE",
"621 942 CURVE SMOOTH",
"615 942 OFFCURVE",
"586 950 OFFCURVE",
"538 961 CURVE SMOOTH",
"488 974 OFFCURVE",
"448 980 OFFCURVE",
"415 980 CURVE SMOOTH",
"317 980 OFFCURVE",
"242 957 OFFCURVE",
"186 908 CURVE SMOOTH",
"132 861 OFFCURVE",
"104 799 OFFCURVE",
"104 725 CURVE SMOOTH",
"104 665 OFFCURVE",
"123 613 OFFCURVE",
"157 571 CURVE SMOOTH",
"193 526 OFFCURVE",
"260 479 OFFCURVE",
"360 428 CURVE SMOOTH",
"459 376 OFFCURVE",
"525 333 OFFCURVE",
"556 299 CURVE SMOOTH",
"586 265 OFFCURVE",
"602 223 OFFCURVE",
"601 174 CURVE SMOOTH",
"599 134 OFFCURVE",
"583 102 OFFCURVE",
"555 74 CURVE SMOOTH",
"525 46 OFFCURVE",
"486 33 OFFCURVE",
"436 33 CURVE SMOOTH",
"368 33 OFFCURVE",
"306 57 OFFCURVE",
"255 107 CURVE SMOOTH",
"199 160 OFFCURVE",
"162 233 OFFCURVE",
"143 326 CURVE",
"109 326 LINE",
"109 -14 LINE",
"143 -14 LINE",
"157 17 OFFCURVE",
"170 33 OFFCURVE",
"180 33 CURVE",
"193 31 OFFCURVE",
"230 20 OFFCURVE",
"293 -1 CURVE SMOOTH",
"349 -21 OFFCURVE",
"398 -31 OFFCURVE",
"436 -31 CURVE SMOOTH"
);
}
);
vertWidth = 0;
width = 831;
}
);
note = "";
unicode = 0073;
},
{
glyphname = t;
layers = (
{
layerId = "D444198A-330D-4B37-A977-E225F0F0EE7C";
paths = (
{
closed = 1;
nodes = (
"403 -31 OFFCURVE",
"448 -14 OFFCURVE",
"490 19 CURVE SMOOTH",
"539 57 OFFCURVE",
"573 109 OFFCURVE",
"595 174 CURVE",
"553 174 LINE",
"528 116 OFFCURVE",
"489 86 OFFCURVE",
"436 89 CURVE SMOOTH",
"373 90 OFFCURVE",
"342 143 OFFCURVE",
"342 246 CURVE SMOOTH",
"342 881 LINE",
"566 881 LINE",
"566 954 LINE",
"342 954 LINE",
"342 1267 LINE",
"312 1267 LINE",
"269 1170 OFFCURVE",
"230 1100 OFFCURVE",
"193 1055 CURVE SMOOTH",
"130 982 OFFCURVE",
"71 935 OFFCURVE",
"16 914 CURVE",
"16 881 LINE",
"169 881 LINE",
"169 222 LINE SMOOTH",
"169 53 OFFCURVE",
"232 -31 OFFCURVE",
"356 -31 CURVE SMOOTH"
);
}
);
vertWidth = 0;
width = 592;
}
);
note = "";
unicode = 0074;
},
{
glyphname = u;
layers = (
{
layerId = "D444198A-330D-4B37-A977-E225F0F0EE7C";
paths = (
{
closed = 1;
nodes = (
"456 -31 OFFCURVE",
"502 -17 OFFCURVE",
"548 10 CURVE SMOOTH",
"595 37 OFFCURVE",
"655 92 OFFCURVE",
"732 172 CURVE",
"732 -31 LINE",
"779 -31 LINE",
"1068 89 LINE",
"1054 124 LINE",
"1028 114 OFFCURVE",
"1000 109 OFFCURVE",
"970 109 CURVE SMOOTH",
"927 109 OFFCURVE",
"907 156 OFFCURVE",
"907 252 CURVE SMOOTH",
"907 954 LINE",
"578 954 LINE",
"578 914 LINE",
"635 912 OFFCURVE",
"675 904 OFFCURVE",
"695 888 CURVE SMOOTH",
"719 868 OFFCURVE",
"732 829 OFFCURVE",
"732 775 CURVE SMOOTH",
"732 233 LINE",
"642 143 OFFCURVE",
"562 99 OFFCURVE",
"493 99 CURVE SMOOTH",
"389 99 OFFCURVE",
"336 170 OFFCURVE",
"336 316 CURVE SMOOTH",
"336 954 LINE",
"0 954 LINE",
"0 914 LINE",
"63 914 OFFCURVE",
"106 905 OFFCURVE",
"129 885 CURVE SMOOTH",
"150 867 OFFCURVE",
"162 827 OFFCURVE",
"162 766 CURVE SMOOTH",
"162 340 LINE SMOOTH",
"162 93 OFFCURVE",
"245 -31 OFFCURVE",
"408 -31 CURVE SMOOTH"
);
}
);
vertWidth = 0;
width = 1065;
}
);
note = "";
unicode = 0075;
},
{
glyphname = v;
layers = (
{
layerId = "D444198A-330D-4B37-A977-E225F0F0EE7C";
paths = (
{
closed = 1;
nodes = (
"568 -31 LINE",
"907 789 LINE SMOOTH",
"925 835 OFFCURVE",
"947 871 OFFCURVE",
"970 894 CURVE",
"988 907 OFFCURVE",
"1014 912 OFFCURVE",
"1048 914 CURVE",
"1048 954 LINE",
"736 954 LINE",
"736 914 LINE",
"792 914 OFFCURVE",
"825 907 OFFCURVE",
"837 889 CURVE SMOOTH",
"848 872 OFFCURVE",
"844 834 OFFCURVE",
"819 776 CURVE SMOOTH",
"596 230 LINE",
"375 755 LINE SMOOTH",
"362 786 OFFCURVE",
"355 815 OFFCURVE",
"355 838 CURVE SMOOTH",
"355 889 OFFCURVE",
"382 914 OFFCURVE",
"436 914 CURVE SMOOTH",
"468 914 LINE",
"468 954 LINE",
"16 954 LINE",
"16 914 LINE",
"56 908 OFFCURVE",
"80 902 OFFCURVE",
"89 898 CURVE",
"127 874 OFFCURVE",
"159 832 OFFCURVE",
"183 776 CURVE SMOOTH",
"525 -31 LINE"
);
}
);
vertWidth = 0;
width = 1065;
}
);
note = "";
unicode = 0076;
},
{
glyphname = w;
layers = (
{
layerId = "D444198A-330D-4B37-A977-E225F0F0EE7C";
paths = (
{
closed = 1;
nodes = (
"511 -31 LINE",
"786 581 LINE",
"1025 -31 LINE",
"1068 -31 LINE",
"1386 794 LINE SMOOTH",
"1414 865 OFFCURVE",
"1459 907 OFFCURVE",
"1522 914 CURVE",
"1522 954 LINE",
"1220 954 LINE",
"1220 914 LINE",
"1287 914 OFFCURVE",
"1320 897 OFFCURVE",
"1320 861 CURVE SMOOTH",
"1320 841 OFFCURVE",
"1313 811 OFFCURVE",
"1297 771 CURVE SMOOTH",
"1098 246 LINE",
"881 794 LINE",
"875 804 OFFCURVE",
"871 817 OFFCURVE",
"871 831 CURVE SMOOTH",
"871 858 OFFCURVE",
"879 878 OFFCURVE",
"895 891 CURVE SMOOTH",
"912 904 OFFCURVE",
"947 911 OFFCURVE",
"1001 914 CURVE",
"1001 954 LINE",
"545 954 LINE",
"545 914 LINE",
"588 912 OFFCURVE",
"616 908 OFFCURVE",
"632 898 CURVE SMOOTH",
"661 879 OFFCURVE",
"682 851 OFFCURVE",
"696 812 CURVE SMOOTH",
"751 671 LINE",
"545 223 LINE",
"340 771 LINE SMOOTH",
"329 802 OFFCURVE",
"325 828 OFFCURVE",
"325 849 CURVE SMOOTH",
"325 869 OFFCURVE",
"330 885 OFFCURVE",
"342 895 CURVE",
"353 907 OFFCURVE",
"378 912 OFFCURVE",
"415 914 CURVE",
"415 954 LINE",
"13 954 LINE",
"13 914 LINE",
"57 907 OFFCURVE",
"89 892 OFFCURVE",
"107 874 CURVE SMOOTH",
"126 857 OFFCURVE",
"144 821 OFFCURVE",
"164 771 CURVE SMOOTH",
"472 -31 LINE"
);
}
);
vertWidth = 0;
width = 1540;
}
);
note = "";
unicode = 0077;
},
{
glyphname = x;
layers = (
{
layerId = "D444198A-330D-4B37-A977-E225F0F0EE7C";
paths = (
{
closed = 1;
nodes = (
"349 0 LINE",
"349 39 LINE",
"286 41 OFFCURVE",
"255 61 OFFCURVE",
"255 100 CURVE SMOOTH",
"255 117 OFFCURVE",
"260 132 OFFCURVE",
"270 146 CURVE SMOOTH",
"478 422 LINE",
"675 132 LINE SMOOTH",
"681 122 OFFCURVE",
"685 110 OFFCURVE",
"685 99 CURVE SMOOTH",
"685 59 OFFCURVE",
"654 39 OFFCURVE",
"591 39 CURVE",
"591 0 LINE",
"1041 0 LINE",
"1041 39 LINE",
"991 41 OFFCURVE",
"958 50 OFFCURVE",
"942 66 CURVE SMOOTH",
"901 109 OFFCURVE",
"859 159 OFFCURVE",
"818 217 CURVE SMOOTH",
"581 558 LINE",
"709 734 LINE SMOOTH",
"761 804 OFFCURVE",
"801 851 OFFCURVE",
"831 875 CURVE SMOOTH",
"861 899 OFFCURVE",
"897 912 OFFCURVE",
"940 914 CURVE",
"940 954 LINE",
"618 954 LINE",
"618 914 LINE",
"668 914 OFFCURVE",
"694 898 OFFCURVE",
"694 865 CURVE SMOOTH",
"694 852 OFFCURVE",
"688 841 OFFCURVE",
"681 831 CURVE SMOOTH",
"539 625 LINE",
"403 838 LINE SMOOTH",
"399 845 OFFCURVE",
"398 854 OFFCURVE",
"398 864 CURVE SMOOTH",
"398 899 OFFCURVE",
"425 917 OFFCURVE",
"478 914 CURVE",
"478 954 LINE",
"29 954 LINE",
"29 914 LINE",
"77 911 OFFCURVE",
"112 902 OFFCURVE",
"136 885 CURVE SMOOTH",
"164 865 OFFCURVE",
"204 819 OFFCURVE",
"255 746 CURVE SMOOTH",
"435 483 LINE",
"233 217 LINE SMOOTH",
"180 146 OFFCURVE",
"142 99 OFFCURVE",
"116 76 CURVE SMOOTH",
"90 53 OFFCURVE",
"64 40 OFFCURVE",
"37 39 CURVE",
"37 0 LINE"
);
}
);
vertWidth = 0;
width = 1065;
}
);
note = "";
unicode = 0078;
},
{
glyphname = y;
layers = (
{
layerId = "D444198A-330D-4B37-A977-E225F0F0EE7C";
paths = (
{
closed = 1;
nodes = (
"265 -462 OFFCURVE",
"325 -436 OFFCURVE",
"383 -386 CURVE SMOOTH",
"442 -336 OFFCURVE",
"489 -267 OFFCURVE",
"525 -180 CURVE SMOOTH",
"912 771 LINE SMOOTH",
"937 829 OFFCURVE",
"960 868 OFFCURVE",
"980 888 CURVE",
"997 902 OFFCURVE",
"1021 911 OFFCURVE",
"1054 914 CURVE",
"1054 954 LINE",
"744 954 LINE",
"744 914 LINE",
"792 914 OFFCURVE",
"821 907 OFFCURVE",
"832 892 CURVE SMOOTH",
"849 867 OFFCURVE",
"847 829 OFFCURVE",
"819 779 CURVE",
"606 252 LINE",
"375 732 LINE SMOOTH",
"352 779 OFFCURVE",
"340 818 OFFCURVE",
"340 845 CURVE SMOOTH",
"340 891 OFFCURVE",
"372 914 OFFCURVE",
"435 914 CURVE SMOOTH",
"458 914 LINE",
"458 954 LINE",
"13 954 LINE",
"13 914 LINE",
"56 911 OFFCURVE",
"94 889 OFFCURVE",
"127 851 CURVE SMOOTH",
"143 832 OFFCURVE",
"162 799 OFFCURVE",
"183 756 CURVE SMOOTH",
"525 39 LINE",
"458 -127 LINE SMOOTH",
"415 -232 OFFCURVE",
"368 -285 OFFCURVE",
"313 -285 CURVE SMOOTH",
"310 -285 OFFCURVE",
"290 -279 OFFCURVE",
"252 -266 CURVE SMOOTH",
"214 -255 OFFCURVE",
"186 -247 OFFCURVE",
"169 -247 CURVE SMOOTH",
"97 -247 OFFCURVE",
"61 -279 OFFCURVE",
"61 -342 CURVE SMOOTH",
"61 -375 OFFCURVE",
"74 -403 OFFCURVE",
"102 -426 CURVE SMOOTH",
"129 -449 OFFCURVE",
"162 -462 OFFCURVE",
"203 -462 CURVE SMOOTH"
);
}
);
vertWidth = 0;
width = 1065;
}
);
note = "";
unicode = 0079;
},
{
glyphname = z;
layers = (
{
layerId = "D444198A-330D-4B37-A977-E225F0F0EE7C";
paths = (
{
closed = 1;
nodes = (
"884 0 LINE",
"895 292 LINE",
"859 292 LINE",
"849 212 OFFCURVE",
"837 159 OFFCURVE",
"822 132 CURVE SMOOTH",
"814 116 OFFCURVE",
"797 102 OFFCURVE",
"769 89 CURVE SMOOTH",
"744 76 OFFCURVE",
"694 70 OFFCURVE",
"621 70 CURVE SMOOTH",
"273 70 LINE",
"912 914 LINE",
"912 954 LINE",
"113 954 LINE",
"107 689 LINE",
"147 689 LINE",
"157 786 OFFCURVE",
"184 847 OFFCURVE",
"230 867 CURVE",
"259 877 OFFCURVE",
"303 881 OFFCURVE",
"363 881 CURVE SMOOTH",
"676 881 LINE",
"43 39 LINE",
"43 0 LINE"
);
}
);
vertWidth = 0;
width = 947;
}
);
note = "";
unicode = 007A;
},
{
glyphname = braceleft;
layers = (
{
layerId = "D444198A-330D-4B37-A977-E225F0F0EE7C";
paths = (
{
closed = 1;
nodes = (
"805 -422 LINE",
"651 -385 OFFCURVE",
"573 -293 OFFCURVE",
"573 -147 CURVE SMOOTH",
"573 -114 OFFCURVE",
"582 -67 OFFCURVE",
"596 -6 CURVE SMOOTH",
"612 57 OFFCURVE",
"619 104 OFFCURVE",
"619 137 CURVE SMOOTH",
"619 316 OFFCURVE",
"525 440 OFFCURVE",
"335 511 CURVE",
"525 581 OFFCURVE",
"619 704 OFFCURVE",
"619 879 CURVE SMOOTH",
"619 912 OFFCURVE",
"612 961 OFFCURVE",
"596 1024 CURVE SMOOTH",
"582 1088 OFFCURVE",
"573 1135 OFFCURVE",
"573 1168 CURVE SMOOTH",
"573 1313 OFFCURVE",
"651 1404 OFFCURVE",
"805 1443 CURVE",
"805 1480 LINE",
"706 1469 OFFCURVE",
"616 1429 OFFCURVE",
"539 1356 CURVE SMOOTH",
"458 1278 OFFCURVE",
"418 1191 OFFCURVE",
"418 1095 CURVE SMOOTH",
"418 1054 OFFCURVE",
"426 995 OFFCURVE",
"442 919 CURVE SMOOTH",
"458 844 OFFCURVE",
"465 791 OFFCURVE",
"465 761 CURVE SMOOTH",
"465 701 OFFCURVE",
"438 649 OFFCURVE",
"383 605 CURVE SMOOTH",
"336 566 OFFCURVE",
"285 543 OFFCURVE",
"227 538 CURVE",
"227 483 LINE",
"285 478 OFFCURVE",
"336 453 OFFCURVE",
"383 415 CURVE SMOOTH",
"438 369 OFFCURVE",
"465 317 OFFCURVE",
"465 256 CURVE SMOOTH",
"465 227 OFFCURVE",
"458 177 OFFCURVE",
"442 106 CURVE SMOOTH",
"426 34 OFFCURVE",
"418 -21 OFFCURVE",
"418 -60 CURVE SMOOTH",
"418 -160 OFFCURVE",
"458 -250 OFFCURVE",
"535 -327 CURVE SMOOTH",
"613 -405 OFFCURVE",
"704 -448 OFFCURVE",
"805 -459 CURVE"
);
}
);
vertWidth = 0;
width = 1018;
}
);
note = "";
unicode = 007B;
},
{
glyphname = bar;
layers = (
{
layerId = "D444198A-330D-4B37-A977-E225F0F0EE7C";
paths = (
{
closed = 1;
nodes = (
"256 -462 LINE",
"256 1480 LINE",
"169 1480 LINE",
"169 -462 LINE"
);
}
);
vertWidth = 0;
width = 426;
}
);
note = "";
unicode = 007C;
},
{
glyphname = braceright;
layers = (
{
layerId = "D444198A-330D-4B37-A977-E225F0F0EE7C";
paths = (
{
closed = 1;
nodes = (
"316 -448 OFFCURVE",
"406 -405 OFFCURVE",
"483 -327 CURVE SMOOTH",
"562 -250 OFFCURVE",
"601 -160 OFFCURVE",
"601 -60 CURVE SMOOTH",
"601 -21 OFFCURVE",
"593 34 OFFCURVE",
"578 106 CURVE SMOOTH",
"562 177 OFFCURVE",
"553 227 OFFCURVE",
"553 256 CURVE SMOOTH",
"553 317 OFFCURVE",
"582 369 OFFCURVE",
"635 415 CURVE SMOOTH",
"682 453 OFFCURVE",
"734 478 OFFCURVE",
"791 483 CURVE",
"791 538 LINE",
"734 543 OFFCURVE",
"682 566 OFFCURVE",
"635 605 CURVE SMOOTH",
"581 649 OFFCURVE",
"553 701 OFFCURVE",
"553 761 CURVE SMOOTH",
"553 791 OFFCURVE",
"562 844 OFFCURVE",
"578 919 CURVE SMOOTH",
"593 995 OFFCURVE",
"601 1054 OFFCURVE",
"601 1095 CURVE SMOOTH",
"601 1191 OFFCURVE",
"561 1278 OFFCURVE",
"479 1356 CURVE SMOOTH",
"402 1429 OFFCURVE",
"313 1469 OFFCURVE",
"213 1480 CURVE",
"213 1443 LINE",
"368 1404 OFFCURVE",
"445 1313 OFFCURVE",
"445 1168 CURVE SMOOTH",
"445 1135 OFFCURVE",
"438 1088 OFFCURVE",
"422 1024 CURVE SMOOTH",
"408 961 OFFCURVE",
"400 912 OFFCURVE",
"400 879 CURVE SMOOTH",
"400 704 OFFCURVE",
"495 581 OFFCURVE",
"685 511 CURVE",
"495 440 OFFCURVE",
"400 316 OFFCURVE",
"400 137 CURVE SMOOTH",
"400 104 OFFCURVE",
"408 57 OFFCURVE",
"422 -6 CURVE SMOOTH",
"438 -67 OFFCURVE",
"445 -114 OFFCURVE",
"445 -147 CURVE SMOOTH",
"445 -293 OFFCURVE",
"368 -385 OFFCURVE",
"213 -422 CURVE",
"213 -459 LINE"
);
}
);
vertWidth = 0;
width = 1018;
}
);
note = "";
unicode = 007D;
},
{
glyphname = asciitilde;
layers = (
{
layerId = "D444198A-330D-4B37-A977-E225F0F0EE7C";
paths = (
{
closed = 1;
nodes = (
"137 449 OFFCURVE",
"167 493 OFFCURVE",
"189 516 CURVE SMOOTH",
"230 561 OFFCURVE",
"276 582 OFFCURVE",
"326 582 CURVE SMOOTH",
"375 582 OFFCURVE",
"456 556 OFFCURVE",
"571 505 CURVE SMOOTH",
"685 455 OFFCURVE",
"771 429 OFFCURVE",
"827 429 CURVE SMOOTH",
"941 429 OFFCURVE",
"1038 505 OFFCURVE",
"1120 656 CURVE",
"1060 734 LINE",
"998 611 OFFCURVE",
"924 549 OFFCURVE",
"837 549 CURVE SMOOTH",
"801 549 OFFCURVE",
"722 576 OFFCURVE",
"599 628 CURVE SMOOTH",
"476 681 OFFCURVE",
"388 708 OFFCURVE",
"336 708 CURVE SMOOTH",
"269 708 OFFCURVE",
"209 682 OFFCURVE",
"156 629 CURVE SMOOTH",
"122 595 OFFCURVE",
"83 539 OFFCURVE",
"41 462 CURVE",
"99 386 LINE"
);
}
);
vertWidth = 0;
width = 1160;
}
);
note = "";
unicode = 007E;
},
{
glyphname = exclamdown;
layers = (
{
layerId = "D444198A-330D-4B37-A977-E225F0F0EE7C";
paths = (
{
closed = 1;
nodes = (
"420 -459 OFFCURVE",
"473 -406 OFFCURVE",
"473 -313 CURVE SMOOTH",
"473 -297 OFFCURVE",
"471 -282 OFFCURVE",
"465 -232 CURVE SMOOTH",
"375 610 LINE",
"333 610 LINE",
"240 -232 LINE SMOOTH",
"236 -262 OFFCURVE",
"236 -287 OFFCURVE",
"236 -303 CURVE SMOOTH",
"236 -418 OFFCURVE",
"301 -459 OFFCURVE",
"352 -459 CURVE SMOOTH"
);
},
{
closed = 1;
nodes = (
"408 783 OFFCURVE",
"471 821 OFFCURVE",
"471 895 CURVE SMOOTH",
"471 979 OFFCURVE",
"401 1015 OFFCURVE",
"354 1015 CURVE SMOOTH",
"293 1015 OFFCURVE",
"240 962 OFFCURVE",
"240 895 CURVE SMOOTH",
"240 825 OFFCURVE",
"301 783 OFFCURVE",
"354 783 CURVE SMOOTH"
);
}
);
vertWidth = 0;
width = 709;
}
);
note = "";
unicode = 00A1;
},
{
glyphname = cent;
layers = (
{
layerId = "D444198A-330D-4B37-A977-E225F0F0EE7C";
paths = (
{
closed = 1;
nodes = (
"250 -393 LINE",
"321 -197 LINE SMOOTH",
"350 -119 OFFCURVE",
"369 -64 OFFCURVE",
"391 0 CURVE",
"436 -19 OFFCURVE",
"484 -31 OFFCURVE",
"537 -31 CURVE SMOOTH",
"722 -31 OFFCURVE",
"898 132 OFFCURVE",
"934 361 CURVE",
"905 377 LINE",
"822 179 OFFCURVE",
"726 135 OFFCURVE",
"610 135 CURVE SMOOTH",
"552 135 OFFCURVE",
"502 153 OFFCURVE",
"459 182 CURVE",
"690 819 LINE",
"694 810 OFFCURVE",
"696 799 OFFCURVE",
"696 786 CURVE",
"705 672 OFFCURVE",
"770 664 OFFCURVE",
"812 664 CURVE SMOOTH",
"878 664 OFFCURVE",
"910 704 OFFCURVE",
"910 752 CURVE SMOOTH",
"910 807 OFFCURVE",
"878 858 OFFCURVE",
"817 905 CURVE SMOOTH",
"794 925 OFFCURVE",
"768 941 OFFCURVE",
"739 952 CURVE",
"893 1379 LINE",
"819 1379 LINE",
"672 971 LINE",
"644 978 OFFCURVE",
"616 979 OFFCURVE",
"586 979 CURVE SMOOTH",
"338 979 OFFCURVE",
"131 777 OFFCURVE",
"131 475 CURVE SMOOTH",
"131 269 OFFCURVE",
"213 116 OFFCURVE",
"332 33 CURVE",
"175 -393 LINE"
);
},
{
closed = 1;
nodes = (
"335 315 OFFCURVE",
"301 437 OFFCURVE",
"301 565 CURVE SMOOTH",
"301 762 OFFCURVE",
"393 912 OFFCURVE",
"551 912 CURVE SMOOTH",
"591 912 OFFCURVE",
"617 903 OFFCURVE",
"641 890 CURVE",
"615 815 OFFCURVE",
"596 761 OFFCURVE",
"567 682 CURVE SMOOTH",
"480 443 LINE SMOOTH",
"439 328 OFFCURVE",
"404 236 OFFCURVE",
"403 236 CURVE"
);
}
);
vertWidth = 0;
width = 1066;
}
);
note = "";
unicode = 00A2;
},
{
glyphname = sterling;
layers = (
{
layerId = "D444198A-330D-4B37-A977-E225F0F0EE7C";
paths = (
{
closed = 1;
nodes = (
"289 -24 OFFCURVE",
"352 88 OFFCURVE",
"379 143 CURVE",
"526 35 OFFCURVE",
"586 -24 OFFCURVE",
"717 -24 CURVE SMOOTH",
"901 -24 OFFCURVE",
"998 156 OFFCURVE",
"1017 315 CURVE",
"977 326 LINE",
"962 266 OFFCURVE",
"924 158 OFFCURVE",
"758 158 CURVE SMOOTH",
"659 158 OFFCURVE",
"555 199 OFFCURVE",
"420 244 CURVE",
"500 453 OFFCURVE",
"483 637 OFFCURVE",
"483 686 CURVE",
"752 686 LINE",
"752 785 LINE",
"483 785 LINE",
"481 808 OFFCURVE",
"461 998 OFFCURVE",
"461 1090 CURVE SMOOTH",
"461 1312 OFFCURVE",
"541 1383 OFFCURVE",
"650 1383 CURVE SMOOTH",
"739 1383 OFFCURVE",
"776 1326 OFFCURVE",
"776 1263 CURVE SMOOTH",
"776 1177 OFFCURVE",
"815 1141 OFFCURVE",
"859 1141 CURVE SMOOTH",
"899 1141 OFFCURVE",
"939 1186 OFFCURVE",
"939 1228 CURVE SMOOTH",
"939 1334 OFFCURVE",
"837 1441 OFFCURVE",
"677 1441 CURVE SMOOTH",
"500 1441 OFFCURVE",
"289 1301 OFFCURVE",
"289 992 CURVE SMOOTH",
"289 956 OFFCURVE",
"297 890 OFFCURVE",
"303 785 CURVE",
"101 785 LINE",
"101 686 LINE",
"303 686 LINE",
"317 518 OFFCURVE",
"332 369 OFFCURVE",
"322 262 CURVE",
"303 266 OFFCURVE",
"276 270 OFFCURVE",
"232 270 CURVE SMOOTH",
"175 270 OFFCURVE",
"63 242 OFFCURVE",
"63 109 CURVE SMOOTH",
"63 44 OFFCURVE",
"95 -24 OFFCURVE",
"184 -24 CURVE SMOOTH"
);
},
{
closed = 1;
nodes = (
"156 37 OFFCURVE",
"122 59 OFFCURVE",
"122 117 CURVE SMOOTH",
"122 168 OFFCURVE",
"156 206 OFFCURVE",
"221 206 CURVE SMOOTH",
"266 206 OFFCURVE",
"297 188 OFFCURVE",
"310 177 CURVE",
"289 92 OFFCURVE",
"248 37 OFFCURVE",
"193 37 CURVE SMOOTH"
);
}
);
vertWidth = 0;
width = 1066;
}
);
note = "";
unicode = 00A3;
},
{
glyphname = currency;
layers = (
{
layerId = "D444198A-330D-4B37-A977-E225F0F0EE7C";
paths = (
{
closed = 1;
nodes = (
"493 868 LINE",
"579 794 OFFCURVE",
"688 758 OFFCURVE",
"805 758 CURVE SMOOTH",
"912 758 OFFCURVE",
"1023 795 OFFCURVE",
"1107 868 CURVE",
"1349 626 LINE",
"1433 711 LINE",
"1191 952 LINE",
"1261 1037 OFFCURVE",
"1294 1144 OFFCURVE",
"1294 1254 CURVE SMOOTH",
"1294 1364 OFFCURVE",
"1254 1481 OFFCURVE",
"1188 1564 CURVE",
"1433 1808 LINE",
"1349 1892 LINE",
"1100 1643 LINE",
"1020 1712 OFFCURVE",
"912 1749 OFFCURVE",
"805 1749 CURVE SMOOTH",
"695 1749 OFFCURVE",
"582 1713 OFFCURVE",
"498 1646 CURVE",
"252 1892 LINE",
"167 1808 LINE",
"413 1562 LINE",
"339 1480 OFFCURVE",
"306 1360 OFFCURVE",
"306 1253 CURVE SMOOTH",
"306 1143 OFFCURVE",
"340 1037 OFFCURVE",
"409 952 CURVE",
"167 711 LINE",
"252 626 LINE"
);
},
{
closed = 1;
nodes = (
"604 891 OFFCURVE",
"439 1051 OFFCURVE",
"439 1253 CURVE SMOOTH",
"439 1456 OFFCURVE",
"601 1616 OFFCURVE",
"805 1616 CURVE SMOOTH",
"1001 1616 OFFCURVE",
"1161 1449 OFFCURVE",
"1161 1254 CURVE SMOOTH",
"1161 1058 OFFCURVE",
"1004 891 OFFCURVE",
"805 891 CURVE SMOOTH"
);
}
);
vertWidth = 0;
width = 1600;
}
);
note = "";
unicode = 00A4;
},
{
glyphname = yen;
layers = (
{
layerId = "D444198A-330D-4B37-A977-E225F0F0EE7C";
paths = (
{
closed = 1;
nodes = (
"799 0 LINE",
"799 42 LINE",
"757 42 LINE SMOOTH",
"723 42 OFFCURVE",
"672 55 OFFCURVE",
"647 84 CURVE SMOOTH",
"621 115 OFFCURVE",
"621 175 OFFCURVE",
"621 253 CURVE SMOOTH",
"621 367 LINE",
"1045 367 LINE",
"1045 442 LINE",
"621 442 LINE",
"621 610 LINE",
"629 629 LINE",
"1045 629 LINE",
"1045 705 LINE",
"659 705 LINE",
"886 1211 LINE SMOOTH",
"916 1279 OFFCURVE",
"946 1323 OFFCURVE",
"973 1346 CURVE SMOOTH",
"994 1365 OFFCURVE",
"1023 1372 OFFCURVE",
"1066 1372 CURVE",
"1066 1410 LINE",
"705 1410 LINE",
"705 1372 LINE",
"745 1370 OFFCURVE",
"774 1367 OFFCURVE",
"799 1350 CURVE SMOOTH",
"838 1323 OFFCURVE",
"813 1264 OFFCURVE",
"799 1230 CURVE SMOOTH",
"578 705 LINE",
"356 1245 LINE",
"344 1279 OFFCURVE",
"313 1316 OFFCURVE",
"359 1346 CURVE SMOOTH",
"388 1365 OFFCURVE",
"413 1369 OFFCURVE",
"463 1372 CURVE",
"463 1410 LINE",
"2 1410 LINE",
"2 1372 LINE",
"40 1369 OFFCURVE",
"71 1361 OFFCURVE",
"95 1340 CURVE",
"122 1321 OFFCURVE",
"146 1281 OFFCURVE",
"172 1222 CURVE SMOOTH",
"393 705 LINE",
"19 705 LINE",
"19 629 LINE",
"428 629 LINE",
"442 592 LINE",
"442 442 LINE",
"19 442 LINE",
"19 367 LINE",
"442 367 LINE",
"442 253 LINE SMOOTH",
"442 182 OFFCURVE",
"444 111 OFFCURVE",
"422 86 CURVE SMOOTH",
"391 50 OFFCURVE",
"344 42 OFFCURVE",
"297 42 CURVE SMOOTH",
"262 42 LINE",
"262 0 LINE"
);
}
);
vertWidth = 0;
width = 1066;
}
);
note = "";
unicode = 00A5;
},
{
glyphname = brokenbar;
layers = (
{
layerId = "D444198A-330D-4B37-A977-E225F0F0EE7C";
paths = (
{
closed = 1;
nodes = (
"405 688 LINE",
"405 1508 LINE",
"301 1508 LINE",
"301 688 LINE"
);
},
{
closed = 1;
nodes = (
"405 -406 LINE",
"405 413 LINE",
"301 413 LINE",
"301 -406 LINE"
);
}
);
vertWidth = 0;
width = 707;
}
);
note = "";
unicode = 00A6;
},
{
glyphname = section;
layers = (
{
layerId = "D444198A-330D-4B37-A977-E225F0F0EE7C";
paths = (
{
closed = 1;
nodes = (
"664 -416 OFFCURVE",
"801 -297 OFFCURVE",
"801 -119 CURVE SMOOTH",
"801 12 OFFCURVE",
"721 93 OFFCURVE",
"674 145 CURVE",
"755 195 OFFCURVE",
"903 308 OFFCURVE",
"903 500 CURVE SMOOTH",
"903 705 OFFCURVE",
"700 846 OFFCURVE",
"563 950 CURVE SMOOTH",
"463 1026 OFFCURVE",
"377 1095 OFFCURVE",
"377 1214 CURVE SMOOTH",
"377 1308 OFFCURVE",
"444 1396 OFFCURVE",
"557 1396 CURVE SMOOTH",
"631 1396 OFFCURVE",
"672 1353 OFFCURVE",
"672 1296 CURVE SMOOTH",
"672 1264 OFFCURVE",
"657 1217 OFFCURVE",
"657 1197 CURVE SMOOTH",
"657 1159 OFFCURVE",
"690 1116 OFFCURVE",
"739 1116 CURVE SMOOTH",
"785 1116 OFFCURVE",
"821 1154 OFFCURVE",
"821 1211 CURVE SMOOTH",
"821 1355 OFFCURVE",
"692 1441 OFFCURVE",
"557 1441 CURVE SMOOTH",
"446 1441 OFFCURVE",
"262 1350 OFFCURVE",
"262 1148 CURVE SMOOTH",
"262 1019 OFFCURVE",
"348 928 OFFCURVE",
"391 877 CURVE",
"313 829 OFFCURVE",
"162 713 OFFCURVE",
"162 524 CURVE SMOOTH",
"162 359 OFFCURVE",
"284 232 OFFCURVE",
"481 88 CURVE SMOOTH",
"572 22 OFFCURVE",
"694 -71 OFFCURVE",
"694 -204 CURVE SMOOTH",
"694 -284 OFFCURVE",
"608 -375 OFFCURVE",
"512 -375 CURVE SMOOTH",
"455 -375 OFFCURVE",
"386 -348 OFFCURVE",
"386 -295 CURVE SMOOTH",
"386 -266 OFFCURVE",
"406 -209 OFFCURVE",
"406 -179 CURVE SMOOTH",
"406 -153 OFFCURVE",
"388 -90 OFFCURVE",
"326 -90 CURVE SMOOTH",
"289 -90 OFFCURVE",
"246 -120 OFFCURVE",
"246 -182 CURVE SMOOTH",
"246 -335 OFFCURVE",
"386 -416 OFFCURVE",
"504 -416 CURVE SMOOTH"
);
},
{
closed = 1;
nodes = (
"565 257 OFFCURVE",
"388 342 OFFCURVE",
"306 479 CURVE SMOOTH",
"202 653 OFFCURVE",
"322 783 OFFCURVE",
"426 844 CURVE",
"463 803 OFFCURVE",
"679 662 OFFCURVE",
"752 546 CURVE SMOOTH",
"865 367 OFFCURVE",
"745 242 OFFCURVE",
"639 173 CURVE"
);
}
);
vertWidth = 0;
width = 1066;
}
);
note = "";
unicode = 00A7;
},
{
glyphname = copyright;
layers = (
{
layerId = "D444198A-330D-4B37-A977-E225F0F0EE7C";
paths = (
{
closed = 1;
nodes = (
"1217 -33 OFFCURVE",
"1549 289 OFFCURVE",
"1549 705 CURVE SMOOTH",
"1549 1119 OFFCURVE",
"1226 1443 OFFCURVE",
"810 1443 CURVE SMOOTH",
"444 1443 OFFCURVE",
"71 1165 OFFCURVE",
"71 705 CURVE SMOOTH",
"71 282 OFFCURVE",
"403 -33 OFFCURVE",
"810 -33 CURVE SMOOTH"
);
},
{
closed = 1;
nodes = (
"988 236 OFFCURVE",
"1116 308 OFFCURVE",
"1212 446 CURVE",
"1175 469 LINE",
"1095 356 OFFCURVE",
"988 301 OFFCURVE",
"850 301 CURVE SMOOTH",
"643 301 OFFCURVE",
"504 439 OFFCURVE",
"504 730 CURVE SMOOTH",
"504 973 OFFCURVE",
"629 1133 OFFCURVE",
"840 1133 CURVE SMOOTH",
"1059 1133 OFFCURVE",
"1129 970 OFFCURVE",
"1156 890 CURVE",
"1194 890 LINE",
"1175 1181 LINE",
"1133 1181 LINE",
"1125 1161 OFFCURVE",
"1121 1133 OFFCURVE",
"1081 1133 CURVE SMOOTH",
"1041 1133 OFFCURVE",
"983 1181 OFFCURVE",
"850 1181 CURVE SMOOTH",
"582 1181 OFFCURVE",
"332 1006 OFFCURVE",
"332 698 CURVE SMOOTH",
"332 424 OFFCURVE",
"553 236 OFFCURVE",
"813 236 CURVE SMOOTH"
);
},
{
closed = 1;
nodes = (
"446 33 OFFCURVE",
"137 317 OFFCURVE",
"137 705 CURVE SMOOTH",
"137 1121 OFFCURVE",
"479 1379 OFFCURVE",
"810 1379 CURVE SMOOTH",
"1181 1379 OFFCURVE",
"1484 1083 OFFCURVE",
"1484 705 CURVE SMOOTH",
"1484 313 OFFCURVE",
"1167 33 OFFCURVE",
"810 33 CURVE SMOOTH"
);
}
);
vertWidth = 0;
width = 1619;
}
);
note = "";
unicode = 00A9;
},
{
glyphname = ordfeminine;
layers = (
{
layerId = "D444198A-330D-4B37-A977-E225F0F0EE7C";
paths = (
{
closed = 1;
nodes = (
"289 827 OFFCURVE",
"313 842 OFFCURVE",
"434 920 CURVE",
"434 848 OFFCURVE",
"471 827 OFFCURVE",
"514 827 CURVE SMOOTH",
"567 827 OFFCURVE",
"621 859 OFFCURVE",
"677 920 CURVE",
"677 956 LINE",
"624 910 OFFCURVE",
"612 905 OFFCURVE",
"596 905 CURVE SMOOTH",
"575 905 OFFCURVE",
"565 914 OFFCURVE",
"563 937 CURVE",
"559 948 OFFCURVE",
"559 983 OFFCURVE",
"559 1036 CURVE SMOOTH",
"559 1232 LINE SMOOTH",
"559 1350 OFFCURVE",
"528 1425 OFFCURVE",
"330 1425 CURVE SMOOTH",
"199 1425 OFFCURVE",
"80 1372 OFFCURVE",
"80 1283 CURVE SMOOTH",
"80 1245 OFFCURVE",
"101 1224 OFFCURVE",
"143 1224 CURVE SMOOTH",
"179 1224 OFFCURVE",
"206 1245 OFFCURVE",
"204 1283 CURVE SMOOTH",
"202 1319 LINE",
"206 1359 OFFCURVE",
"244 1390 OFFCURVE",
"305 1390 CURVE SMOOTH",
"393 1390 OFFCURVE",
"434 1350 OFFCURVE",
"434 1239 CURVE SMOOTH",
"434 1217 LINE",
"109 1123 OFFCURVE",
"53 1057 OFFCURVE",
"53 973 CURVE SMOOTH",
"53 886 OFFCURVE",
"119 827 OFFCURVE",
"217 827 CURVE SMOOTH"
);
},
{
closed = 1;
nodes = (
"664 680 LINE",
"664 725 LINE",
"61 725 LINE",
"61 680 LINE"
);
},
{
closed = 1;
nodes = (
"226 899 OFFCURVE",
"179 945 OFFCURVE",
"179 1001 CURVE SMOOTH",
"179 1057 OFFCURVE",
"202 1104 OFFCURVE",
"434 1181 CURVE",
"434 962 LINE",
"373 920 OFFCURVE",
"322 895 OFFCURVE",
"284 897 CURVE SMOOTH"
);
}
);
vertWidth = 0;
width = 679;
}
);
note = "";
unicode = 00AA;
},
{
glyphname = guillemotleft;
layers = (
{
layerId = "D444198A-330D-4B37-A977-E225F0F0EE7C";
paths = (
{
closed = 1;
nodes = (
"998 -8 LINE",
"743 483 LINE",
"998 971 LINE",
"939 971 LINE",
"528 483 LINE",
"939 -8 LINE"
);
},
{
closed = 1;
nodes = (
"526 -8 LINE",
"272 483 LINE",
"526 971 LINE",
"469 971 LINE",
"66 483 LINE",
"469 -8 LINE"
);
}
);
vertWidth = 0;
width = 1066;
}
);
note = "";
unicode = 00AB;
},
{
glyphname = logicalnot;
layers = (
{
layerId = "D444198A-330D-4B37-A977-E225F0F0EE7C";
paths = (
{
closed = 1;
nodes = (
"1420 621 LINE",
"1420 1163 LINE",
"154 1163 LINE",
"154 1022 LINE",
"1278 1022 LINE",
"1278 621 LINE"
);
}
);
vertWidth = 0;
width = 1573;
}
);
note = "";
unicode = 00AC;
},
{
glyphname = uni00AD;
layers = (
{
layerId = "D444198A-330D-4B37-A977-E225F0F0EE7C";
paths = (
{
closed = 1;
nodes = (
"623 398 LINE",
"623 556 LINE",
"86 556 LINE",
"86 398 LINE"
);
}
);
vertWidth = 0;
width = 709;
}
);
note = "";
unicode = 00AD;
},
{
glyphname = registered;
layers = (
{
layerId = "D444198A-330D-4B37-A977-E225F0F0EE7C";
paths = (
{
closed = 1;
nodes = (
"1217 -33 OFFCURVE",
"1549 289 OFFCURVE",
"1549 705 CURVE SMOOTH",
"1549 1119 OFFCURVE",
"1226 1443 OFFCURVE",
"810 1443 CURVE SMOOTH",
"444 1443 OFFCURVE",
"71 1165 OFFCURVE",
"71 705 CURVE SMOOTH",
"71 282 OFFCURVE",
"403 -33 OFFCURVE",
"810 -33 CURVE SMOOTH"
);
},
{
closed = 1;
nodes = (
"446 33 OFFCURVE",
"137 317 OFFCURVE",
"137 705 CURVE SMOOTH",
"137 1121 OFFCURVE",
"479 1379 OFFCURVE",
"810 1379 CURVE SMOOTH",
"1181 1379 OFFCURVE",
"1484 1083 OFFCURVE",
"1484 705 CURVE SMOOTH",
"1484 313 OFFCURVE",
"1167 33 OFFCURVE",
"810 33 CURVE SMOOTH"
);
},
{
closed = 1;
nodes = (
"770 260 LINE",
"770 295 LINE",
"725 295 OFFCURVE",
"692 299 OFFCURVE",
"679 308 CURVE SMOOTH",
"664 319 OFFCURVE",
"647 335 OFFCURVE",
"647 358 CURVE SMOOTH",
"647 680 LINE",
"728 680 LINE",
"1032 260 LINE",
"1226 260 LINE",
"1226 295 LINE",
"1201 297 OFFCURVE",
"1183 301 OFFCURVE",
"1170 308 CURVE",
"1148 324 OFFCURVE",
"1127 344 OFFCURVE",
"1099 385 CURVE SMOOTH",
"884 694 LINE",
"966 715 OFFCURVE",
"1112 770 OFFCURVE",
"1112 926 CURVE SMOOTH",
"1112 1053 OFFCURVE",
"1001 1159 OFFCURVE",
"803 1159 CURVE SMOOTH",
"401 1159 LINE",
"401 1121 LINE",
"432 1121 OFFCURVE",
"455 1116 OFFCURVE",
"466 1108 CURVE SMOOTH",
"481 1099 OFFCURVE",
"489 1085 OFFCURVE",
"494 1072 CURVE",
"496 1063 OFFCURVE",
"496 1032 OFFCURVE",
"496 979 CURVE SMOOTH",
"496 436 LINE SMOOTH",
"496 383 OFFCURVE",
"496 342 OFFCURVE",
"479 322 CURVE SMOOTH",
"459 295 OFFCURVE",
"422 295 OFFCURVE",
"388 295 CURVE",
"388 260 LINE"
);
},
{
closed = 1;
nodes = (
"647 1099 LINE",
"680 1108 OFFCURVE",
"709 1112 OFFCURVE",
"735 1112 CURVE SMOOTH",
"866 1112 OFFCURVE",
"946 1019 OFFCURVE",
"946 914 CURVE SMOOTH",
"946 730 OFFCURVE",
"737 725 OFFCURVE",
"647 725 CURVE"
);
}
);
vertWidth = 0;
width = 1619;
}
);
note = "";
unicode = 00AE;
},
{
glyphname = macron;
layers = (
{
layerId = "D444198A-330D-4B37-A977-E225F0F0EE7C";
paths = (
{
closed = 1;
nodes = (
"668 1170 LINE",
"668 1285 LINE",
"0 1285 LINE",
"0 1170 LINE"
);
}
);
vertWidth = 0;
width = 668;
}
);
note = "";
unicode = 00AF;
},
{
glyphname = degree;
layers = (
{
layerId = "D444198A-330D-4B37-A977-E225F0F0EE7C";
paths = (
{
closed = 1;
nodes = (
"942 1529 OFFCURVE",
"1057 1643 OFFCURVE",
"1057 1786 CURVE SMOOTH",
"1057 1929 OFFCURVE",
"942 2045 OFFCURVE",
"799 2045 CURVE SMOOTH",
"656 2045 OFFCURVE",
"542 1929 OFFCURVE",
"542 1786 CURVE SMOOTH",
"542 1643 OFFCURVE",
"656 1529 OFFCURVE",
"799 1529 CURVE SMOOTH"
);
},
{
closed = 1;
nodes = (
"708 1623 OFFCURVE",
"636 1695 OFFCURVE",
"636 1786 CURVE SMOOTH",
"636 1878 OFFCURVE",
"708 1951 OFFCURVE",
"799 1951 CURVE SMOOTH",
"891 1951 OFFCURVE",
"964 1878 OFFCURVE",
"964 1786 CURVE SMOOTH",
"964 1695 OFFCURVE",
"891 1623 OFFCURVE",
"799 1623 CURVE SMOOTH"
);
}
);
vertWidth = 0;
width = 1600;
}
);
note = "";
unicode = 00B0;
},
{
glyphname = plusminus;
layers = (
{
layerId = "D444198A-330D-4B37-A977-E225F0F0EE7C";
paths = (
{
closed = 1;
nodes = (
"1087 365 LINE",
"1087 733 LINE",
"1639 733 LINE",
"1639 861 LINE",
"1087 861 LINE",
"1087 1230 LINE",
"962 1230 LINE",
"962 861 LINE",
"410 861 LINE",
"410 733 LINE",
"962 733 LINE",
"962 365 LINE"
);
},
{
closed = 1;
nodes = (
"1639 0 LINE",
"1639 126 LINE",
"410 126 LINE",
"410 0 LINE"
);
}
);
vertWidth = 0;
width = 2049;
}
);
note = "";
unicode = 00B1;
},
{
glyphname = uni00B2;
layers = (
{
layerId = "D444198A-330D-4B37-A977-E225F0F0EE7C";
paths = (
{
closed = 1;
nodes = (
"607 806 LINE",
"676 961 LINE",
"651 961 LINE",
"605 909 OFFCURVE",
"589 897 OFFCURVE",
"442 897 CURVE SMOOTH",
"186 897 LINE",
"215 920 OFFCURVE",
"290 985 OFFCURVE",
"408 1094 CURVE SMOOTH",
"489 1166 OFFCURVE",
"617 1295 OFFCURVE",
"617 1423 CURVE SMOOTH",
"617 1557 OFFCURVE",
"477 1638 OFFCURVE",
"337 1638 CURVE SMOOTH",
"122 1638 OFFCURVE",
"73 1482 OFFCURVE",
"61 1407 CURVE",
"87 1407 LINE",
"105 1452 OFFCURVE",
"164 1546 OFFCURVE",
"299 1546 CURVE SMOOTH",
"361 1546 OFFCURVE",
"493 1508 OFFCURVE",
"493 1368 CURVE SMOOTH",
"493 1301 OFFCURVE",
"457 1226 OFFCURVE",
"391 1145 CURVE SMOOTH",
"321 1062 OFFCURVE",
"199 958 OFFCURVE",
"32 828 CURVE",
"32 806 LINE"
);
}
);
vertWidth = 0;
width = 737;
}
);
note = "";
unicode = 00B2;
},
{
glyphname = uni00B3;
layers = (
{
layerId = "D444198A-330D-4B37-A977-E225F0F0EE7C";
paths = (
{
closed = 1;
nodes = (
"467 792 OFFCURVE",
"615 909 OFFCURVE",
"615 1076 CURVE SMOOTH",
"615 1213 OFFCURVE",
"497 1269 OFFCURVE",
"434 1289 CURVE",
"523 1352 OFFCURVE",
"566 1413 OFFCURVE",
"566 1472 CURVE SMOOTH",
"566 1514 OFFCURVE",
"528 1638 OFFCURVE",
"339 1638 CURVE SMOOTH",
"162 1638 OFFCURVE",
"102 1516 OFFCURVE",
"75 1465 CURVE",
"98 1454 LINE",
"148 1522 OFFCURVE",
"211 1555 OFFCURVE",
"286 1555 CURVE SMOOTH",
"351 1555 OFFCURVE",
"448 1523 OFFCURVE",
"448 1418 CURVE SMOOTH",
"448 1267 OFFCURVE",
"260 1232 OFFCURVE",
"224 1228 CURVE",
"224 1210 LINE",
"224 1210 OFFCURVE",
"508 1218 OFFCURVE",
"508 1003 CURVE SMOOTH",
"508 907 OFFCURVE",
"412 844 OFFCURVE",
"325 844 CURVE SMOOTH",
"227 844 OFFCURVE",
"190 899 OFFCURVE",
"118 899 CURVE SMOOTH",
"87 899 OFFCURVE",
"61 881 OFFCURVE",
"61 857 CURVE SMOOTH",
"61 839 OFFCURVE",
"67 792 OFFCURVE",
"229 792 CURVE SMOOTH"
);
}
);
vertWidth = 0;
width = 737;
}
);
note = "";
unicode = 00B3;
},
{
glyphname = mu;
production = uni03BC;
layers = (
{
layerId = "D444198A-330D-4B37-A977-E225F0F0EE7C";
paths = (
{
closed = 1;
nodes = (
"270 -461 OFFCURVE",
"317 -412 OFFCURVE",
"317 -344 CURVE SMOOTH",
"317 -260 OFFCURVE",
"268 -120 OFFCURVE",
"268 10 CURVE SMOOTH",
"268 59 LINE",
"319 -27 OFFCURVE",
"399 -31 OFFCURVE",
"430 -31 CURVE SMOOTH",
"539 -31 OFFCURVE",
"639 33 OFFCURVE",
"757 168 CURVE",
"776 13 OFFCURVE",
"838 -31 OFFCURVE",
"920 -31 CURVE SMOOTH",
"1026 -31 OFFCURVE",
"1114 39 OFFCURVE",
"1127 215 CURVE",
"1085 215 LINE",
"1066 115 OFFCURVE",
"1043 86 OFFCURVE",
"999 86 CURVE SMOOTH",
"962 86 OFFCURVE",
"930 90 OFFCURVE",
"930 274 CURVE SMOOTH",
"930 950 LINE",
"757 950 LINE",
"757 238 LINE",
"674 145 OFFCURVE",
"592 97 OFFCURVE",
"512 97 CURVE SMOOTH",
"446 97 OFFCURVE",
"399 141 OFFCURVE",
"383 193 CURVE SMOOTH",
"371 228 OFFCURVE",
"365 295 OFFCURVE",
"365 397 CURVE SMOOTH",
"365 950 LINE",
"195 950 LINE",
"195 199 LINE SMOOTH",
"195 -195 OFFCURVE",
"128 -219 OFFCURVE",
"128 -348 CURVE SMOOTH",
"128 -413 OFFCURVE",
"172 -461 OFFCURVE",
"219 -461 CURVE SMOOTH"
);
}
);
vertWidth = 0;
width = 1207;
}
);
note = "";
unicode = 00B5;
},
{
glyphname = paragraph;
layers = (
{
layerId = "D444198A-330D-4B37-A977-E225F0F0EE7C";
paths = (
{
closed = 1;
nodes = (
"887 -392 LINE",
"887 1682 LINE",
"1107 1682 LINE",
"1107 -392 LINE",
"1197 -392 LINE",
"1197 1682 LINE",
"1353 1682 LINE",
"1353 1747 LINE",
"765 1747 LINE SMOOTH",
"511 1747 OFFCURVE",
"229 1647 OFFCURVE",
"229 1303 CURVE SMOOTH",
"229 929 OFFCURVE",
"526 859 OFFCURVE",
"801 852 CURVE",
"801 -392 LINE"
);
}
);
vertWidth = 0;
width = 1600;
}
);
note = "";
unicode = 00B6;
},
{
glyphname = periodcentered;
layers = (
{
layerId = "D444198A-330D-4B37-A977-E225F0F0EE7C";
paths = (
{
closed = 1;
nodes = (
"861 745 OFFCURVE",
"914 766 OFFCURVE",
"958 811 CURVE SMOOTH",
"1003 854 OFFCURVE",
"1024 907 OFFCURVE",
"1024 968 CURVE SMOOTH",
"1024 1031 OFFCURVE",
"1003 1084 OFFCURVE",
"958 1128 CURVE SMOOTH",
"914 1171 OFFCURVE",
"862 1193 OFFCURVE",
"798 1193 CURVE SMOOTH",
"737 1193 OFFCURVE",
"685 1171 OFFCURVE",
"641 1128 CURVE SMOOTH",
"596 1084 OFFCURVE",
"575 1031 OFFCURVE",
"575 968 CURVE SMOOTH",
"575 907 OFFCURVE",
"596 854 OFFCURVE",
"641 811 CURVE SMOOTH",
"685 766 OFFCURVE",
"737 745 OFFCURVE",
"798 745 CURVE SMOOTH"
);
}
);
vertWidth = 0;
width = 1600;
}
);
note = "";
unicode = 00B7;
},
{
glyphname = uni00B9;
layers = (
{
layerId = "D444198A-330D-4B37-A977-E225F0F0EE7C";
paths = (
{
closed = 1;
nodes = (
"558 806 LINE",
"558 828 LINE",
"436 828 OFFCURVE",
"436 846 OFFCURVE",
"436 950 CURVE SMOOTH",
"436 1638 LINE",
"410 1638 LINE",
"173 1542 LINE",
"183 1522 LINE",
"327 1576 OFFCURVE",
"316 1496 OFFCURVE",
"316 1390 CURVE SMOOTH",
"316 950 LINE SMOOTH",
"316 848 OFFCURVE",
"312 828 OFFCURVE",
"190 828 CURVE",
"190 806 LINE"
);
}
);
vertWidth = 0;
width = 737;
}
);
note = "";
unicode = 00B9;
},
{
glyphname = ordmasculine;
layers = (
{
layerId = "D444198A-330D-4B37-A977-E225F0F0EE7C";
paths = (
{
closed = 1;
nodes = (
"608 819 OFFCURVE",
"721 988 OFFCURVE",
"721 1135 CURVE SMOOTH",
"721 1296 OFFCURVE",
"588 1425 OFFCURVE",
"391 1425 CURVE SMOOTH",
"184 1425 OFFCURVE",
"59 1272 OFFCURVE",
"59 1119 CURVE SMOOTH",
"59 958 OFFCURVE",
"193 819 OFFCURVE",
"385 819 CURVE SMOOTH"
);
},
{
closed = 1;
nodes = (
"711 680 LINE",
"711 725 LINE",
"71 725 LINE",
"71 680 LINE"
);
},
{
closed = 1;
nodes = (
"284 865 OFFCURVE",
"199 1006 OFFCURVE",
"199 1170 CURVE SMOOTH",
"199 1336 OFFCURVE",
"291 1387 OFFCURVE",
"369 1387 CURVE SMOOTH",
"500 1387 OFFCURVE",
"582 1256 OFFCURVE",
"582 1085 CURVE SMOOTH",
"582 922 OFFCURVE",
"514 865 OFFCURVE",
"416 865 CURVE SMOOTH"
);
}
);
vertWidth = 0;
width = 781;
}
);
note = "";
unicode = 00BA;
},
{
glyphname = guillemotright;
layers = (
{
layerId = "D444198A-330D-4B37-A977-E225F0F0EE7C";
paths = (
{
closed = 1;
nodes = (
"126 -8 LINE",
"537 481 LINE",
"126 971 LINE",
"67 971 LINE",
"322 481 LINE",
"67 -8 LINE"
);
},
{
closed = 1;
nodes = (
"596 -8 LINE",
"999 481 LINE",
"596 971 LINE",
"539 971 LINE",
"793 481 LINE",
"539 -8 LINE"
);
}
);
vertWidth = 0;
width = 1066;
}
);
note = "";
unicode = 00BB;
},
{
glyphname = onequarter;
layers = (
{
layerId = "D444198A-330D-4B37-A977-E225F0F0EE7C";
paths = (
{
closed = 1;
nodes = (
"365 -15 LINE",
"1328 1437 LINE",
"1232 1437 LINE",
"262 -15 LINE"
);
},
{
closed = 1;
nodes = (
"510 546 LINE",
"510 569 LINE",
"401 569 OFFCURVE",
"401 586 OFFCURVE",
"401 696 CURVE SMOOTH",
"401 1418 LINE",
"379 1418 LINE",
"172 1317 LINE",
"179 1294 LINE",
"308 1355 OFFCURVE",
"297 1270 OFFCURVE",
"297 1156 CURVE SMOOTH",
"297 696 LINE SMOOTH",
"297 586 OFFCURVE",
"293 569 OFFCURVE",
"186 569 CURVE",
"186 546 LINE"
);
},
{
closed = 1;
nodes = (
"1292 -8 LINE",
"1292 219 LINE",
"1406 219 LINE",
"1406 306 LINE",
"1292 306 LINE",
"1292 865 LINE",
"1224 865 LINE",
"825 297 LINE",
"825 219 LINE",
"1188 219 LINE",
"1188 -8 LINE"
);
},
{
closed = 1;
nodes = (
"1188 732 LINE",
"1188 306 LINE",
"888 306 LINE"
);
}
);
vertWidth = 0;
width = 1578;
}
);
note = "";
unicode = 00BC;
},
{
glyphname = onehalf;
layers = (
{
layerId = "D444198A-330D-4B37-A977-E225F0F0EE7C";
paths = (
{
closed = 1;
nodes = (
"346 -15 LINE",
"1241 1437 LINE",
"1141 1437 LINE",
"244 -15 LINE"
);
},
{
closed = 1;
nodes = (
"479 546 LINE",
"479 569 LINE",
"371 569 OFFCURVE",
"371 586 OFFCURVE",
"371 696 CURVE SMOOTH",
"371 1418 LINE",
"348 1418 LINE",
"141 1317 LINE",
"149 1294 LINE",
"279 1355 OFFCURVE",
"266 1270 OFFCURVE",
"266 1156 CURVE SMOOTH",
"266 696 LINE SMOOTH",
"266 586 OFFCURVE",
"262 569 OFFCURVE",
"156 569 CURVE",
"156 546 LINE"
);
},
{
closed = 1;
nodes = (
"1374 -8 LINE",
"1437 156 LINE",
"1412 156 LINE",
"1372 99 OFFCURVE",
"1359 88 OFFCURVE",
"1230 88 CURVE SMOOTH",
"1006 88 LINE",
"1032 111 OFFCURVE",
"1097 179 OFFCURVE",
"1201 293 CURVE SMOOTH",
"1272 371 OFFCURVE",
"1383 506 OFFCURVE",
"1383 639 CURVE SMOOTH",
"1383 781 OFFCURVE",
"1261 865 OFFCURVE",
"1139 865 CURVE SMOOTH",
"950 865 OFFCURVE",
"905 700 OFFCURVE",
"897 625 CURVE",
"918 625 LINE",
"934 672 OFFCURVE",
"985 768 OFFCURVE",
"1106 768 CURVE SMOOTH",
"1159 768 OFFCURVE",
"1275 728 OFFCURVE",
"1275 582 CURVE SMOOTH",
"1275 510 OFFCURVE",
"1243 432 OFFCURVE",
"1184 346 CURVE SMOOTH",
"1123 260 OFFCURVE",
"1019 151 OFFCURVE",
"870 15 CURVE",
"870 -8 LINE"
);
}
);
vertWidth = 0;
width = 1578;
}
);
note = "";
unicode = 00BD;
},
{
glyphname = threequarters;
layers = (
{
layerId = "D444198A-330D-4B37-A977-E225F0F0EE7C";
paths = (
{
closed = 1;
nodes = (
"412 -15 LINE",
"1374 1437 LINE",
"1279 1437 LINE",
"308 -15 LINE"
);
},
{
closed = 1;
nodes = (
"502 528 OFFCURVE",
"631 652 OFFCURVE",
"631 827 CURVE SMOOTH",
"631 971 OFFCURVE",
"526 1030 OFFCURVE",
"473 1051 CURVE",
"549 1119 OFFCURVE",
"588 1183 OFFCURVE",
"588 1243 CURVE SMOOTH",
"588 1289 OFFCURVE",
"555 1418 OFFCURVE",
"388 1418 CURVE SMOOTH",
"232 1418 OFFCURVE",
"184 1289 OFFCURVE",
"158 1236 CURVE",
"179 1226 LINE",
"223 1294 OFFCURVE",
"279 1330 OFFCURVE",
"344 1330 CURVE SMOOTH",
"399 1330 OFFCURVE",
"483 1296 OFFCURVE",
"483 1186 CURVE SMOOTH",
"483 1028 OFFCURVE",
"322 992 OFFCURVE",
"289 988 CURVE",
"289 968 LINE",
"289 968 OFFCURVE",
"539 977 OFFCURVE",
"539 750 CURVE SMOOTH",
"539 650 OFFCURVE",
"453 584 OFFCURVE",
"379 584 CURVE SMOOTH",
"291 584 OFFCURVE",
"257 641 OFFCURVE",
"197 641 CURVE SMOOTH",
"170 641 OFFCURVE",
"145 624 OFFCURVE",
"145 599 CURVE SMOOTH",
"145 580 OFFCURVE",
"151 528 OFFCURVE",
"293 528 CURVE SMOOTH"
);
},
{
closed = 1;
nodes = (
"1319 -8 LINE",
"1319 219 LINE",
"1433 219 LINE",
"1433 306 LINE",
"1319 306 LINE",
"1319 865 LINE",
"1250 865 LINE",
"852 297 LINE",
"852 219 LINE",
"1214 219 LINE",
"1214 -8 LINE"
);
},
{
closed = 1;
nodes = (
"1214 732 LINE",
"1214 306 LINE",
"914 306 LINE"
);
}
);
vertWidth = 0;
width = 1578;
}
);
note = "";
unicode = 00BE;
},
{
glyphname = questiondown;
layers = (
{
layerId = "D444198A-330D-4B37-A977-E225F0F0EE7C";
paths = (
{
closed = 1;
nodes = (
"711 -459 OFFCURVE",
"844 -315 OFFCURVE",
"844 -160 CURVE SMOOTH",
"844 -24 OFFCURVE",
"758 4 OFFCURVE",
"730 4 CURVE SMOOTH",
"692 4 OFFCURVE",
"645 -27 OFFCURVE",
"645 -86 CURVE SMOOTH",
"645 -133 OFFCURVE",
"711 -206 OFFCURVE",
"711 -264 CURVE SMOOTH",
"711 -326 OFFCURVE",
"647 -401 OFFCURVE",
"514 -401 CURVE SMOOTH",
"406 -401 OFFCURVE",
"272 -324 OFFCURVE",
"272 -115 CURVE SMOOTH",
"272 -6 OFFCURVE",
"328 122 OFFCURVE",
"371 195 CURVE SMOOTH",
"463 348 OFFCURVE",
"504 485 OFFCURVE",
"512 652 CURVE",
"466 652 LINE",
"459 457 OFFCURVE",
"388 379 OFFCURVE",
"242 213 CURVE SMOOTH",
"177 141 OFFCURVE",
"80 27 OFFCURVE",
"80 -131 CURVE SMOOTH",
"80 -335 OFFCURVE",
"244 -459 OFFCURVE",
"469 -459 CURVE SMOOTH"
);
},
{
closed = 1;
nodes = (
"543 778 OFFCURVE",
"600 827 OFFCURVE",
"600 895 CURVE SMOOTH",
"600 970 OFFCURVE",
"541 1012 OFFCURVE",
"481 1012 CURVE SMOOTH",
"428 1012 OFFCURVE",
"367 971 OFFCURVE",
"367 895 CURVE SMOOTH",
"367 825 OFFCURVE",
"424 778 OFFCURVE",
"481 778 CURVE SMOOTH"
);
}
);
vertWidth = 0;
width = 946;
}
);
note = "";
unicode = 00BF;
},
{
glyphname = AE;
layers = (
{
anchors = (
{
name = L;
position = "{904, -104}";
},
{
name = U;
position = "{904, 1492}";
}
);
layerId = "D444198A-330D-4B37-A977-E225F0F0EE7C";
paths = (
{
closed = 1;
nodes = (
"418 0 LINE",
"418 39 LINE",
"350 44 OFFCURVE",
"306 55 OFFCURVE",
"284 69 CURVE SMOOTH",
"228 104 OFFCURVE",
"250 160 OFFCURVE",
"328 303 CURVE SMOOTH",
"457 546 LINE",
"868 546 LINE",
"868 250 LINE SMOOTH",
"868 164 OFFCURVE",
"861 111 OFFCURVE",
"844 90 CURVE SMOOTH",
"815 55 OFFCURVE",
"774 39 OFFCURVE",
"715 39 CURVE SMOOTH",
"664 39 LINE",
"664 0 LINE",
"1723 0 LINE",
"1834 356 LINE",
"1797 356 LINE",
"1701 158 OFFCURVE",
"1613 75 OFFCURVE",
"1376 75 CURVE SMOOTH",
"1188 75 LINE SMOOTH",
"1106 75 OFFCURVE",
"1087 99 OFFCURVE",
"1076 119 CURVE",
"1066 133 OFFCURVE",
"1068 175 OFFCURVE",
"1068 230 CURVE SMOOTH",
"1068 698 LINE",
"1336 698 LINE SMOOTH",
"1514 698 OFFCURVE",
"1541 657 OFFCURVE",
"1562 492 CURVE",
"1598 492 LINE",
"1598 979 LINE",
"1562 979 LINE",
"1549 829 OFFCURVE",
"1498 776 OFFCURVE",
"1336 776 CURVE SMOOTH",
"1068 776 LINE",
"1068 1334 LINE",
"1414 1334 LINE SMOOTH",
"1625 1334 OFFCURVE",
"1648 1294 OFFCURVE",
"1690 1103 CURVE",
"1723 1103 LINE",
"1707 1410 LINE",
"551 1410 LINE",
"551 1372 LINE",
"698 1365 OFFCURVE",
"732 1334 OFFCURVE",
"732 1287 CURVE SMOOTH",
"732 1254 OFFCURVE",
"705 1184 OFFCURVE",
"652 1085 CURVE SMOOTH",
"221 284 LINE SMOOTH",
"141 137 OFFCURVE",
"93 82 OFFCURVE",
"53 57 CURVE SMOOTH",
"33 44 OFFCURVE",
"6 39 OFFCURVE",
"-24 39 CURVE",
"-24 0 LINE"
);
},
{
closed = 1;
nodes = (
"868 1334 LINE",
"868 624 LINE",
"496 624 LINE"
);
}
);
vertWidth = 0;
width = 1895;
}
);
note = "";
unicode = 00C6;
},
{
glyphname = Eth;
layers = (
{
anchors = (
{
name = L;
position = "{745, -104}";
},
{
name = U;
position = "{745, 1492}";
}
);
components = (
{
name = D;
}
);
layerId = "D444198A-330D-4B37-A977-E225F0F0EE7C";
paths = (
{
closed = 1;
nodes = (
"849 705 LINE",
"849 823 LINE",
"36 823 LINE",
"36 705 LINE"
);
}
);
vertWidth = 0;
width = 1539;
}
);
note = "";
unicode = 00D0;
},
{
glyphname = multiply;
layers = (
{
layerId = "D444198A-330D-4B37-A977-E225F0F0EE7C";
paths = (
{
closed = 1;
nodes = (
"1024 537 LINE",
"1498 61 LINE",
"1578 141 LINE",
"1106 614 LINE",
"1578 1087 LINE",
"1498 1167 LINE",
"1024 692 LINE",
"551 1167 LINE",
"471 1087 LINE",
"943 614 LINE",
"471 141 LINE",
"551 61 LINE"
);
}
);
vertWidth = 0;
width = 2049;
}
);
note = "";
unicode = 00D7;
},
{
glyphname = Oslash;
layers = (
{
anchors = (
{
name = L;
position = "{766, -104}";
},
{
name = U;
position = "{766, 1492}";
}
);
layerId = "D444198A-330D-4B37-A977-E225F0F0EE7C";
paths = (
{
closed = 1;
nodes = (
"339 111 LINE",
"458 15 OFFCURVE",
"606 -33 OFFCURVE",
"762 -33 CURVE SMOOTH",
"1156 -33 OFFCURVE",
"1454 287 OFFCURVE",
"1454 713 CURVE SMOOTH",
"1454 925 OFFCURVE",
"1376 1109 OFFCURVE",
"1253 1238 CURVE",
"1392 1410 LINE",
"1330 1454 LINE",
"1197 1291 LINE",
"1081 1389 OFFCURVE",
"938 1443 OFFCURVE",
"781 1443 CURVE SMOOTH",
"379 1443 OFFCURVE",
"73 1131 OFFCURVE",
"73 709 CURVE SMOOTH",
"73 483 OFFCURVE",
"151 296 OFFCURVE",
"280 164 CURVE",
"146 0 LINE",
"209 -48 LINE"
);
},
{
closed = 1;
nodes = (
"618 40 OFFCURVE",
"506 107 OFFCURVE",
"429 223 CURVE",
"1149 1110 LINE",
"1204 974 OFFCURVE",
"1219 848 OFFCURVE",
"1219 686 CURVE SMOOTH",
"1218 242 OFFCURVE",
"1030 40 OFFCURVE",
"760 40 CURVE SMOOTH"
);
},
{
closed = 1;
nodes = (
"333 430 OFFCURVE",
"313 561 OFFCURVE",
"313 715 CURVE SMOOTH",
"313 1120 OFFCURVE",
"475 1369 OFFCURVE",
"758 1369 CURVE SMOOTH",
"915 1369 OFFCURVE",
"1030 1305 OFFCURVE",
"1109 1184 CURVE",
"390 298 LINE"
);
}
);
vertWidth = 0;
width = 1539;
}
);
note = "";
unicode = 00D8;
},
{
glyphname = Thorn;
layers = (
{
anchors = (
{
name = L;
position = "{572, -104}";
},
{
name = U;
position = "{572, 1492}";
}
);
layerId = "D444198A-330D-4B37-A977-E225F0F0EE7C";
paths = (
{
closed = 1;
nodes = (
"639 0 LINE",
"639 39 LINE",
"596 39 LINE SMOOTH",
"537 39 OFFCURVE",
"498 50 OFFCURVE",
"473 78 CURVE SMOOTH",
"449 106 OFFCURVE",
"436 164 OFFCURVE",
"436 253 CURVE SMOOTH",
"436 317 LINE",
"510 317 LINE SMOOTH",
"842 317 OFFCURVE",
"918 369 OFFCURVE",
"992 442 CURVE SMOOTH",
"1059 510 OFFCURVE",
"1104 604 OFFCURVE",
"1104 707 CURVE SMOOTH",
"1104 844 OFFCURVE",
"1030 945 OFFCURVE",
"934 1010 CURVE SMOOTH",
"846 1070 OFFCURVE",
"764 1090 OFFCURVE",
"514 1090 CURVE SMOOTH",
"436 1090 LINE",
"436 1159 LINE SMOOTH",
"436 1228 OFFCURVE",
"439 1252 OFFCURVE",
"455 1296 CURVE SMOOTH",
"473 1353 OFFCURVE",
"551 1372 OFFCURVE",
"596 1372 CURVE SMOOTH",
"639 1372 LINE",
"639 1410 LINE",
"39 1410 LINE",
"39 1372 LINE",
"78 1372 LINE SMOOTH",
"156 1372 OFFCURVE",
"211 1338 OFFCURVE",
"223 1296 CURVE",
"230 1281 OFFCURVE",
"236 1232 OFFCURVE",
"236 1154 CURVE SMOOTH",
"236 250 LINE SMOOTH",
"236 166 OFFCURVE",
"228 115 OFFCURVE",
"215 95 CURVE SMOOTH",
"188 57 OFFCURVE",
"143 39 OFFCURVE",
"75 39 CURVE SMOOTH",
"39 39 LINE",
"39 0 LINE"
);
},
{
closed = 1;
nodes = (
"436 1010 LINE",
"485 1010 LINE SMOOTH",
"674 1010 OFFCURVE",
"690 990 OFFCURVE",
"745 950 CURVE SMOOTH",
"821 895 OFFCURVE",
"863 806 OFFCURVE",
"863 705 CURVE SMOOTH",
"863 526 OFFCURVE",
"760 388 OFFCURVE",
"483 388 CURVE SMOOTH",
"436 388 LINE"
);
}
);
vertWidth = 0;
width = 1184;
}
);
note = "";
unicode = 00DE;
},
{
glyphname = germandbls;
layers = (
{
anchors = (
{
name = L;
position = "{517, -104}";
},
{
name = U;
position = "{517, 1492}";
}
);
layerId = "D444198A-330D-4B37-A977-E225F0F0EE7C";
paths = (
{
closed = 1;
nodes = (
"865 -12 OFFCURVE",
"998 200 OFFCURVE",
"998 438 CURVE SMOOTH",
"998 668 OFFCURVE",
"893 803 OFFCURVE",
"713 854 CURVE",
"881 924 OFFCURVE",
"912 1034 OFFCURVE",
"912 1141 CURVE SMOOTH",
"912 1342 OFFCURVE",
"766 1479 OFFCURVE",
"546 1479 CURVE SMOOTH",
"303 1479 OFFCURVE",
"173 1344 OFFCURVE",
"173 1006 CURVE SMOOTH",
"173 232 LINE SMOOTH",
"173 73 OFFCURVE",
"145 40 OFFCURVE",
"37 39 CURVE",
"37 0 LINE",
"348 0 LINE",
"348 1078 LINE SMOOTH",
"348 1355 OFFCURVE",
"428 1410 OFFCURVE",
"537 1410 CURVE SMOOTH",
"655 1410 OFFCURVE",
"737 1336 OFFCURVE",
"737 1148 CURVE SMOOTH",
"737 934 OFFCURVE",
"653 865 OFFCURVE",
"514 865 CURVE",
"514 806 LINE",
"725 788 OFFCURVE",
"819 610 OFFCURVE",
"819 326 CURVE SMOOTH",
"819 139 OFFCURVE",
"757 44 OFFCURVE",
"664 44 CURVE",
"627 48 OFFCURVE",
"604 61 OFFCURVE",
"604 93 CURVE SMOOTH",
"604 106 OFFCURVE",
"618 145 OFFCURVE",
"616 164 CURVE SMOOTH",
"614 213 OFFCURVE",
"584 246 OFFCURVE",
"530 246 CURVE SMOOTH",
"477 246 OFFCURVE",
"444 209 OFFCURVE",
"446 156 CURVE SMOOTH",
"449 57 OFFCURVE",
"532 -12 OFFCURVE",
"647 -12 CURVE SMOOTH"
);
}
);
vertWidth = 0;
width = 1066;
}
);
note = "";
unicode = 00DF;
},
{
glyphname = ae;
layers = (
{
anchors = (
{
name = H;
position = "{716, 0}";
},
{
name = L;
position = "{716, -104}";
},
{
name = O;
position = "{1163, 0}";
},
{
name = R;
position = "{1422, 936}";
},
{
name = U;
position = "{716, 1040}";
}
);
layerId = "D444198A-330D-4B37-A977-E225F0F0EE7C";
paths = (
{
closed = 1;
nodes = (
"475 -31 OFFCURVE",
"604 86 OFFCURVE",
"664 137 CURVE",
"785 -19 OFFCURVE",
"874 -31 OFFCURVE",
"971 -31 CURVE SMOOTH",
"1194 -31 OFFCURVE",
"1306 143 OFFCURVE",
"1357 332 CURVE",
"1323 356 LINE",
"1230 126 OFFCURVE",
"1070 126 OFFCURVE",
"1028 126 CURVE SMOOTH",
"966 126 OFFCURVE",
"870 151 OFFCURVE",
"815 248 CURVE SMOOTH",
"774 315 OFFCURVE",
"762 420 OFFCURVE",
"762 590 CURVE",
"1357 590 LINE",
"1353 838 OFFCURVE",
"1224 979 OFFCURVE",
"1019 979 CURVE SMOOTH",
"895 979 OFFCURVE",
"808 946 OFFCURVE",
"739 854 CURVE",
"711 926 OFFCURVE",
"631 979 OFFCURVE",
"459 979 CURVE SMOOTH",
"217 979 OFFCURVE",
"109 848 OFFCURVE",
"109 745 CURVE SMOOTH",
"109 692 OFFCURVE",
"135 645 OFFCURVE",
"202 645 CURVE",
"257 652 OFFCURVE",
"280 666 OFFCURVE",
"284 812 CURVE SMOOTH",
"287 872 OFFCURVE",
"342 922 OFFCURVE",
"432 922 CURVE SMOOTH",
"526 922 OFFCURVE",
"586 868 OFFCURVE",
"586 715 CURVE SMOOTH",
"586 621 LINE",
"215 471 OFFCURVE",
"75 401 OFFCURVE",
"75 209 CURVE SMOOTH",
"75 75 OFFCURVE",
"179 -31 OFFCURVE",
"308 -31 CURVE SMOOTH"
);
},
{
closed = 1;
nodes = (
"326 84 OFFCURVE",
"252 166 OFFCURVE",
"252 268 CURVE SMOOTH",
"252 426 OFFCURVE",
"430 494 OFFCURVE",
"586 553 CURVE",
"586 461 LINE SMOOTH",
"586 359 OFFCURVE",
"606 248 OFFCURVE",
"635 193 CURVE",
"520 101 OFFCURVE",
"471 80 OFFCURVE",
"418 82 CURVE SMOOTH"
);
},
{
closed = 1;
nodes = (
"766 827 OFFCURVE",
"859 907 OFFCURVE",
"966 907 CURVE SMOOTH",
"1074 907 OFFCURVE",
"1154 837 OFFCURVE",
"1157 657 CURVE",
"762 657 LINE"
);
}
);
vertWidth = 0;
width = 1422;
}
);
note = "";
unicode = 00E6;
},
{
glyphname = eth;
layers = (
{
anchors = (
{
name = L;
position = "{528, -104}";
},
{
name = U;
position = "{528, 1492}";
}
);
layerId = "D444198A-330D-4B37-A977-E225F0F0EE7C";
paths = (
{
closed = 1;
nodes = (
"815 -31 OFFCURVE",
"988 228 OFFCURVE",
"988 492 CURVE SMOOTH",
"988 757 OFFCURVE",
"844 1043 OFFCURVE",
"588 1270 CURVE",
"827 1406 LINE",
"791 1463 LINE",
"532 1319 LINE",
"442 1385 OFFCURVE",
"358 1439 OFFCURVE",
"274 1479 CURVE",
"248 1435 LINE",
"326 1379 OFFCURVE",
"352 1361 OFFCURVE",
"442 1270 CURVE",
"200 1133 LINE",
"228 1076 LINE",
"487 1217 LINE",
"565 1127 OFFCURVE",
"629 1024 OFFCURVE",
"684 912 CURVE",
"602 971 OFFCURVE",
"567 971 OFFCURVE",
"508 971 CURVE SMOOTH",
"253 971 OFFCURVE",
"69 725 OFFCURVE",
"69 459 CURVE SMOOTH",
"69 179 OFFCURVE",
"268 -31 OFFCURVE",
"520 -31 CURVE SMOOTH"
);
},
{
closed = 1;
nodes = (
"383 44 OFFCURVE",
"260 264 OFFCURVE",
"262 539 CURVE SMOOTH",
"264 821 OFFCURVE",
"377 910 OFFCURVE",
"498 910 CURVE SMOOTH",
"677 910 OFFCURVE",
"795 707 OFFCURVE",
"795 391 CURVE SMOOTH",
"795 145 OFFCURVE",
"698 44 OFFCURVE",
"569 44 CURVE SMOOTH"
);
}
);
vertWidth = 0;
width = 1045;
}
);
note = "";
unicode = 00F0;
},
{
glyphname = divide;
layers = (
{
layerId = "D444198A-330D-4B37-A977-E225F0F0EE7C";
paths = (
{
closed = 1;
nodes = (
"1639 551 LINE",
"1639 679 LINE",
"410 679 LINE",
"410 551 LINE"
);
},
{
closed = 1;
nodes = (
"1093 164 OFFCURVE",
"1148 217 OFFCURVE",
"1148 284 CURVE SMOOTH",
"1148 354 OFFCURVE",
"1093 408 OFFCURVE",
"1024 408 CURVE SMOOTH",
"956 408 OFFCURVE",
"901 354 OFFCURVE",
"901 284 CURVE SMOOTH",
"901 217 OFFCURVE",
"956 164 OFFCURVE",
"1024 164 CURVE SMOOTH"
);
},
{
closed = 1;
nodes = (
"1093 821 OFFCURVE",
"1148 874 OFFCURVE",
"1148 945 CURVE SMOOTH",
"1148 1012 OFFCURVE",
"1093 1068 OFFCURVE",
"1024 1068 CURVE SMOOTH",
"956 1068 OFFCURVE",
"901 1012 OFFCURVE",
"901 945 CURVE SMOOTH",
"901 874 OFFCURVE",
"956 821 OFFCURVE",
"1024 821 CURVE SMOOTH"
);
}
);
vertWidth = 0;
width = 2049;
}
);
note = "";
unicode = 00F7;
},
{
glyphname = oslash;
layers = (
{
anchors = (
{
name = H;
position = "{529, 0}";
},
{
name = L;
position = "{529, -104}";
},
{
name = O;
position = "{730, 0}";
},
{
name = R;
position = "{1063, 936}";
},
{
name = U;
position = "{529, 1040}";
}
);
layerId = "D444198A-330D-4B37-A977-E225F0F0EE7C";
paths = (
{
closed = 1;
nodes = (
"226 86 LINE",
"260 55 OFFCURVE",
"297 29 OFFCURVE",
"339 9 CURVE SMOOTH",
"394 -17 OFFCURVE",
"455 -31 OFFCURVE",
"522 -31 CURVE SMOOTH",
"835 -31 OFFCURVE",
"992 248 OFFCURVE",
"992 494 CURVE SMOOTH",
"992 561 OFFCURVE",
"980 625 OFFCURVE",
"958 684 CURVE SMOOTH",
"940 735 OFFCURVE",
"914 780 OFFCURVE",
"881 818 CURVE",
"1021 973 LINE",
"973 1019 LINE",
"836 866 LINE",
"801 897 OFFCURVE",
"763 922 OFFCURVE",
"719 942 CURVE SMOOTH",
"663 967 OFFCURVE",
"601 979 OFFCURVE",
"532 979 CURVE SMOOTH",
"246 979 OFFCURVE",
"71 723 OFFCURVE",
"71 466 CURVE SMOOTH",
"71 401 OFFCURVE",
"82 338 OFFCURVE",
"104 277 CURVE SMOOTH",
"123 224 OFFCURVE",
"149 177 OFFCURVE",
"182 136 CURVE",
"37 -24 LINE",
"86 -69 LINE"
);
},
{
closed = 1;
nodes = (
"474 44 OFFCURVE",
"399 104 OFFCURVE",
"346 196 CURVE SMOOTH",
"338 211 LINE",
"757 679 LINE",
"764 657 OFFCURVE",
"771 635 OFFCURVE",
"776 611 CURVE SMOOTH",
"790 550 OFFCURVE",
"797 484 OFFCURVE",
"797 413 CURVE SMOOTH",
"797 141 OFFCURVE",
"703 44 OFFCURVE",
"565 44 CURVE SMOOTH"
);
},
{
closed = 1;
nodes = (
"299 303 OFFCURVE",
"292 330 OFFCURVE",
"284 358 CURVE",
"271 420 OFFCURVE",
"264 485 OFFCURVE",
"264 553 CURVE SMOOTH",
"264 829 OFFCURVE",
"391 914 OFFCURVE",
"500 914 CURVE SMOOTH",
"591 914 OFFCURVE",
"666 860 OFFCURVE",
"717 769 CURVE SMOOTH",
"721 762 OFFCURVE",
"725 755 OFFCURVE",
"729 746 CURVE",
"308 277 LINE"
);
}
);
vertWidth = 0;
width = 1063;
}
);
note = "";
unicode = 00F8;
},
{
glyphname = thorn;
layers = (
{
anchors = (
{
name = L;
position = "{492, -520}";
},
{
name = U;
position = "{492, 1492}";
}
);
layerId = "D444198A-330D-4B37-A977-E225F0F0EE7C";
paths = (
{
closed = 1;
nodes = (
"492 -455 LINE",
"492 -416 LINE",
"342 -408 OFFCURVE",
"330 -383 OFFCURVE",
"330 -232 CURVE SMOOTH",
"330 55 LINE",
"420 -24 OFFCURVE",
"473 -31 OFFCURVE",
"557 -31 CURVE SMOOTH",
"821 -27 OFFCURVE",
"994 213 OFFCURVE",
"994 512 CURVE SMOOTH",
"994 776 OFFCURVE",
"848 979 OFFCURVE",
"637 979 CURVE SMOOTH",
"522 979 OFFCURVE",
"428 922 OFFCURVE",
"330 755 CURVE",
"330 1479 LINE",
"291 1479 LINE",
"-2 1363 LINE",
"10 1328 LINE",
"73 1353 OFFCURVE",
"101 1344 OFFCURVE",
"122 1330 CURVE SMOOTH",
"151 1314 OFFCURVE",
"158 1301 OFFCURVE",
"158 1175 CURVE SMOOTH",
"158 -228 LINE SMOOTH",
"158 -399 OFFCURVE",
"139 -408 OFFCURVE",
"-8 -416 CURVE",
"-8 -455 LINE"
);
},
{
closed = 1;
nodes = (
"430 35 OFFCURVE",
"358 111 OFFCURVE",
"340 184 CURVE SMOOTH",
"333 211 OFFCURVE",
"330 260 OFFCURVE",
"330 335 CURVE SMOOTH",
"330 692 LINE",
"463 829 OFFCURVE",
"494 832 OFFCURVE",
"553 832 CURVE SMOOTH",
"709 832 OFFCURVE",
"808 655 OFFCURVE",
"808 413 CURVE SMOOTH",
"808 177 OFFCURVE",
"709 31 OFFCURVE",
"553 33 CURVE SMOOTH"
);
}
);
vertWidth = 0;
width = 1045;
}
);
note = "";
unicode = 00FE;
},
{
glyphname = dotlessi;
layers = (
{
anchors = (
{
name = H;
position = "{306, 0}";
},
{
name = L;
position = "{305, -104}";
},
{
name = O;
position = "{462, 0}";
},
{
name = R;
position = "{592, 936}";
},
{
name = U;
position = "{305, 1040}";
}
);
layerId = "D444198A-330D-4B37-A977-E225F0F0EE7C";
paths = (
{
closed = 1;
nodes = (
"546 0 LINE",
"546 39 LINE",
"469 39 OFFCURVE",
"451 42 OFFCURVE",
"424 73 CURVE SMOOTH",
"406 93 OFFCURVE",
"399 131 OFFCURVE",
"399 215 CURVE SMOOTH",
"399 979 LINE",
"354 979 LINE",
"66 865 LINE",
"80 827 LINE",
"139 848 OFFCURVE",
"172 850 OFFCURVE",
"197 827 CURVE SMOOTH",
"225 803 OFFCURVE",
"225 752 OFFCURVE",
"225 582 CURVE SMOOTH",
"225 215 LINE SMOOTH",
"225 126 OFFCURVE",
"215 95 OFFCURVE",
"197 71 CURVE SMOOTH",
"177 46 OFFCURVE",
"149 39 OFFCURVE",
"80 39 CURVE",
"80 0 LINE"
);
}
);
vertWidth = 0;
width = 592;
}
);
note = "";
unicode = 0131;
},
{
glyphname = OE;
layers = (
{
anchors = (
{
name = L;
position = "{955, -104}";
},
{
name = U;
position = "{955, 1492}";
}
);
layerId = "D444198A-330D-4B37-A977-E225F0F0EE7C";
paths = (
{
closed = 1;
nodes = (
"776 -15 OFFCURVE",
"1024 0 OFFCURVE",
"1041 0 CURVE SMOOTH",
"1721 0 LINE",
"1834 354 LINE",
"1794 354 LINE",
"1756 268 OFFCURVE",
"1709 202 OFFCURVE",
"1658 153 CURVE SMOOTH",
"1586 86 OFFCURVE",
"1508 78 OFFCURVE",
"1383 78 CURVE SMOOTH",
"1272 78 LINE SMOOTH",
"1167 78 OFFCURVE",
"1150 92 OFFCURVE",
"1150 232 CURVE SMOOTH",
"1150 698 LINE",
"1338 698 LINE SMOOTH",
"1422 698 OFFCURVE",
"1476 684 OFFCURVE",
"1503 657 CURVE SMOOTH",
"1535 629 OFFCURVE",
"1551 575 OFFCURVE",
"1556 489 CURVE",
"1598 489 LINE",
"1598 979 LINE",
"1556 979 LINE",
"1556 910 OFFCURVE",
"1543 859 OFFCURVE",
"1508 827 CURVE",
"1476 793 OFFCURVE",
"1418 778 OFFCURVE",
"1338 778 CURVE SMOOTH",
"1150 778 LINE",
"1150 1334 LINE",
"1416 1334 LINE SMOOTH",
"1619 1334 OFFCURVE",
"1621 1285 OFFCURVE",
"1646 1258 CURVE SMOOTH",
"1668 1234 OFFCURVE",
"1672 1183 OFFCURVE",
"1690 1103 CURVE",
"1721 1103 LINE",
"1709 1410 LINE",
"1217 1410 LINE SMOOTH",
"1129 1410 OFFCURVE",
"1034 1412 OFFCURVE",
"941 1416 CURVE SMOOTH",
"819 1420 OFFCURVE",
"755 1423 OFFCURVE",
"737 1423 CURVE SMOOTH",
"319 1423 OFFCURVE",
"78 1103 OFFCURVE",
"78 703 CURVE SMOOTH",
"78 301 OFFCURVE",
"338 -15 OFFCURVE",
"715 -15 CURVE SMOOTH"
);
},
{
closed = 1;
nodes = (
"426 57 OFFCURVE",
"317 381 OFFCURVE",
"317 694 CURVE SMOOTH",
"317 1097 OFFCURVE",
"459 1357 OFFCURVE",
"741 1357 CURVE SMOOTH",
"838 1357 OFFCURVE",
"901 1326 OFFCURVE",
"928 1263 CURVE SMOOTH",
"943 1232 OFFCURVE",
"948 1175 OFFCURVE",
"948 1083 CURVE SMOOTH",
"948 354 LINE SMOOTH",
"948 253 OFFCURVE",
"943 190 OFFCURVE",
"930 158 CURVE SMOOTH",
"905 90 OFFCURVE",
"840 57 OFFCURVE",
"737 57 CURVE SMOOTH"
);
}
);
vertWidth = 0;
width = 1895;
}
);
note = "";
unicode = 0152;
},
{
glyphname = oe;
layers = (
{
anchors = (
{
name = H;
position = "{833, 0}";
},
{
name = L;
position = "{769, -104}";
},
{
name = O;
position = "{1278, 0}";
},
{
name = R;
position = "{1539, 936}";
},
{
name = U;
position = "{769, 1040}";
}
);
layerId = "D444198A-330D-4B37-A977-E225F0F0EE7C";
paths = (
{
closed = 1;
nodes = (
"652 -29 OFFCURVE",
"755 33 OFFCURVE",
"837 139 CURVE",
"881 44 OFFCURVE",
"983 -33 OFFCURVE",
"1114 -31 CURVE SMOOTH",
"1294 -29 OFFCURVE",
"1418 92 OFFCURVE",
"1469 352 CURVE",
"1435 369 LINE",
"1374 200 OFFCURVE",
"1292 143 OFFCURVE",
"1184 143 CURVE SMOOTH",
"1006 143 OFFCURVE",
"886 317 OFFCURVE",
"899 596 CURVE",
"1469 596 LINE",
"1474 832 OFFCURVE",
"1344 981 OFFCURVE",
"1129 981 CURVE SMOOTH",
"999 981 OFFCURVE",
"907 928 OFFCURVE",
"837 815 CURVE",
"766 916 OFFCURVE",
"655 979 OFFCURVE",
"510 979 CURVE SMOOTH",
"262 979 OFFCURVE",
"69 778 OFFCURVE",
"69 461 CURVE SMOOTH",
"69 162 OFFCURVE",
"260 -33 OFFCURVE",
"502 -31 CURVE SMOOTH"
);
},
{
closed = 1;
nodes = (
"365 44 OFFCURVE",
"264 270 OFFCURVE",
"264 561 CURVE SMOOTH",
"264 829 OFFCURVE",
"358 922 OFFCURVE",
"471 922 CURVE SMOOTH",
"657 922 OFFCURVE",
"743 703 OFFCURVE",
"743 393 CURVE SMOOTH",
"743 133 OFFCURVE",
"652 44 OFFCURVE",
"530 44 CURVE SMOOTH"
);
},
{
closed = 1;
nodes = (
"903 835 OFFCURVE",
"999 912 OFFCURVE",
"1079 912 CURVE SMOOTH",
"1219 912 OFFCURVE",
"1264 776 OFFCURVE",
"1264 664 CURVE",
"899 664 LINE"
);
}
);
vertWidth = 0;
width = 1539;
}
);
note = "";
unicode = 0153;
},
{
glyphname = florin;
layers = (
{
anchors = (
{
name = L;
position = "{395, -520}";
},
{
name = U;
position = "{395, 1492}";
}
);
layerId = "D444198A-330D-4B37-A977-E225F0F0EE7C";
paths = (
{
closed = 1;
nodes = (
"149 -459 OFFCURVE",
"438 -426 OFFCURVE",
"438 4 CURVE SMOOTH",
"438 877 LINE",
"684 877 LINE",
"684 952 LINE",
"438 952 LINE",
"438 1021 LINE SMOOTH",
"438 1289 OFFCURVE",
"449 1401 OFFCURVE",
"582 1401 CURVE SMOOTH",
"728 1401 OFFCURVE",
"735 1212 OFFCURVE",
"842 1214 CURVE SMOOTH",
"890 1214 OFFCURVE",
"926 1264 OFFCURVE",
"926 1301 CURVE SMOOTH",
"926 1396 OFFCURVE",
"785 1479 OFFCURVE",
"664 1479 CURVE SMOOTH",
"599 1479 OFFCURVE",
"264 1447 OFFCURVE",
"264 1017 CURVE SMOOTH",
"264 952 LINE",
"78 952 LINE",
"78 877 LINE",
"264 877 LINE",
"264 0 LINE SMOOTH",
"264 -268 OFFCURVE",
"246 -381 OFFCURVE",
"146 -381 CURVE SMOOTH",
"10 -381 OFFCURVE",
"84 -195 OFFCURVE",
"-55 -195 CURVE SMOOTH",
"-101 -195 OFFCURVE",
"-135 -244 OFFCURVE",
"-135 -280 CURVE SMOOTH",
"-135 -375 OFFCURVE",
"-39 -459 OFFCURVE",
"82 -459 CURVE SMOOTH"
);
}
);
vertWidth = 0;
width = 709;
}
);
note = "";
unicode = 0192;
},
{
glyphname = circumflex;
layers = (
{
layerId = "D444198A-330D-4B37-A977-E225F0F0EE7C";
paths = (
{
closed = 1;
nodes = (
"73 1083 LINE",
"333 1306 LINE",
"594 1083 LINE",
"668 1083 LINE",
"401 1441 LINE",
"268 1441 LINE",
"0 1083 LINE"
);
}
);
vertWidth = 0;
width = 668;
}
);
note = "";
unicode = 02C6;
},
{
glyphname = uni02D0;
layers = (
{
anchors = (
{
name = L;
position = "{223, -104}";
},
{
name = U;
position = "{223, 1040}";
}
);
layerId = "D444198A-330D-4B37-A977-E225F0F0EE7C";
paths = (
{
closed = 1;
nodes = (
"367 0 LINE",
"272 326 LINE",
"173 326 LINE",
"78 0 LINE"
);
},
{
closed = 1;
nodes = (
"272 627 LINE",
"367 952 LINE",
"78 952 LINE",
"173 627 LINE"
);
}
);
vertWidth = 0;
width = 444;
}
);
note = "";
unicode = 02D0;
},
{
glyphname = dotaccent;
layers = (
{
layerId = "D444198A-330D-4B37-A977-E225F0F0EE7C";
paths = (
{
closed = 1;
nodes = (
"173 1170 OFFCURVE",
"213 1209 OFFCURVE",
"213 1277 CURVE SMOOTH",
"213 1342 OFFCURVE",
"173 1383 OFFCURVE",
"106 1383 CURVE SMOOTH",
"42 1383 OFFCURVE",
"0 1340 OFFCURVE",
"0 1277 CURVE SMOOTH",
"0 1212 OFFCURVE",
"42 1170 OFFCURVE",
"106 1170 CURVE SMOOTH"
);
}
);
vertWidth = 0;
width = 213;
}
);
note = "";
unicode = 02D9;
},
{
glyphname = ring;
layers = (
{
layerId = "D444198A-330D-4B37-A977-E225F0F0EE7C";
paths = (
{
closed = 1;
nodes = (
"299 1083 OFFCURVE",
"397 1163 OFFCURVE",
"397 1283 CURVE SMOOTH",
"397 1406 OFFCURVE",
"299 1482 OFFCURVE",
"200 1482 CURVE SMOOTH",
"93 1482 OFFCURVE",
"0 1401 OFFCURVE",
"0 1283 CURVE SMOOTH",
"0 1163 OFFCURVE",
"101 1083 OFFCURVE",
"200 1083 CURVE SMOOTH"
);
},
{
closed = 1;
nodes = (
"135 1156 OFFCURVE",
"71 1203 OFFCURVE",
"71 1283 CURVE SMOOTH",
"71 1359 OFFCURVE",
"131 1410 OFFCURVE",
"200 1410 CURVE SMOOTH",
"264 1410 OFFCURVE",
"326 1359 OFFCURVE",
"326 1283 CURVE SMOOTH",
"326 1214 OFFCURVE",
"270 1156 OFFCURVE",
"200 1156 CURVE SMOOTH"
);
}
);
vertWidth = 0;
width = 397;
}
);
note = "";
unicode = 02DA;
},
{
glyphname = tilde;
layers = (
{
layerId = "D444198A-330D-4B37-A977-E225F0F0EE7C";
paths = (
{
closed = 1;
nodes = (
"55 1170 LINE",
"60 1216 OFFCURVE",
"120 1268 OFFCURVE",
"175 1268 CURVE SMOOTH",
"314 1268 OFFCURVE",
"327 1170 OFFCURVE",
"483 1170 CURVE SMOOTH",
"602 1170 OFFCURVE",
"697 1284 OFFCURVE",
"709 1397 CURVE",
"653 1397 LINE",
"636 1330 OFFCURVE",
"574 1292 OFFCURVE",
"506 1292 CURVE SMOOTH",
"398 1292 OFFCURVE",
"343 1387 OFFCURVE",
"236 1387 CURVE SMOOTH",
"100 1387 OFFCURVE",
"31 1292 OFFCURVE",
"0 1170 CURVE"
);
}
);
vertWidth = 0;
width = 709;
}
);
note = "";
unicode = 02DC;
},
{
glyphname = hungarumlaut;
layers = (
{
layerId = "D444198A-330D-4B37-A977-E225F0F0EE7C";
paths = (
{
closed = 1;
nodes = (
"75 1083 LINE",
"383 1296 LINE SMOOTH",
"428 1328 OFFCURVE",
"483 1340 OFFCURVE",
"477 1404 CURVE SMOOTH",
"475 1435 OFFCURVE",
"453 1452 OFFCURVE",
"410 1452 CURVE SMOOTH",
"359 1452 OFFCURVE",
"328 1414 OFFCURVE",
"295 1381 CURVE SMOOTH",
"0 1083 LINE"
);
},
{
closed = 1;
nodes = (
"459 1083 LINE",
"766 1296 LINE SMOOTH",
"812 1328 OFFCURVE",
"866 1340 OFFCURVE",
"861 1404 CURVE SMOOTH",
"859 1435 OFFCURVE",
"837 1452 OFFCURVE",
"793 1452 CURVE SMOOTH",
"750 1452 OFFCURVE",
"711 1414 OFFCURVE",
"680 1381 CURVE SMOOTH",
"385 1083 LINE"
);
}
);
vertWidth = 0;
width = 861;
}
);
note = "";
unicode = 02DD;
},
{
glyphname = pi;
layers = (
{
anchors = (
{
name = L;
position = "{609, -104}";
},
{
name = U;
position = "{609, 1040}";
}
);
layerId = "D444198A-330D-4B37-A977-E225F0F0EE7C";
paths = (
{
closed = 1;
nodes = (
"352 -24 OFFCURVE",
"444 141 OFFCURVE",
"444 352 CURVE SMOOTH",
"444 821 LINE",
"723 821 LINE",
"723 242 LINE SMOOTH",
"723 124 OFFCURVE",
"745 -24 OFFCURVE",
"945 -24 CURVE SMOOTH",
"1070 -24 OFFCURVE",
"1177 88 OFFCURVE",
"1177 310 CURVE",
"1099 310 LINE",
"1099 137 OFFCURVE",
"1036 57 OFFCURVE",
"973 57 CURVE SMOOTH",
"886 57 OFFCURVE",
"897 139 OFFCURVE",
"897 276 CURVE SMOOTH",
"897 821 LINE",
"1023 821 LINE SMOOTH",
"1137 821 OFFCURVE",
"1177 905 OFFCURVE",
"1177 1006 CURVE",
"1125 1006 LINE",
"1116 977 OFFCURVE",
"1072 952 OFFCURVE",
"1026 952 CURVE SMOOTH",
"289 952 LINE SMOOTH",
"117 952 OFFCURVE",
"50 797 OFFCURVE",
"50 705 CURVE",
"111 705 LINE",
"122 739 OFFCURVE",
"126 821 OFFCURVE",
"266 821 CURVE SMOOTH",
"352 821 LINE",
"352 563 LINE SMOOTH",
"352 179 OFFCURVE",
"248 126 OFFCURVE",
"186 126 CURVE SMOOTH",
"139 126 OFFCURVE",
"109 182 OFFCURVE",
"109 262 CURVE",
"40 262 LINE",
"40 120 OFFCURVE",
"67 -24 OFFCURVE",
"186 -24 CURVE SMOOTH"
);
}
);
vertWidth = 0;
width = 1217;
}
);
note = "";
unicode = 03C0;
},
{
glyphname = uni2010;
layers = (
{
anchors = (
{
name = U;
position = "{420, 1040}";
}
);
layerId = "D444198A-330D-4B37-A977-E225F0F0EE7C";
paths = (
{
closed = 1;
nodes = (
"736 469 LINE",
"736 549 LINE",
"104 549 LINE",
"104 469 LINE"
);
}
);
vertWidth = 0;
width = 840;
}
);
note = "";
unicode = 2010;
},
{
glyphname = figuredash;
layers = (
{
layerId = "D444198A-330D-4B37-A977-E225F0F0EE7C";
paths = (
{
closed = 1;
nodes = (
"1014 469 LINE",
"1014 549 LINE",
"52 549 LINE",
"52 469 LINE"
);
}
);
vertWidth = 0;
width = 1066;
}
);
note = "";
unicode = 2012;
},
{
glyphname = endash;
layers = (
{
layerId = "D444198A-330D-4B37-A977-E225F0F0EE7C";
paths = (
{
closed = 1;
nodes = (
"1055 469 LINE",
"1055 549 LINE",
"-44 549 LINE",
"-44 469 LINE"
);
}
);
vertWidth = 0;
width = 1024;
}
);
note = "";
unicode = 2013;
},
{
glyphname = emdash;
layers = (
{
layerId = "D444198A-330D-4B37-A977-E225F0F0EE7C";
paths = (
{
closed = 1;
nodes = (
"2048 469 LINE",
"2048 549 LINE",
"0 549 LINE",
"0 469 LINE"
);
}
);
vertWidth = 0;
width = 2048;
}
);
note = "";
unicode = 2014;
},
{
glyphname = uni2015;
layers = (
{
layerId = "D444198A-330D-4B37-A977-E225F0F0EE7C";
paths = (
{
closed = 1;
nodes = (
"2074 469 LINE",
"2074 549 LINE",
"-5 549 LINE",
"-5 469 LINE"
);
}
);
vertWidth = 0;
width = 2069;
}
);
note = "";
unicode = 2015;
},
{
glyphname = quoteleft;
layers = (
{
components = (
{
name = uniFF0C;
transform = "{0.1, 0, 0, 0.1, 1440, 1936}";
}
);
layerId = "D444198A-330D-4B37-A977-E225F0F0EE7C";
paths = (
{
closed = 1;
nodes = (
"484 1223 OFFCURVE",
"518 1234 OFFCURVE",
"550 1257 CURVE SMOOTH",
"582 1280 OFFCURVE",
"598 1313 OFFCURVE",
"598 1356 CURVE SMOOTH",
"598 1393 OFFCURVE",
"586 1422 OFFCURVE",
"562 1445 CURVE SMOOTH",
"538 1468 OFFCURVE",
"512 1479 OFFCURVE",
"483 1479 CURVE SMOOTH",
"472 1479 OFFCURVE",
"457 1476 OFFCURVE",
"437 1469 CURVE SMOOTH",
"417 1463 OFFCURVE",
"404 1460 OFFCURVE",
"397 1460 CURVE SMOOTH",
"368 1460 OFFCURVE",
"354 1483 OFFCURVE",
"354 1530 CURVE SMOOTH",
"354 1612 OFFCURVE",
"418 1690 OFFCURVE",
"547 1765 CURVE",
"547 1817 LINE",
"349 1750 OFFCURVE",
"250 1627 OFFCURVE",
"250 1450 CURVE SMOOTH",
"250 1385 OFFCURVE",
"272 1329 OFFCURVE",
"315 1284 CURVE SMOOTH",
"353 1243 OFFCURVE",
"397 1223 OFFCURVE",
"448 1223 CURVE SMOOTH"
);
}
);
vertWidth = 0;
width = 1600;
}
);
note = "";
unicode = 2018;
},
{
glyphname = quoteright;
layers = (
{
guideLines = (
{
position = "{0, 2047}";
}
);
layerId = "D444198A-330D-4B37-A977-E225F0F0EE7C";
paths = (
{
closed = 1;
nodes = (
"410 1284 OFFCURVE",
"509 1406 OFFCURVE",
"509 1583 CURVE SMOOTH",
"509 1650 OFFCURVE",
"487 1706 OFFCURVE",
"443 1751 CURVE SMOOTH",
"404 1790 OFFCURVE",
"359 1810 OFFCURVE",
"310 1810 CURVE SMOOTH",
"275 1810 OFFCURVE",
"242 1800 OFFCURVE",
"212 1780 CURVE SMOOTH",
"177 1754 OFFCURVE",
"160 1720 OFFCURVE",
"160 1679 CURVE SMOOTH",
"160 1642 OFFCURVE",
"172 1613 OFFCURVE",
"196 1590 CURVE SMOOTH",
"220 1567 OFFCURVE",
"246 1556 OFFCURVE",
"275 1556 CURVE SMOOTH",
"284 1556 OFFCURVE",
"299 1559 OFFCURVE",
"320 1565 CURVE SMOOTH",
"341 1572 OFFCURVE",
"354 1575 OFFCURVE",
"359 1575 CURVE SMOOTH",
"388 1575 OFFCURVE",
"402 1552 OFFCURVE",
"402 1505 CURVE SMOOTH",
"402 1422 OFFCURVE",
"339 1343 OFFCURVE",
"212 1268 CURVE",
"212 1219 LINE"
);
}
);
vertWidth = 0;
width = 1600;
}
);
note = "";
unicode = 2019;
},
{
glyphname = quotesinglbase;
layers = (
{
layerId = "D444198A-330D-4B37-A977-E225F0F0EE7C";
paths = (
{
closed = 1;
nodes = (
"328 -305 OFFCURVE",
"518 -217 OFFCURVE",
"518 0 CURVE SMOOTH",
"518 126 OFFCURVE",
"422 206 OFFCURVE",
"338 206 CURVE SMOOTH",
"280 206 OFFCURVE",
"200 168 OFFCURVE",
"200 86 CURVE SMOOTH",
"200 15 OFFCURVE",
"257 -24 OFFCURVE",
"305 -24 CURVE SMOOTH",
"332 -24 OFFCURVE",
"365 -8 OFFCURVE",
"383 -8 CURVE SMOOTH",
"393 -8 OFFCURVE",
"422 -17 OFFCURVE",
"422 -71 CURVE SMOOTH",
"422 -184 OFFCURVE",
"322 -244 OFFCURVE",
"248 -287 CURVE",
"248 -332 LINE"
);
}
);
vertWidth = 0;
width = 709;
}
);
note = "";
unicode = 201A;
},
{
glyphname = quotedblleft;
layers = (
{
layerId = "D444198A-330D-4B37-A977-E225F0F0EE7C";
paths = (
{
closed = 1;
nodes = (
"1325 1221 OFFCURVE",
"1359 1232 OFFCURVE",
"1391 1255 CURVE SMOOTH",
"1424 1278 OFFCURVE",
"1440 1311 OFFCURVE",
"1440 1354 CURVE SMOOTH",
"1440 1389 OFFCURVE",
"1428 1419 OFFCURVE",
"1404 1442 CURVE SMOOTH",
"1380 1465 OFFCURVE",
"1354 1477 OFFCURVE",
"1325 1477 CURVE SMOOTH",
"1316 1477 OFFCURVE",
"1301 1474 OFFCURVE",
"1280 1467 CURVE SMOOTH",
"1259 1461 OFFCURVE",
"1246 1458 OFFCURVE",
"1241 1458 CURVE SMOOTH",
"1212 1458 OFFCURVE",
"1198 1481 OFFCURVE",
"1198 1528 CURVE SMOOTH",
"1198 1610 OFFCURVE",
"1261 1688 OFFCURVE",
"1388 1763 CURVE",
"1388 1815 LINE",
"1190 1748 OFFCURVE",
"1091 1625 OFFCURVE",
"1091 1448 CURVE SMOOTH",
"1091 1383 OFFCURVE",
"1113 1327 OFFCURVE",
"1157 1282 CURVE SMOOTH",
"1196 1241 OFFCURVE",
"1241 1221 OFFCURVE",
"1290 1221 CURVE SMOOTH"
);
},
{
closed = 1;
nodes = (
"779 1223 OFFCURVE",
"813 1234 OFFCURVE",
"845 1257 CURVE SMOOTH",
"877 1280 OFFCURVE",
"893 1313 OFFCURVE",
"893 1356 CURVE SMOOTH",
"893 1393 OFFCURVE",
"881 1422 OFFCURVE",
"857 1445 CURVE SMOOTH",
"833 1468 OFFCURVE",
"807 1479 OFFCURVE",
"778 1479 CURVE SMOOTH",
"767 1479 OFFCURVE",
"752 1476 OFFCURVE",
"732 1469 CURVE SMOOTH",
"712 1463 OFFCURVE",
"699 1460 OFFCURVE",
"692 1460 CURVE SMOOTH",
"663 1460 OFFCURVE",
"649 1483 OFFCURVE",
"649 1530 CURVE SMOOTH",
"649 1612 OFFCURVE",
"713 1690 OFFCURVE",
"842 1765 CURVE",
"842 1817 LINE",
"644 1750 OFFCURVE",
"545 1627 OFFCURVE",
"545 1450 CURVE SMOOTH",
"545 1385 OFFCURVE",
"567 1329 OFFCURVE",
"610 1284 CURVE SMOOTH",
"648 1243 OFFCURVE",
"692 1223 OFFCURVE",
"743 1223 CURVE SMOOTH"
);
}
);
vertWidth = 0;
width = 1600;
}
);
note = "";
unicode = 201C;
},
{
glyphname = quotedblright;
layers = (
{
layerId = "D444198A-330D-4B37-A977-E225F0F0EE7C";
paths = (
{
closed = 1;
nodes = (
"410 1284 OFFCURVE",
"509 1406 OFFCURVE",
"509 1583 CURVE SMOOTH",
"509 1650 OFFCURVE",
"487 1706 OFFCURVE",
"443 1751 CURVE SMOOTH",
"404 1790 OFFCURVE",
"359 1810 OFFCURVE",
"310 1810 CURVE SMOOTH",
"275 1810 OFFCURVE",
"242 1800 OFFCURVE",
"212 1780 CURVE SMOOTH",
"177 1754 OFFCURVE",
"160 1720 OFFCURVE",
"160 1679 CURVE SMOOTH",
"160 1642 OFFCURVE",
"172 1613 OFFCURVE",
"196 1590 CURVE SMOOTH",
"220 1567 OFFCURVE",
"246 1556 OFFCURVE",
"275 1556 CURVE SMOOTH",
"284 1556 OFFCURVE",
"299 1559 OFFCURVE",
"320 1565 CURVE SMOOTH",
"341 1572 OFFCURVE",
"354 1575 OFFCURVE",
"359 1575 CURVE SMOOTH",
"388 1575 OFFCURVE",
"402 1552 OFFCURVE",
"402 1505 CURVE SMOOTH",
"402 1422 OFFCURVE",
"339 1343 OFFCURVE",
"212 1268 CURVE",
"212 1219 LINE"
);
},
{
closed = 1;
nodes = (
"956 1282 OFFCURVE",
"1055 1404 OFFCURVE",
"1055 1581 CURVE SMOOTH",
"1055 1648 OFFCURVE",
"1033 1704 OFFCURVE",
"990 1749 CURVE SMOOTH",
"951 1788 OFFCURVE",
"908 1808 OFFCURVE",
"859 1808 CURVE SMOOTH",
"822 1808 OFFCURVE",
"788 1798 OFFCURVE",
"758 1778 CURVE SMOOTH",
"724 1752 OFFCURVE",
"707 1718 OFFCURVE",
"707 1675 CURVE SMOOTH",
"707 1640 OFFCURVE",
"719 1611 OFFCURVE",
"743 1588 CURVE SMOOTH",
"767 1565 OFFCURVE",
"793 1554 OFFCURVE",
"822 1554 CURVE SMOOTH",
"833 1554 OFFCURVE",
"848 1557 OFFCURVE",
"868 1563 CURVE SMOOTH",
"888 1570 OFFCURVE",
"901 1573 OFFCURVE",
"908 1573 CURVE SMOOTH",
"937 1573 OFFCURVE",
"951 1550 OFFCURVE",
"951 1503 CURVE SMOOTH",
"951 1420 OFFCURVE",
"887 1341 OFFCURVE",
"758 1266 CURVE",
"758 1217 LINE"
);
}
);
vertWidth = 0;
width = 1600;
}
);
note = "";
unicode = 201D;
},
{
glyphname = quotedblbase;
layers = (
{
layerId = "D444198A-330D-4B37-A977-E225F0F0EE7C";
paths = (
{
closed = 1;
nodes = (
"694 -306 OFFCURVE",
"886 -219 OFFCURVE",
"886 -2 CURVE SMOOTH",
"886 124 OFFCURVE",
"788 204 OFFCURVE",
"705 204 CURVE SMOOTH",
"647 204 OFFCURVE",
"567 166 OFFCURVE",
"567 84 CURVE SMOOTH",
"567 13 OFFCURVE",
"625 -27 OFFCURVE",
"672 -27 CURVE SMOOTH",
"698 -27 OFFCURVE",
"732 -10 OFFCURVE",
"750 -10 CURVE SMOOTH",
"760 -10 OFFCURVE",
"788 -19 OFFCURVE",
"788 -73 CURVE SMOOTH",
"788 -186 OFFCURVE",
"688 -246 OFFCURVE",
"614 -289 CURVE",
"614 -333 LINE"
);
},
{
closed = 1;
nodes = (
"197 -305 OFFCURVE",
"386 -217 OFFCURVE",
"386 0 CURVE SMOOTH",
"386 126 OFFCURVE",
"291 206 OFFCURVE",
"206 206 CURVE SMOOTH",
"149 206 OFFCURVE",
"69 168 OFFCURVE",
"69 86 CURVE SMOOTH",
"69 15 OFFCURVE",
"126 -24 OFFCURVE",
"173 -24 CURVE SMOOTH",
"200 -24 OFFCURVE",
"232 -8 OFFCURVE",
"252 -8 CURVE SMOOTH",
"262 -8 OFFCURVE",
"291 -17 OFFCURVE",
"291 -71 CURVE SMOOTH",
"291 -184 OFFCURVE",
"190 -244 OFFCURVE",
"117 -287 CURVE",
"117 -332 LINE"
);
}
);
vertWidth = 0;
width = 945;
}
);
note = "";
unicode = 201E;
},
{
glyphname = dagger;
layers = (
{
layerId = "D444198A-330D-4B37-A977-E225F0F0EE7C";
paths = (
{
closed = 1;
nodes = (
"546 -436 LINE",
"555 -66 OFFCURVE",
"567 182 OFFCURVE",
"580 306 CURVE SMOOTH",
"592 432 OFFCURVE",
"616 557 OFFCURVE",
"650 686 CURVE",
"614 715 OFFCURVE",
"590 745 OFFCURVE",
"573 783 CURVE SMOOTH",
"559 817 OFFCURVE",
"547 866 OFFCURVE",
"546 930 CURVE",
"573 928 OFFCURVE",
"645 918 OFFCURVE",
"682 899 CURVE SMOOTH",
"757 863 OFFCURVE",
"815 850 OFFCURVE",
"852 850 CURVE SMOOTH",
"891 850 OFFCURVE",
"962 872 OFFCURVE",
"962 948 CURVE SMOOTH",
"962 1012 OFFCURVE",
"907 1051 OFFCURVE",
"850 1051 CURVE SMOOTH",
"799 1051 OFFCURVE",
"752 1026 OFFCURVE",
"682 999 CURVE SMOOTH",
"639 983 OFFCURVE",
"594 971 OFFCURVE",
"546 970 CURVE",
"547 1019 OFFCURVE",
"563 1072 OFFCURVE",
"586 1131 CURVE SMOOTH",
"610 1190 OFFCURVE",
"641 1258 OFFCURVE",
"641 1326 CURVE SMOOTH",
"641 1385 OFFCURVE",
"600 1459 OFFCURVE",
"528 1459 CURVE SMOOTH",
"466 1459 OFFCURVE",
"413 1414 OFFCURVE",
"413 1326 CURVE SMOOTH",
"413 1279 OFFCURVE",
"426 1212 OFFCURVE",
"469 1123 CURVE SMOOTH",
"498 1063 OFFCURVE",
"508 998 OFFCURVE",
"508 970 CURVE",
"457 971 OFFCURVE",
"412 981 OFFCURVE",
"369 999 CURVE SMOOTH",
"303 1028 OFFCURVE",
"262 1053 OFFCURVE",
"213 1053 CURVE SMOOTH",
"158 1053 OFFCURVE",
"104 1010 OFFCURVE",
"104 948 CURVE SMOOTH",
"104 893 OFFCURVE",
"143 850 OFFCURVE",
"211 850 CURVE SMOOTH",
"244 850 OFFCURVE",
"297 865 OFFCURVE",
"369 895 CURVE SMOOTH",
"416 916 OFFCURVE",
"463 928 OFFCURVE",
"508 930 CURVE",
"500 865 OFFCURVE",
"492 815 OFFCURVE",
"477 783 CURVE SMOOTH",
"463 748 OFFCURVE",
"436 715 OFFCURVE",
"401 686 CURVE",
"434 561 OFFCURVE",
"459 428 OFFCURVE",
"473 291 CURVE SMOOTH",
"494 106 OFFCURVE",
"504 -137 OFFCURVE",
"508 -436 CURVE"
);
}
);
vertWidth = 0;
width = 1066;
}
);
note = "";
unicode = 2020;
},
{
glyphname = daggerdbl;
layers = (
{
layerId = "D444198A-330D-4B37-A977-E225F0F0EE7C";
paths = (
{
closed = 1;
nodes = (
"588 -461 OFFCURVE",
"639 -418 OFFCURVE",
"639 -350 CURVE SMOOTH",
"639 -310 OFFCURVE",
"621 -255 OFFCURVE",
"588 -179 CURVE SMOOTH",
"575 -153 OFFCURVE",
"551 -84 OFFCURVE",
"551 -39 CURVE",
"618 -40 OFFCURVE",
"659 -57 OFFCURVE",
"692 -71 CURVE SMOOTH",
"755 -95 OFFCURVE",
"797 -111 OFFCURVE",
"823 -111 CURVE SMOOTH",
"874 -111 OFFCURVE",
"920 -82 OFFCURVE",
"920 -13 CURVE SMOOTH",
"920 42 OFFCURVE",
"872 75 OFFCURVE",
"823 75 CURVE SMOOTH",
"788 75 OFFCURVE",
"743 63 OFFCURVE",
"684 40 CURVE",
"647 22 OFFCURVE",
"600 8 OFFCURVE",
"551 6 CURVE",
"557 50 OFFCURVE",
"567 78 OFFCURVE",
"580 99 CURVE SMOOTH",
"592 122 OFFCURVE",
"616 149 OFFCURVE",
"650 175 CURVE",
"610 228 OFFCURVE",
"551 317 OFFCURVE",
"551 502 CURVE SMOOTH",
"551 703 OFFCURVE",
"614 788 OFFCURVE",
"650 840 CURVE",
"614 866 OFFCURVE",
"590 891 OFFCURVE",
"580 914 CURVE",
"565 939 OFFCURVE",
"555 970 OFFCURVE",
"551 1017 CURVE",
"582 1012 OFFCURVE",
"604 1019 OFFCURVE",
"692 977 CURVE SMOOTH",
"723 964 OFFCURVE",
"783 945 OFFCURVE",
"821 945 CURVE SMOOTH",
"870 945 OFFCURVE",
"920 971 OFFCURVE",
"920 1034 CURVE SMOOTH",
"920 1099 OFFCURVE",
"877 1127 OFFCURVE",
"827 1127 CURVE SMOOTH",
"772 1127 OFFCURVE",
"725 1106 OFFCURVE",
"690 1090 CURVE SMOOTH",
"635 1063 OFFCURVE",
"582 1057 OFFCURVE",
"551 1055 CURVE",
"555 1112 OFFCURVE",
"567 1163 OFFCURVE",
"588 1212 CURVE SMOOTH",
"608 1263 OFFCURVE",
"633 1304 OFFCURVE",
"633 1361 CURVE SMOOTH",
"633 1416 OFFCURVE",
"608 1479 OFFCURVE",
"532 1479 CURVE SMOOTH",
"463 1479 OFFCURVE",
"426 1420 OFFCURVE",
"426 1365 CURVE SMOOTH",
"426 1316 OFFCURVE",
"457 1248 OFFCURVE",
"471 1211 CURVE SMOOTH",
"496 1150 OFFCURVE",
"510 1083 OFFCURVE",
"510 1055 CURVE",
"483 1057 OFFCURVE",
"455 1055 OFFCURVE",
"371 1090 CURVE SMOOTH",
"310 1114 OFFCURVE",
"266 1127 OFFCURVE",
"232 1127 CURVE SMOOTH",
"184 1127 OFFCURVE",
"145 1093 OFFCURVE",
"145 1036 CURVE SMOOTH",
"145 973 OFFCURVE",
"190 946 OFFCURVE",
"236 946 CURVE SMOOTH",
"270 946 OFFCURVE",
"313 952 OFFCURVE",
"358 973 CURVE SMOOTH",
"455 1017 OFFCURVE",
"481 1015 OFFCURVE",
"510 1017 CURVE",
"500 968 OFFCURVE",
"492 930 OFFCURVE",
"477 910 CURVE",
"466 888 OFFCURVE",
"442 863 OFFCURVE",
"410 840 CURVE",
"442 803 OFFCURVE",
"512 715 OFFCURVE",
"512 516 CURVE SMOOTH",
"512 322 OFFCURVE",
"439 219 OFFCURVE",
"410 175 CURVE",
"444 149 OFFCURVE",
"469 124 OFFCURVE",
"481 104 CURVE SMOOTH",
"494 78 OFFCURVE",
"502 48 OFFCURVE",
"510 8 CURVE",
"428 8 OFFCURVE",
"397 29 OFFCURVE",
"365 42 CURVE SMOOTH",
"310 66 OFFCURVE",
"272 75 OFFCURVE",
"248 75 CURVE SMOOTH",
"202 75 OFFCURVE",
"146 50 OFFCURVE",
"146 -17 CURVE SMOOTH",
"146 -88 OFFCURVE",
"197 -111 OFFCURVE",
"242 -111 CURVE SMOOTH",
"268 -111 OFFCURVE",
"306 -97 OFFCURVE",
"358 -75 CURVE SMOOTH",
"393 -59 OFFCURVE",
"434 -39 OFFCURVE",
"510 -39 CURVE",
"504 -88 OFFCURVE",
"494 -131 OFFCURVE",
"477 -175 CURVE SMOOTH",
"455 -238 OFFCURVE",
"428 -305 OFFCURVE",
"428 -348 CURVE SMOOTH",
"428 -420 OFFCURVE",
"487 -461 OFFCURVE",
"532 -461 CURVE SMOOTH"
);
}
);
vertWidth = 0;
width = 1066;
}
);
note = "";
unicode = 2021;
},
{
glyphname = bullet;
layers = (
{
layerId = "D444198A-330D-4B37-A977-E225F0F0EE7C";
paths = (
{
closed = 1;
nodes = (
"861 745 OFFCURVE",
"914 766 OFFCURVE",
"958 811 CURVE SMOOTH",
"1003 854 OFFCURVE",
"1024 907 OFFCURVE",
"1024 968 CURVE SMOOTH",
"1024 1031 OFFCURVE",
"1003 1084 OFFCURVE",
"958 1128 CURVE SMOOTH",
"914 1171 OFFCURVE",
"862 1193 OFFCURVE",
"798 1193 CURVE SMOOTH",
"737 1193 OFFCURVE",
"685 1171 OFFCURVE",
"641 1128 CURVE SMOOTH",
"596 1084 OFFCURVE",
"575 1031 OFFCURVE",
"575 968 CURVE SMOOTH",
"575 907 OFFCURVE",
"596 854 OFFCURVE",
"641 811 CURVE SMOOTH",
"685 766 OFFCURVE",
"737 745 OFFCURVE",
"798 745 CURVE SMOOTH"
);
}
);
vertWidth = 0;
width = 1600;
}
);
note = "";
unicode = 2022;
},
{
glyphname = ellipsis;
layers = (
{
layerId = "D444198A-330D-4B37-A977-E225F0F0EE7C";
paths = (
{
closed = 1;
nodes = (
"1367 752 OFFCURVE",
"1403 768 OFFCURVE",
"1434 798 CURVE SMOOTH",
"1465 827 OFFCURVE",
"1480 864 OFFCURVE",
"1480 907 CURVE SMOOTH",
"1480 951 OFFCURVE",
"1464 988 OFFCURVE",
"1434 1018 CURVE SMOOTH",
"1405 1047 OFFCURVE",
"1368 1063 OFFCURVE",
"1324 1063 CURVE SMOOTH",
"1281 1063 OFFCURVE",
"1244 1047 OFFCURVE",
"1214 1018 CURVE SMOOTH",
"1184 988 OFFCURVE",
"1169 951 OFFCURVE",
"1169 907 CURVE SMOOTH",
"1169 864 OFFCURVE",
"1184 827 OFFCURVE",
"1214 798 CURVE SMOOTH",
"1244 768 OFFCURVE",
"1281 752 OFFCURVE",
"1324 752 CURVE SMOOTH"
);
},
{
closed = 1;
nodes = (
"317 752 OFFCURVE",
"353 768 OFFCURVE",
"384 798 CURVE SMOOTH",
"415 827 OFFCURVE",
"430 864 OFFCURVE",
"430 907 CURVE SMOOTH",
"430 951 OFFCURVE",
"414 988 OFFCURVE",
"384 1018 CURVE SMOOTH",
"355 1047 OFFCURVE",
"318 1063 OFFCURVE",
"274 1063 CURVE SMOOTH",
"231 1063 OFFCURVE",
"194 1047 OFFCURVE",
"164 1018 CURVE SMOOTH",
"134 988 OFFCURVE",
"119 951 OFFCURVE",
"119 907 CURVE SMOOTH",
"119 864 OFFCURVE",
"134 827 OFFCURVE",
"164 798 CURVE SMOOTH",
"194 768 OFFCURVE",
"231 752 OFFCURVE",
"274 752 CURVE SMOOTH"
);
},
{
closed = 1;
nodes = (
"842 752 OFFCURVE",
"878 768 OFFCURVE",
"909 798 CURVE SMOOTH",
"940 827 OFFCURVE",
"955 864 OFFCURVE",
"955 907 CURVE SMOOTH",
"955 951 OFFCURVE",
"939 988 OFFCURVE",
"909 1018 CURVE SMOOTH",
"880 1047 OFFCURVE",
"843 1063 OFFCURVE",
"799 1063 CURVE SMOOTH",
"756 1063 OFFCURVE",
"719 1047 OFFCURVE",
"689 1018 CURVE SMOOTH",
"659 988 OFFCURVE",
"644 951 OFFCURVE",
"644 907 CURVE SMOOTH",
"644 864 OFFCURVE",
"659 827 OFFCURVE",
"689 798 CURVE SMOOTH",
"719 768 OFFCURVE",
"756 752 OFFCURVE",
"799 752 CURVE SMOOTH"
);
}
);
vertWidth = 0;
width = 1599;
}
);
note = "";
unicode = 2026;
},
{
glyphname = uni2027;
layers = (
{
layerId = "D444198A-330D-4B37-A977-E225F0F0EE7C";
paths = (
{
closed = 1;
nodes = (
"861 745 OFFCURVE",
"914 766 OFFCURVE",
"958 811 CURVE SMOOTH",
"1003 854 OFFCURVE",
"1024 907 OFFCURVE",
"1024 968 CURVE SMOOTH",
"1024 1031 OFFCURVE",
"1003 1084 OFFCURVE",
"958 1128 CURVE SMOOTH",
"914 1171 OFFCURVE",
"862 1193 OFFCURVE",
"798 1193 CURVE SMOOTH",
"737 1193 OFFCURVE",
"685 1171 OFFCURVE",
"641 1128 CURVE SMOOTH",
"596 1084 OFFCURVE",
"575 1031 OFFCURVE",
"575 968 CURVE SMOOTH",
"575 907 OFFCURVE",
"596 854 OFFCURVE",
"641 811 CURVE SMOOTH",
"685 766 OFFCURVE",
"737 745 OFFCURVE",
"798 745 CURVE SMOOTH"
);
}
);
vertWidth = 0;
width = 1600;
}
);
note = "";
unicode = 2027;
},
{
glyphname = perthousand;
layers = (
{
layerId = "D444198A-330D-4B37-A977-E225F0F0EE7C";
paths = (
{
closed = 1;
nodes = (
"328 -33 LINE",
"1209 1449 LINE",
"1081 1449 LINE",
"999 1370 OFFCURVE",
"958 1304 OFFCURVE",
"812 1304 CURVE SMOOTH",
"637 1304 OFFCURVE",
"547 1447 OFFCURVE",
"451 1447 CURVE SMOOTH",
"264 1447 OFFCURVE",
"37 1250 OFFCURVE",
"37 971 CURVE SMOOTH",
"37 821 OFFCURVE",
"97 666 OFFCURVE",
"280 666 CURVE SMOOTH",
"528 666 OFFCURVE",
"653 1008 OFFCURVE",
"653 1197 CURVE SMOOTH",
"653 1224 OFFCURVE",
"650 1252 OFFCURVE",
"645 1277 CURVE",
"772 1237 OFFCURVE",
"920 1232 OFFCURVE",
"1051 1350 CURVE",
"226 -33 LINE"
);
},
{
closed = 1;
nodes = (
"221 732 OFFCURVE",
"199 803 OFFCURVE",
"199 916 CURVE SMOOTH",
"199 1057 OFFCURVE",
"293 1353 OFFCURVE",
"455 1387 CURVE",
"492 1350 OFFCURVE",
"535 1319 OFFCURVE",
"584 1294 CURVE",
"599 1266 OFFCURVE",
"599 1230 OFFCURVE",
"599 1194 CURVE SMOOTH",
"599 975 OFFCURVE",
"455 732 OFFCURVE",
"305 732 CURVE SMOOTH"
);
},
{
closed = 1;
nodes = (
"1211 -31 OFFCURVE",
"1447 193 OFFCURVE",
"1447 528 CURVE SMOOTH",
"1447 641 OFFCURVE",
"1365 764 OFFCURVE",
"1219 764 CURVE SMOOTH",
"977 764 OFFCURVE",
"757 494 OFFCURVE",
"757 262 CURVE SMOOTH",
"757 101 OFFCURVE",
"810 -31 OFFCURVE",
"1026 -31 CURVE SMOOTH"
);
},
{
closed = 1;
nodes = (
"968 35 OFFCURVE",
"918 97 OFFCURVE",
"918 177 CURVE SMOOTH",
"918 369 OFFCURVE",
"1066 694 OFFCURVE",
"1243 694 CURVE SMOOTH",
"1340 694 OFFCURVE",
"1392 600 OFFCURVE",
"1392 516 CURVE SMOOTH",
"1392 344 OFFCURVE",
"1252 35 OFFCURVE",
"1051 35 CURVE SMOOTH"
);
},
{
closed = 1;
nodes = (
"1978 -31 OFFCURVE",
"2214 193 OFFCURVE",
"2214 528 CURVE SMOOTH",
"2214 641 OFFCURVE",
"2132 764 OFFCURVE",
"1986 764 CURVE SMOOTH",
"1744 764 OFFCURVE",
"1523 494 OFFCURVE",
"1523 262 CURVE SMOOTH",
"1523 101 OFFCURVE",
"1576 -31 OFFCURVE",
"1794 -31 CURVE SMOOTH"
);
},
{
closed = 1;
nodes = (
"1734 35 OFFCURVE",
"1684 97 OFFCURVE",
"1684 177 CURVE SMOOTH",
"1684 381 OFFCURVE",
"1832 694 OFFCURVE",
"2010 694 CURVE SMOOTH",
"2107 694 OFFCURVE",
"2159 600 OFFCURVE",
"2159 516 CURVE SMOOTH",
"2159 344 OFFCURVE",
"2018 35 OFFCURVE",
"1818 35 CURVE SMOOTH"
);
}
);
vertWidth = 0;
width = 2250;
}
);
note = "";
unicode = 2030;
},
{
glyphname = guilsinglleft;
layers = (
{
layerId = "D444198A-330D-4B37-A977-E225F0F0EE7C";
paths = (
{
closed = 1;
nodes = (
"582 -8 LINE",
"328 483 LINE",
"582 971 LINE",
"526 971 LINE",
"122 483 LINE",
"526 -8 LINE"
);
}
);
vertWidth = 0;
width = 709;
}
);
note = "";
unicode = 2039;
},
{
glyphname = guilsinglright;
layers = (
{
layerId = "D444198A-330D-4B37-A977-E225F0F0EE7C";
paths = (
{
closed = 1;
nodes = (
"182 -8 LINE",
"586 479 LINE",
"182 971 LINE",
"126 971 LINE",
"381 479 LINE",
"126 -8 LINE"
);
}
);
vertWidth = 0;
width = 709;
}
);
note = "";
unicode = 203A;
},
{
glyphname = fraction;
layers = (
{
layerId = "D444198A-330D-4B37-A977-E225F0F0EE7C";
paths = (
{
closed = 1;
nodes = (
"124 -31 LINE",
"1103 1447 LINE",
"977 1447 LINE",
"0 -31 LINE"
);
}
);
vertWidth = 0;
width = 1103;
}
);
note = "";
unicode = 2044;
},
{
glyphname = uni2074;
layers = (
{
layerId = "D444198A-330D-4B37-A977-E225F0F0EE7C";
paths = (
{
closed = 1;
nodes = (
"556 806 LINE",
"556 1021 LINE",
"686 1021 LINE",
"686 1106 LINE",
"556 1106 LINE",
"556 1638 LINE",
"477 1638 LINE",
"22 1098 LINE",
"22 1021 LINE",
"438 1021 LINE",
"438 806 LINE"
);
},
{
closed = 1;
nodes = (
"438 1512 LINE",
"438 1106 LINE",
"92 1106 LINE"
);
}
);
vertWidth = 0;
width = 737;
}
);
note = "";
unicode = 2074;
},
{
glyphname = uni2075;
layers = (
{
layerId = "D444198A-330D-4B37-A977-E225F0F0EE7C";
paths = (
{
closed = 1;
nodes = (
"400 792 OFFCURVE",
"625 897 OFFCURVE",
"625 1100 CURVE SMOOTH",
"625 1330 OFFCURVE",
"318 1401 OFFCURVE",
"224 1409 CURVE",
"290 1518 LINE",
"583 1518 LINE",
"641 1620 LINE",
"290 1620 LINE",
"102 1305 LINE",
"193 1301 OFFCURVE",
"316 1293 OFFCURVE",
"422 1218 CURVE SMOOTH",
"506 1161 OFFCURVE",
"530 1086 OFFCURVE",
"530 1035 CURVE SMOOTH",
"530 931 OFFCURVE",
"429 854 OFFCURVE",
"320 854 CURVE SMOOTH",
"222 854 OFFCURVE",
"195 914 OFFCURVE",
"128 914 CURVE SMOOTH",
"79 914 OFFCURVE",
"71 885 OFFCURVE",
"71 871 CURVE SMOOTH",
"71 828 OFFCURVE",
"126 792 OFFCURVE",
"239 792 CURVE SMOOTH"
);
}
);
vertWidth = 0;
width = 737;
}
);
note = "";
unicode = 2075;
},
{
glyphname = uni2076;
layers = (
{
layerId = "D444198A-330D-4B37-A977-E225F0F0EE7C";
paths = (
{
closed = 1;
nodes = (
"560 792 OFFCURVE",
"680 938 OFFCURVE",
"680 1080 CURVE SMOOTH",
"680 1260 OFFCURVE",
"523 1320 OFFCURVE",
"434 1320 CURVE SMOOTH",
"363 1320 OFFCURVE",
"295 1301 OFFCURVE",
"224 1260 CURVE",
"262 1390 OFFCURVE",
"335 1471 OFFCURVE",
"386 1512 CURVE SMOOTH",
"457 1571 OFFCURVE",
"548 1610 OFFCURVE",
"660 1614 CURVE",
"660 1638 LINE",
"619 1638 LINE SMOOTH",
"521 1638 OFFCURVE",
"388 1606 OFFCURVE",
"264 1508 CURVE SMOOTH",
"167 1431 OFFCURVE",
"64 1305 OFFCURVE",
"64 1125 CURVE SMOOTH",
"64 944 OFFCURVE",
"190 792 OFFCURVE",
"371 792 CURVE SMOOTH"
);
},
{
closed = 1;
nodes = (
"270 822 OFFCURVE",
"199 976 OFFCURVE",
"199 1086 CURVE SMOOTH",
"199 1119 OFFCURVE",
"205 1163 OFFCURVE",
"215 1216 CURVE",
"254 1238 OFFCURVE",
"307 1269 OFFCURVE",
"365 1269 CURVE SMOOTH",
"497 1269 OFFCURVE",
"551 1141 OFFCURVE",
"551 1015 CURVE SMOOTH",
"551 893 OFFCURVE",
"477 828 OFFCURVE",
"393 826 CURVE SMOOTH"
);
}
);
vertWidth = 0;
width = 737;
}
);
note = "";
unicode = 2076;
},
{
glyphname = uni2077;
layers = (
{
layerId = "D444198A-330D-4B37-A977-E225F0F0EE7C";
paths = (
{
closed = 1;
nodes = (
"345 788 LINE",
"670 1599 LINE",
"670 1620 LINE",
"148 1620 LINE",
"53 1429 LINE",
"75 1423 LINE",
"105 1465 OFFCURVE",
"130 1522 OFFCURVE",
"290 1522 CURVE SMOOTH",
"558 1522 LINE",
"264 788 LINE"
);
}
);
vertWidth = 0;
width = 737;
}
);
note = "";
unicode = 2077;
},
{
glyphname = uni2088;
layers = (
{
layerId = "D444198A-330D-4B37-A977-E225F0F0EE7C";
paths = (
{
closed = 1;
nodes = (
"593 792 OFFCURVE",
"653 927 OFFCURVE",
"653 999 CURVE SMOOTH",
"653 1119 OFFCURVE",
"515 1204 OFFCURVE",
"429 1258 CURVE",
"512 1301 OFFCURVE",
"630 1364 OFFCURVE",
"630 1461 CURVE SMOOTH",
"630 1508 OFFCURVE",
"581 1638 OFFCURVE",
"369 1638 CURVE SMOOTH",
"227 1638 OFFCURVE",
"100 1565 OFFCURVE",
"100 1443 CURVE SMOOTH",
"100 1334 OFFCURVE",
"207 1269 OFFCURVE",
"284 1216 CURVE",
"211 1175 OFFCURVE",
"87 1094 OFFCURVE",
"87 991 CURVE SMOOTH",
"87 899 OFFCURVE",
"186 792 OFFCURVE",
"369 792 CURVE SMOOTH"
);
},
{
closed = 1;
nodes = (
"278 826 OFFCURVE",
"199 885 OFFCURVE",
"199 993 CURVE SMOOTH",
"199 1104 OFFCURVE",
"278 1165 OFFCURVE",
"318 1194 CURVE",
"406 1132 OFFCURVE",
"550 1055 OFFCURVE",
"550 950 CURVE SMOOTH",
"550 869 OFFCURVE",
"474 826 OFFCURVE",
"378 826 CURVE SMOOTH"
);
},
{
closed = 1;
nodes = (
"274 1360 OFFCURVE",
"205 1403 OFFCURVE",
"205 1484 CURVE SMOOTH",
"205 1559 OFFCURVE",
"280 1602 OFFCURVE",
"371 1602 CURVE SMOOTH",
"448 1602 OFFCURVE",
"528 1571 OFFCURVE",
"528 1469 CURVE SMOOTH",
"528 1376 OFFCURVE",
"469 1337 OFFCURVE",
"397 1281 CURVE"
);
}
);
vertWidth = 0;
width = 737;
}
);
note = "";
unicode = 2088;
},
{
glyphname = uni2099;
layers = (
{
layerId = "D444198A-330D-4B37-A977-E225F0F0EE7C";
paths = (
{
closed = 1;
nodes = (
"118 788 LINE SMOOTH",
"327 788 OFFCURVE",
"469 912 OFFCURVE",
"508 950 CURVE SMOOTH",
"619 1051 OFFCURVE",
"674 1168 OFFCURVE",
"674 1301 CURVE SMOOTH",
"674 1459 OFFCURVE",
"562 1638 OFFCURVE",
"363 1638 CURVE SMOOTH",
"203 1638 OFFCURVE",
"59 1518 OFFCURVE",
"59 1346 CURVE SMOOTH",
"59 1222 OFFCURVE",
"146 1104 OFFCURVE",
"307 1104 CURVE SMOOTH",
"371 1104 OFFCURVE",
"438 1123 OFFCURVE",
"512 1165 CURVE",
"479 1053 OFFCURVE",
"416 972 OFFCURVE",
"345 907 CURVE SMOOTH",
"252 824 OFFCURVE",
"128 812 OFFCURVE",
"77 810 CURVE",
"77 788 LINE"
);
},
{
closed = 1;
nodes = (
"258 1157 OFFCURVE",
"188 1260 OFFCURVE",
"188 1407 CURVE SMOOTH",
"188 1531 OFFCURVE",
"260 1595 OFFCURVE",
"345 1599 CURVE SMOOTH",
"432 1602 OFFCURVE",
"538 1508 OFFCURVE",
"538 1332 CURVE SMOOTH",
"538 1301 OFFCURVE",
"532 1260 OFFCURVE",
"523 1208 CURVE",
"504 1187 OFFCURVE",
"422 1157 OFFCURVE",
"367 1157 CURVE SMOOTH"
);
}
);
vertWidth = 0;
width = 737;
}
);
note = "";
unicode = 2099;
},
{
glyphname = Euro;
layers = (
{
layerId = "D444198A-330D-4B37-A977-E225F0F0EE7C";
paths = (
{
closed = 1;
nodes = (
"766 -33 OFFCURVE",
"898 84 OFFCURVE",
"1002 330 CURVE",
"980 352 LINE",
"856 117 OFFCURVE",
"766 59 OFFCURVE",
"630 59 CURVE SMOOTH",
"411 59 OFFCURVE",
"263 247 OFFCURVE",
"241 593 CURVE",
"750 593 LINE",
"770 681 LINE",
"239 681 LINE",
"239 706 OFFCURVE",
"239 732 OFFCURVE",
"240 756 CURVE",
"788 756 LINE",
"809 844 LINE",
"246 844 LINE",
"278 1202 OFFCURVE",
"419 1369 OFFCURVE",
"608 1369 CURVE SMOOTH",
"768 1369 OFFCURVE",
"892 1252 OFFCURVE",
"955 964 CURVE",
"980 964 LINE",
"955 1443 LINE",
"927 1443 LINE",
"917 1376 OFFCURVE",
"892 1344 OFFCURVE",
"864 1344 CURVE SMOOTH",
"832 1344 OFFCURVE",
"752 1443 OFFCURVE",
"594 1443 CURVE SMOOTH",
"317 1443 OFFCURVE",
"121 1181 OFFCURVE",
"74 844 CURVE",
"-40 844 LINE",
"-61 756 LINE",
"65 756 LINE",
"63 732 OFFCURVE",
"63 708 OFFCURVE",
"63 684 CURVE SMOOTH",
"63 681 LINE",
"-40 681 LINE",
"-61 593 LINE",
"66 593 LINE",
"93 248 OFFCURVE",
"276 -33 OFFCURVE",
"570 -33 CURVE SMOOTH"
);
}
);
vertWidth = 0;
width = 1066;
}
);
note = "";
unicode = 20AC;
},
{
glyphname = trademark;
layers = (
{
layerId = "D444198A-330D-4B37-A977-E225F0F0EE7C";
paths = (
{
closed = 1;
nodes = (
"1224 572 LINE",
"1224 608 LINE",
"1097 608 OFFCURVE",
"1087 633 OFFCURVE",
"1087 745 CURVE SMOOTH",
"1087 1245 LINE",
"1410 572 LINE",
"1443 572 LINE",
"1762 1258 LINE",
"1762 743 LINE SMOOTH",
"1762 629 OFFCURVE",
"1740 608 OFFCURVE",
"1639 608 CURVE",
"1639 572 LINE",
"2054 572 LINE",
"2054 608 LINE",
"1957 608 OFFCURVE",
"1936 631 OFFCURVE",
"1936 745 CURVE SMOOTH",
"1936 1232 LINE SMOOTH",
"1936 1317 OFFCURVE",
"1936 1379 OFFCURVE",
"2054 1372 CURVE",
"2054 1410 LINE",
"1762 1410 LINE",
"1488 815 LINE",
"1203 1410 LINE",
"905 1410 LINE",
"905 1372 LINE",
"1021 1372 OFFCURVE",
"1023 1338 OFFCURVE",
"1023 1230 CURVE SMOOTH",
"1023 745 LINE SMOOTH",
"1023 643 OFFCURVE",
"1019 608 OFFCURVE",
"905 608 CURVE",
"905 572 LINE"
);
},
{
closed = 1;
nodes = (
"629 572 LINE",
"629 608 LINE",
"526 612 OFFCURVE",
"518 639 OFFCURVE",
"518 745 CURVE SMOOTH",
"518 1348 LINE",
"596 1348 LINE SMOOTH",
"743 1348 OFFCURVE",
"788 1294 OFFCURVE",
"797 1203 CURVE",
"835 1203 LINE",
"817 1410 LINE",
"46 1410 LINE",
"33 1203 LINE",
"66 1203 LINE",
"92 1317 OFFCURVE",
"139 1348 OFFCURVE",
"264 1348 CURVE SMOOTH",
"342 1348 LINE",
"342 745 LINE SMOOTH",
"342 616 OFFCURVE",
"326 624 OFFCURVE",
"238 608 CURVE",
"238 572 LINE"
);
}
);
vertWidth = 0;
width = 2089;
}
);
note = "";
unicode = 2122;
},
{
glyphname = partialdiff;
layers = (
{
layerId = "D444198A-330D-4B37-A977-E225F0F0EE7C";
paths = (
{
closed = 1;
nodes = (
"930 -44 OFFCURVE",
"988 659 OFFCURVE",
"988 840 CURVE SMOOTH",
"988 968 OFFCURVE",
"910 1443 OFFCURVE",
"471 1443 CURVE SMOOTH",
"365 1443 OFFCURVE",
"262 1408 OFFCURVE",
"200 1381 CURVE",
"284 1275 LINE",
"393 1321 OFFCURVE",
"418 1344 OFFCURVE",
"524 1344 CURVE SMOOTH",
"679 1344 OFFCURVE",
"827 1172 OFFCURVE",
"823 964 CURVE SMOOTH",
"821 881 OFFCURVE",
"819 803 OFFCURVE",
"801 715 CURVE",
"657 825 OFFCURVE",
"604 861 OFFCURVE",
"479 861 CURVE SMOOTH",
"352 861 OFFCURVE",
"57 768 OFFCURVE",
"57 333 CURVE SMOOTH",
"57 162 OFFCURVE",
"213 -44 OFFCURVE",
"463 -44 CURVE SMOOTH"
);
},
{
closed = 1;
nodes = (
"253 17 OFFCURVE",
"240 230 OFFCURVE",
"240 315 CURVE SMOOTH",
"240 502 OFFCURVE",
"340 776 OFFCURVE",
"551 776 CURVE SMOOTH",
"682 776 OFFCURVE",
"739 688 OFFCURVE",
"785 639 CURVE",
"750 348 OFFCURVE",
"655 17 OFFCURVE",
"442 17 CURVE SMOOTH"
);
}
);
vertWidth = 0;
width = 1057;
}
);
note = "";
unicode = 2202;
},
{
glyphname = minus;
layers = (
{
layerId = "D444198A-330D-4B37-A977-E225F0F0EE7C";
paths = (
{
closed = 1;
nodes = (
"1639 551 LINE",
"1639 679 LINE",
"410 679 LINE",
"410 551 LINE"
);
}
);
vertWidth = 0;
width = 2049;
}
);
note = "";
unicode = 2212;
},
{
glyphname = uni2219;
layers = (
{
layerId = "D444198A-330D-4B37-A977-E225F0F0EE7C";
paths = (
{
closed = 1;
nodes = (
"336 745 OFFCURVE",
"390 766 OFFCURVE",
"435 811 CURVE SMOOTH",
"479 854 OFFCURVE",
"499 907 OFFCURVE",
"499 968 CURVE SMOOTH",
"499 1031 OFFCURVE",
"478 1084 OFFCURVE",
"435 1128 CURVE SMOOTH",
"390 1171 OFFCURVE",
"337 1193 OFFCURVE",
"275 1193 CURVE SMOOTH",
"213 1193 OFFCURVE",
"160 1171 OFFCURVE",
"117 1128 CURVE SMOOTH",
"73 1084 OFFCURVE",
"51 1031 OFFCURVE",
"51 968 CURVE SMOOTH",
"51 907 OFFCURVE",
"73 854 OFFCURVE",
"117 811 CURVE SMOOTH",
"160 766 OFFCURVE",
"213 745 OFFCURVE",
"275 745 CURVE SMOOTH"
);
}
);
vertWidth = 0;
width = 1573;
}
);
note = "";
unicode = 2219;
},
{
glyphname = radical;
layers = (
{
layerId = "D444198A-330D-4B37-A977-E225F0F0EE7C";
paths = (
{
closed = 1;
nodes = (
"705 0 LINE",
"1076 1372 LINE",
"1179 1372 LINE",
"1179 1435 LINE",
"1015 1435 LINE",
"680 211 LINE",
"280 992 LINE",
"40 870 LINE",
"73 810 LINE",
"200 872 LINE",
"643 0 LINE"
);
}
);
vertWidth = 0;
width = 1179;
}
);
note = "";
unicode = 221A;
},
{
glyphname = "infinity";
layers = (
{
layerId = "D444198A-330D-4B37-A977-E225F0F0EE7C";
paths = (
{
closed = 1;
nodes = (
"804 329 OFFCURVE",
"951 464 OFFCURVE",
"1024 547 CURVE",
"1104 464 OFFCURVE",
"1242 329 OFFCURVE",
"1430 329 CURVE SMOOTH",
"1592 329 OFFCURVE",
"1704 482 OFFCURVE",
"1704 620 CURVE SMOOTH",
"1704 771 OFFCURVE",
"1573 902 OFFCURVE",
"1415 902 CURVE SMOOTH",
"1288 902 OFFCURVE",
"1153 808 OFFCURVE",
"1024 682 CURVE",
"887 807 OFFCURVE",
"773 902 OFFCURVE",
"633 902 CURVE SMOOTH",
"476 902 OFFCURVE",
"345 772 OFFCURVE",
"345 620 CURVE SMOOTH",
"345 482 OFFCURVE",
"456 329 OFFCURVE",
"619 329 CURVE SMOOTH"
);
},
{
closed = 1;
nodes = (
"542 427 OFFCURVE",
"449 501 OFFCURVE",
"449 609 CURVE SMOOTH",
"449 685 OFFCURVE",
"513 795 OFFCURVE",
"633 795 CURVE SMOOTH",
"741 795 OFFCURVE",
"837 715 OFFCURVE",
"956 614 CURVE",
"858 508 OFFCURVE",
"747 427 OFFCURVE",
"641 427 CURVE SMOOTH"
);
},
{
closed = 1;
nodes = (
"1283 427 OFFCURVE",
"1202 506 OFFCURVE",
"1093 614 CURVE",
"1207 712 OFFCURVE",
"1306 795 OFFCURVE",
"1416 795 CURVE SMOOTH",
"1535 795 OFFCURVE",
"1600 687 OFFCURVE",
"1600 604 CURVE SMOOTH",
"1600 503 OFFCURVE",
"1505 427 OFFCURVE",
"1408 427 CURVE SMOOTH"
);
}
);
vertWidth = 0;
width = 2049;
}
);
note = "";
unicode = 221E;
},
{
glyphname = integral;
layers = (
{
layerId = "D444198A-330D-4B37-A977-E225F0F0EE7C";
paths = (
{
closed = 1;
nodes = (
"446 -361 OFFCURVE",
"539 -266 OFFCURVE",
"563 381 CURVE SMOOTH",
"573 655 LINE SMOOTH",
"584 932 OFFCURVE",
"586 1258 OFFCURVE",
"592 1332 CURVE SMOOTH",
"596 1370 OFFCURVE",
"624 1433 OFFCURVE",
"737 1334 CURVE SMOOTH",
"797 1281 OFFCURVE",
"874 1326 OFFCURVE",
"890 1361 CURVE SMOOTH",
"910 1412 OFFCURVE",
"903 1457 OFFCURVE",
"859 1500 CURVE SMOOTH",
"832 1525 OFFCURVE",
"762 1530 OFFCURVE",
"698 1519 CURVE SMOOTH",
"496 1477 OFFCURVE",
"434 1321 OFFCURVE",
"413 748 CURVE SMOOTH",
"406 518 LINE SMOOTH",
"393 182 OFFCURVE",
"377 -139 OFFCURVE",
"373 -215 CURVE",
"367 -253 OFFCURVE",
"342 -313 OFFCURVE",
"226 -215 CURVE SMOOTH",
"168 -162 OFFCURVE",
"88 -209 OFFCURVE",
"71 -246 CURVE SMOOTH",
"50 -295 OFFCURVE",
"61 -342 OFFCURVE",
"101 -383 CURVE SMOOTH",
"128 -408 OFFCURVE",
"197 -416 OFFCURVE",
"262 -401 CURVE SMOOTH"
);
}
);
vertWidth = 0;
width = 966;
}
);
note = "";
unicode = 222B;
},
